NunitoSans-ExtraBoldItalic.ufo
<glyph name="exclam" format="2">
  <advance width="259.5903614457831"/>
  <unicode hex="0021"/>
  <outline>
    <contour>
      <point x="81.3132530120482" y="228.66265060240966" type="line"/>
      <point x="172.66265060240966" y="228.66265060240966" type="line"/>
      <point x="295.3012048192771" y="705.0" type="line"/>
      <point x="109.66265060240964" y="705.0" type="line"/>
    </contour>
    <contour>
      <point x="10.361445783132531" y="0.0" type="line"/>
      <point x="172.6024096385542" y="0.0" type="line"/>
      <point x="198.04819277108433" y="160.3012048192771" type="line"/>
      <point x="35.807228915662655" y="160.3012048192771" type="line"/>
    </contour>
  </outline>
</glyph>
<glyph name="numbersign" format="2">
  <advance width="600.0"/>
  <unicode hex="0023"/>
  <outline>
    <contour>
      <point x="37.61445783132531" y="0.0" type="line"/>
      <point x="138.3975903614458" y="0.0" type="line"/>
      <point x="197.2048192771084" y="165.73493975903617" type="line"/>
      <point x="304.4096385542169" y="165.73493975903617" type="line"/>
      <point x="245.60240963855424" y="0.0" type="line"/>
      <point x="345.0722891566265" y="0.0" type="line"/>
      <point x="404.566265060241" y="165.73493975903617" type="line"/>
      <point x="516.7951807228916" y="165.73493975903617" type="line"/>
      <point x="530.9879518072289" y="258.578313253012" type="line"/>
      <point x="437.5783132530121" y="258.578313253012" type="line"/>
      <point x="506.87951807228916" y="454.4216867469879" type="line"/>
      <point x="584.421686746988" y="454.4216867469879" type="line"/>
      <point x="598.6144578313254" y="547.9518072289156" type="line"/>
      <point x="540.5783132530121" y="547.9518072289156" type="line"/>
      <point x="596.3855421686746" y="705.0" type="line"/>
      <point x="495.60240963855426" y="705.0" type="line"/>
      <point x="439.7951807228916" y="547.9518072289156" type="line"/>
      <point x="331.9036144578313" y="547.9518072289156" type="line"/>
      <point x="387.71084337349396" y="705.0" type="line"/>
      <point x="288.2409638554217" y="705.0" type="line"/>
      <point x="232.43373493975903" y="547.9518072289156" type="line"/>
      <point x="118.89156626506023" y="547.9518072289156" type="line"/>
      <point x="104.69879518072288" y="454.4216867469879" type="line"/>
      <point x="199.42168674698797" y="454.4216867469879" type="line"/>
      <point x="130.12048192771084" y="258.578313253012" type="line"/>
      <point x="51.265060240963855" y="258.578313253012" type="line"/>
      <point x="37.0722891566265" y="165.73493975903617" type="line"/>
      <point x="96.42168674698796" y="165.73493975903617" type="line"/>
    </contour>
    <contour>
      <point x="229.9036144578313" y="258.578313253012" type="line"/>
      <point x="299.20481927710847" y="454.4216867469879" type="line"/>
      <point x="407.0963855421687" y="454.4216867469879" type="line"/>
      <point x="337.7951807228916" y="258.578313253012" type="line"/>
    </contour>
  </outline>
</glyph>
<glyph name="dollar" format="2">
  <advance width="600.0"/>
  <unicode hex="0024"/>
  <outline>
    <contour>
      <point x="193.28915662650604" y="-115.0" type="line"/>
      <point x="312.0843373493976" y="-115.0" type="line"/>
      <point x="332.0843373493976" y="16.253012048192772" type="line"/>
      <point x="310.51807228915663" y="-5.313253012048193" type="line"/>
      <point x="450.0843373493976" y="4.192771084337348"/>
      <point x="568.710843373494" y="77.13253012048192"/>
      <point x="568.710843373494" y="216.8313253012048" type="curve" smooth="yes"/>
      <point x="568.710843373494" y="308.14457831325296"/>
      <point x="509.45783132530124" y="372.5903614457831"/>
      <point x="397.78313253012044" y="401.3975903614458" type="curve" smooth="yes"/>
      <point x="294.45783132530124" y="427.33734939759034" type="line" smooth="yes"/>
      <point x="243.53012048192772" y="440.08433734939763"/>
      <point x="219.289156626506" y="461.5783132530121"/>
      <point x="219.289156626506" y="503.55421686746985" type="curve" smooth="yes"/>
      <point x="219.289156626506" y="551.9638554216867"/>
      <point x="268.7710843373494" y="582.6385542168674"/>
      <point x="351.0" y="582.6385542168674" type="curve" smooth="yes"/>
      <point x="411.92771084337346" y="582.6385542168674"/>
      <point x="485.1807228915663" y="564.8915662650603"/>
      <point x="544.1807228915662" y="516.2771084337351" type="curve"/>
      <point x="597.3855421686748" y="627.4457831325301" type="line"/>
      <point x="548.7590361445784" y="667.3132530120482"/>
      <point x="489.32530120481925" y="693.0602409638554"/>
      <point x="429.51807228915663" y="704.3734939759037" type="curve"/>
      <point x="439.0843373493976" y="695.3734939759036" type="line"/>
      <point x="460.0843373493976" y="820.0" type="line"/>
      <point x="341.28915662650604" y="820.0" type="line"/>
      <point x="320.9759036144578" y="695.7469879518072" type="line"/>
      <point x="338.48192771084337" y="711.3132530120482" type="line"/>
      <point x="190.7951807228916" y="706.8072289156627"/>
      <point x="67.85542168674698" y="627.3012048192771"/>
      <point x="67.85542168674698" y="487.79518072289153" type="curve" smooth="yes"/>
      <point x="67.85542168674698" y="390.9879518072289"/>
      <point x="128.48192771084337" y="328.6024096385542"/>
      <point x="226.36144578313255" y="303.60240963855415" type="curve" smooth="yes"/>
      <point x="329.6867469879518" y="277.6626506024096" type="line" smooth="yes"/>
      <point x="392.7831325301205" y="261.79518072289153"/>
      <point x="417.2771084337349" y="240.18072289156626"/>
      <point x="417.2771084337349" y="200.6987951807229" type="curve" smooth="yes"/>
      <point x="417.2771084337349" y="151.34939759036146"/>
      <point x="367.67469879518075" y="122.04819277108433"/>
      <point x="290.6265060240964" y="122.04819277108433" type="curve" smooth="yes"/>
      <point x="212.95180722891567" y="122.04819277108433"/>
      <point x="131.25301204819277" y="142.67469879518072"/>
      <point x="54.373493975903614" y="195.48192771084337" type="curve"/>
      <point x="2.7951807228915655" y="76.43373493975905" type="line"/>
      <point x="64.79518072289157" y="27.626506024096386"/>
      <point x="144.42168674698797" y="2.3132530120481927"/>
      <point x="230.16867469879517" y="-5.313253012048193" type="curve"/>
      <point x="213.60240963855424" y="16.879518072289155" type="line"/>
    </contour>
  </outline>
</glyph>
<glyph name="percent" format="2">
  <advance width="954.0843373493975"/>
  <unicode hex="0025"/>
  <outline>
    <contour>
      <point x="282.7831325301205" y="-33.81927710843374" type="line"/>
      <point x="792.1445783132531" y="672.7951807228916" type="line"/>
      <point x="704.6746987951808" y="734.566265060241" type="line"/>
      <point x="195.3132530120482" y="27.951807228915662" type="line"/>
    </contour>
    <contour>
      <point x="240.3132530120482" y="280.3734939759036" type="curve" smooth="yes"/>
      <point x="369.3734939759036" y="280.3734939759036"/>
      <point x="441.6867469879518" y="392.55421686746985"/>
      <point x="441.6867469879518" y="543.1807228915662" type="curve" smooth="yes"/>
      <point x="441.6867469879518" y="644.4939759036145"/>
      <point x="382.1204819277109" y="711.3734939759037"/>
      <point x="274.4819277108434" y="711.3734939759037" type="curve" smooth="yes"/>
      <point x="145.73493975903614" y="711.3734939759037"/>
      <point x="73.10843373493975" y="595.2530120481929"/>
      <point x="73.10843373493975" y="447.2530120481928" type="curve" smooth="yes"/>
      <point x="73.10843373493975" y="346.2530120481928"/>
      <point x="132.36144578313252" y="280.3734939759036"/>
    </contour>
    <contour>
      <point x="240.0" y="374.15662650602405" type="curve" smooth="yes"/>
      <point x="209.26506024096383" y="374.15662650602405"/>
      <point x="190.90361445783134" y="393.45783132530124"/>
      <point x="192.27710843373495" y="447.0" type="curve" smooth="yes"/>
      <point x="193.65060240963857" y="531.0361445783133"/>
      <point x="221.01204819277106" y="616.9036144578314"/>
      <point x="274.7951807228916" y="616.9036144578314" type="curve" smooth="yes"/>
      <point x="305.5301204819277" y="616.9036144578314"/>
      <point x="323.8915662650603" y="597.6024096385543"/>
      <point x="322.51807228915663" y="544.0602409638553" type="curve" smooth="yes"/>
      <point x="321.144578313253" y="460.71084337349396"/>
      <point x="293.7831325301205" y="374.15662650602405"/>
    </contour>
    <contour>
      <point x="712.6626506024097" y="-10.626506024096384" type="curve" smooth="yes"/>
      <point x="841.722891566265" y="-10.626506024096384"/>
      <point x="913.3493975903614" y="101.55421686746989"/>
      <point x="913.3493975903614" y="252.1807228915662" type="curve" smooth="yes"/>
      <point x="913.3493975903614" y="353.4939759036145"/>
      <point x="853.7831325301205" y="420.3734939759036"/>
      <point x="746.144578313253" y="420.3734939759036" type="curve" smooth="yes"/>
      <point x="618.0843373493975" y="420.3734939759036"/>
      <point x="545.4578313253013" y="304.2530120481928"/>
      <point x="545.4578313253013" y="156.25301204819277" type="curve" smooth="yes"/>
      <point x="545.4578313253013" y="55.93975903614458"/>
      <point x="604.0240963855422" y="-10.626506024096384"/>
    </contour>
    <contour>
      <point x="711.6626506024096" y="83.8433734939759" type="curve" smooth="yes"/>
      <point x="680.9277108433735" y="83.8433734939759"/>
      <point x="663.2530120481929" y="103.14457831325302"/>
      <point x="663.9397590361446" y="156.6867469879518" type="curve" smooth="yes"/>
      <point x="665.3132530120482" y="240.03614457831324"/>
      <point x="692.6746987951807" y="326.5903614457831"/>
      <point x="747.144578313253" y="326.5903614457831" type="curve" smooth="yes"/>
      <point x="777.8795180722892" y="326.5903614457831"/>
      <point x="795.5542168674699" y="307.289156626506"/>
      <point x="794.8674698795181" y="253.74698795180723" type="curve" smooth="yes"/>
      <point x="793.4939759036145" y="169.710843373494"/>
      <point x="766.1325301204819" y="83.8433734939759"/>
    </contour>
  </outline>
</glyph>
<glyph name="ampersand" format="2">
  <advance width="745.4216867469879"/>
  <unicode hex="0026"/>
  <outline>
    <contour>
      <point x="274.7108433734939" y="-10.626506024096384" type="curve" smooth="yes"/>
      <point x="369.0240963855422" y="-10.626506024096384"/>
      <point x="449.2048192771084" y="23.867469879518072"/>
      <point x="513.2650602409639" y="83.10843373493975" type="curve"/>
      <point x="488.8915662650602" y="84.73493975903614" type="line"/>
      <point x="559.0120481927711" y="0.0" type="line"/>
      <point x="732.2650602409637" y="0.0" type="line"/>
      <point x="578.4216867469879" y="177.8313253012048" type="line"/>
      <point x="578.0481927710844" y="142.75903614457832" type="line"/>
      <point x="644.4939759036143" y="218.32530120481925"/>
      <point x="693.0" y="320.578313253012"/>
      <point x="709.8072289156627" y="428.9518072289157" type="curve"/>
      <point x="585.7590361445783" y="428.9518072289157" type="line"/>
      <point x="568.7590361445783" y="352.96385542168673"/>
      <point x="540.3253012048193" y="282.66265060240966"/>
      <point x="499.0120481927711" y="227.97590361445782" type="curve"/>
      <point x="526.1445783132531" y="227.97590361445782" type="line"/>
      <point x="391.66265060240966" y="391.7469879518072" type="line"/>
      <point x="391.85542168674704" y="359.5542168674699" type="line"/>
      <point x="482.1566265060241" y="405.855421686747"/>
      <point x="568.5301204819277" y="473.92771084337346"/>
      <point x="568.5301204819277" y="570.3614457831326" type="curve" smooth="yes"/>
      <point x="568.5301204819277" y="655.8072289156627"/>
      <point x="500.7108433734939" y="715.6265060240964"/>
      <point x="395.9397590361446" y="715.6265060240964" type="curve" smooth="yes"/>
      <point x="267.43373493975906" y="715.6265060240964"/>
      <point x="170.54216867469881" y="636.8795180722891"/>
      <point x="170.54216867469881" y="518.3012048192771" type="curve" smooth="yes"/>
      <point x="170.54216867469881" y="471.4216867469879"/>
      <point x="188.22891566265062" y="420.9156626506024"/>
      <point x="227.34939759036146" y="378.2409638554217" type="curve"/>
      <point x="254.36144578313255" y="408.6867469879518" type="line"/>
      <point x="216.73493975903617" y="389.31325301204816" type="line" smooth="yes"/>
      <point x="118.98795180722892" y="338.4457831325301"/>
      <point x="43.12048192771085" y="265.9518072289157"/>
      <point x="43.12048192771085" y="161.89156626506022" type="curve" smooth="yes"/>
      <point x="43.12048192771085" y="60.07228915662651"/>
      <point x="133.0722891566265" y="-10.626506024096384"/>
    </contour>
    <contour>
      <point x="298.0963855421687" y="105.9156626506024" type="curve" smooth="yes"/>
      <point x="228.73493975903614" y="105.9156626506024"/>
      <point x="193.18072289156626" y="136.91566265060243"/>
      <point x="193.18072289156626" y="184.27710843373495" type="curve" smooth="yes"/>
      <point x="193.18072289156626" y="244.74698795180723"/>
      <point x="240.8433734939759" y="284.4939759036144"/>
      <point x="297.77108433734935" y="313.7951807228916" type="curve" smooth="yes"/>
      <point x="327.51807228915663" y="328.9156626506024" type="line"/>
      <point x="269.49397590361446" y="334.9156626506024" type="line"/>
      <point x="438.92771084337346" y="133.19277108433735" type="line"/>
      <point x="443.98795180722897" y="169.26506024096383" type="line"/>
      <point x="399.8072289156626" y="127.46987951807229"/>
      <point x="356.63855421686753" y="105.9156626506024"/>
    </contour>
    <contour>
      <point x="390.8192771084337" y="613.1566265060242" type="curve" smooth="yes"/>
      <point x="427.6867469879518" y="613.1566265060242"/>
      <point x="447.5542168674699" y="594.8433734939758"/>
      <point x="447.5542168674699" y="562.9156626506024" type="curve" smooth="yes"/>
      <point x="447.5542168674699" y="512.2409638554217"/>
      <point x="405.7469879518072" y="469.10843373493975"/>
      <point x="324.89156626506025" y="441.89156626506025" type="curve"/>
      <point x="351.7710843373494" y="436.32530120481925" type="line"/>
      <point x="318.5903614457831" y="476.68674698795184"/>
      <point x="308.78313253012044" y="499.7469879518072"/>
      <point x="308.78313253012044" y="527.9879518072289" type="curve" smooth="yes"/>
      <point x="308.78313253012044" y="580.5421686746988"/>
      <point x="341.0240963855422" y="613.1566265060242"/>
    </contour>
  </outline>
</glyph>
<glyph name="quotesingle" format="2">
  <advance width="254.84337349397592"/>
  <unicode hex="0027"/>
  <outline>
    <contour>
      <point x="103.24096385542168" y="406.855421686747" type="line"/>
      <point x="204.46987951807228" y="406.855421686747" type="line"/>
      <point x="287.6746987951807" y="705.0" type="line"/>
      <point x="113.85542168674698" y="705.0" type="line"/>
    </contour>
  </outline>
</glyph>
<glyph name="parenleft" format="2">
  <advance width="381.1204819277108"/>
  <unicode hex="0028"/>
  <outline>
    <contour>
      <point x="173.5180722891566" y="-196.56626506024097" type="curve"/>
      <point x="278.1204819277108" y="-155.67469879518075" type="line"/>
      <point x="264.3734939759036" y="-55.42168674698795"/>
      <point x="256.0" y="16.93975903614458"/>
      <point x="256.0" y="97.37349397590361" type="curve" smooth="yes"/>
      <point x="256.0" y="323.7469879518072"/>
      <point x="316.43373493975906" y="496.4819277108434"/>
      <point x="416.49397590361446" y="675.0481927710845" type="curve"/>
      <point x="315.2048192771084" y="722.5662650602409" type="line"/>
      <point x="186.50602409638554" y="581.0120481927711"/>
      <point x="93.80722891566265" y="371.77108433734935"/>
      <point x="93.80722891566265" y="150.59036144578312" type="curve" smooth="yes"/>
      <point x="93.80722891566265" y="37.20481927710843"/>
      <point x="119.3132530120482" y="-85.43373493975905"/>
    </contour>
  </outline>
</glyph>
<glyph name="parenright" format="2">
  <advance width="381.1204819277108"/>
  <unicode hex="0029"/>
  <outline>
    <contour>
      <point x="71.6024096385542" y="-196.56626506024097" type="line"/>
      <point x="200.98795180722888" y="-55.01204819277108"/>
      <point x="293.6867469879518" y="154.22891566265062"/>
      <point x="293.6867469879518" y="375.4096385542169" type="curve" smooth="yes"/>
      <point x="293.6867469879518" y="489.48192771084337"/>
      <point x="268.18072289156623" y="611.4337349397591"/>
      <point x="213.289156626506" y="722.5662650602409" type="curve"/>
      <point x="108.6867469879518" y="681.6746987951808" type="line"/>
      <point x="123.12048192771084" y="581.4216867469879"/>
      <point x="131.49397590361446" y="509.7469879518072"/>
      <point x="131.49397590361446" y="428.6265060240964" type="curve" smooth="yes"/>
      <point x="131.49397590361446" y="202.93975903614458"/>
      <point x="71.06024096385542" y="30.20481927710843"/>
      <point x="-29.686746987951807" y="-149.04819277108436" type="curve"/>
    </contour>
  </outline>
</glyph>
<glyph name="asterisk" format="2">
  <advance width="453.56626506024094"/>
  <unicode hex="002A"/>
  <outline>
    <contour>
      <point x="215.01204819277106" y="328.91566265060237" type="line"/>
      <point x="280.2530120481928" y="470.66265060240966" type="line"/>
      <point x="262.7469879518072" y="470.66265060240966" type="line"/>
      <point x="326.67469879518075" y="328.28915662650604" type="line"/>
      <point x="416.45783132530124" y="380.433734939759" type="line"/>
      <point x="325.51807228915663" y="516.2409638554217" type="line"/>
      <point x="304.7590361445783" y="484.60240963855426" type="line"/>
      <point x="469.1927710843373" y="473.72289156626505" type="line"/>
      <point x="469.1927710843373" y="575.7590361445783" type="line"/>
      <point x="304.7590361445783" y="564.1927710843373" type="line"/>
      <point x="325.51807228915663" y="532.9277108433735" type="line"/>
      <point x="416.45783132530124" y="668.0481927710844" type="line"/>
      <point x="326.67469879518075" y="720.8795180722892" type="line"/>
      <point x="262.7469879518072" y="580.132530120482" type="line"/>
      <point x="280.2530120481928" y="580.132530120482" type="line"/>
      <point x="216.32530120481925" y="720.8795180722892" type="line"/>
      <point x="126.85542168674698" y="669.3614457831325" type="line"/>
      <point x="217.7951807228916" y="531.6144578313254" type="line"/>
      <point x="238.55421686746988" y="564.1927710843373" type="line"/>
      <point x="73.80722891566265" y="575.7590361445783" type="line"/>
      <point x="73.80722891566265" y="474.03614457831327" type="line"/>
      <point x="238.24096385542168" y="484.60240963855426" type="line"/>
      <point x="216.4819277108434" y="516.2409638554217" type="line"/>
      <point x="125.85542168674698" y="380.433734939759" type="line"/>
    </contour>
  </outline>
</glyph>
<glyph name="plus" format="2">
  <advance width="600.0"/>
  <unicode hex="002B"/>
  <outline>
    <contour>
      <point x="213.855421686747" y="40.0" type="line"/>
      <point x="320.8313253012048" y="40.0" type="line"/>
      <point x="351.578313253012" y="235.4819277108434" type="line"/>
      <point x="542.433734939759" y="235.4819277108434" type="line"/>
      <point x="558.9397590361446" y="338.51807228915663" type="line"/>
      <point x="368.0843373493976" y="338.51807228915663" type="line"/>
      <point x="397.8313253012048" y="528.0" type="line"/>
      <point x="290.85542168674704" y="528.0" type="line"/>
      <point x="261.10843373493975" y="338.51807228915663" type="line"/>
      <point x="70.93975903614458" y="338.51807228915663" type="line"/>
      <point x="54.43373493975904" y="235.4819277108434" type="line"/>
      <point x="244.60240963855424" y="235.4819277108434" type="line"/>
    </contour>
  </outline>
</glyph>
<glyph name="hyphen" format="2">
  <advance width="439.6385542168675"/>
  <unicode hex="002D"/>
  <outline>
    <contour>
      <point x="59.9277108433735" y="208.91566265060243" type="line"/>
      <point x="368.578313253012" y="208.91566265060243" type="line"/>
      <point x="387.3975903614458" y="327.0240963855421" type="line"/>
      <point x="78.74698795180723" y="327.0240963855421" type="line"/>
    </contour>
  </outline>
</glyph>
<glyph name="slash" format="2">
  <advance width="330.855421686747"/>
  <unicode hex="002F"/>
  <outline>
    <contour>
      <point x="38.97590361445782" y="-77.38554216867469" type="line"/>
      <point x="423.5421686746988" y="719.120481927711" type="line"/>
      <point x="320.56626506024094" y="765.3855421686748" type="line"/>
      <point x="-63.31325301204819" y="-31.120481927710845" type="line"/>
    </contour>
  </outline>
</glyph>
<glyph name="zero" format="2">
  <advance width="600.0"/>
  <unicode hex="0030"/>
  <outline>
    <contour>
      <point x="288.0" y="-10.626506024096384" type="curve" smooth="yes"/>
      <point x="469.75903614457826" y="-10.626506024096384"/>
      <point x="584.9518072289156" y="165.6867469879518"/>
      <point x="584.9518072289156" y="447.55421686746985" type="curve" smooth="yes"/>
      <point x="584.9518072289156" y="619.7469879518072"/>
      <point x="501.13253012048193" y="715.6265060240964"/>
      <point x="347.0" y="715.6265060240964" type="curve" smooth="yes"/>
      <point x="164.9277108433735" y="715.6265060240964"/>
      <point x="49.73493975903615" y="539.3132530120481"/>
      <point x="49.73493975903615" y="258.8192771084337" type="curve" smooth="yes"/>
      <point x="49.73493975903615" y="85.25301204819277"/>
      <point x="133.55421686746988" y="-10.626506024096384"/>
    </contour>
    <contour>
      <point x="295.2530120481928" y="114.73493975903614" type="curve" smooth="yes"/>
      <point x="228.84337349397592" y="114.73493975903614"/>
      <point x="198.16867469879517" y="154.4698795180723"/>
      <point x="198.48192771084337" y="238.50602409638552" type="curve" smooth="yes"/>
      <point x="199.73493975903614" y="474.9156626506025"/>
      <point x="259.84337349397595" y="590.2650602409639"/>
      <point x="339.7469879518072" y="590.2650602409639" type="curve" smooth="yes"/>
      <point x="406.1566265060241" y="590.2650602409639"/>
      <point x="437.20481927710847" y="550.5301204819277"/>
      <point x="436.20481927710847" y="467.18072289156623" type="curve" smooth="yes"/>
      <point x="433.26506024096386" y="233.21686746987953"/>
      <point x="375.46987951807233" y="114.73493975903614"/>
    </contour>
  </outline>
</glyph>
<glyph name="one" format="2">
  <advance width="600.0"/>
  <unicode hex="0031"/>
  <outline>
    <contour>
      <point x="60.60240963855422" y="0.0" type="line"/>
      <point x="521.3493975903615" y="0.0" type="line"/>
      <point x="541.7951807228916" y="127.3012048192771" type="line"/>
      <point x="394.0481927710843" y="127.3012048192771" type="line"/>
      <point x="485.60240963855415" y="705.0" type="line"/>
      <point x="375.4939759036145" y="705.0" type="line"/>
      <point x="131.14457831325302" y="573.9879518072289" type="line"/>
      <point x="178.03614457831327" y="455.9397590361446" type="line"/>
      <point x="390.12048192771084" y="569.1325301204819" type="line"/>
      <point x="309.90361445783134" y="574.7590361445783" type="line"/>
      <point x="238.7951807228916" y="127.3012048192771" type="line"/>
      <point x="81.04819277108433" y="127.3012048192771" type="line"/>
    </contour>
  </outline>
</glyph>
<glyph name="two" format="2">
  <advance width="600.0"/>
  <unicode hex="0032"/>
  <outline>
    <contour>
      <point x="38.42168674698796" y="0.0" type="line"/>
      <point x="514.0120481927711" y="0.0" type="line"/>
      <point x="534.4578313253012" y="127.3012048192771" type="line"/>
      <point x="207.24096385542168" y="127.3012048192771" type="line"/>
      <point x="207.9277108433735" y="87.03614457831324" type="line"/>
      <point x="404.32530120481925" y="260.8072289156626" type="line" smooth="yes"/>
      <point x="499.9518072289157" y="344.18072289156623"/>
      <point x="567.0722891566264" y="418.73493975903614"/>
      <point x="567.0722891566264" y="536.301204819277" type="curve" smooth="yes"/>
      <point x="567.0722891566264" y="639.8072289156627"/>
      <point x="481.62650602409633" y="715.6265060240964"/>
      <point x="351.86746987951807" y="715.6265060240964" type="curve" smooth="yes"/>
      <point x="259.9277108433735" y="715.6265060240964"/>
      <point x="173.36144578313255" y="687.1927710843373"/>
      <point x="101.54216867469879" y="635.7590361445783" type="curve"/>
      <point x="147.12048192771084" y="519.6506024096386" type="line"/>
      <point x="205.86746987951807" y="562.8313253012047"/>
      <point x="263.0481927710843" y="586.6385542168674"/>
      <point x="319.34939759036143" y="586.6385542168674" type="curve" smooth="yes"/>
      <point x="377.2048192771084" y="586.6385542168674"/>
      <point x="414.0722891566265" y="559.7108433734941"/>
      <point x="414.0722891566265" y="510.6626506024097" type="curve" smooth="yes"/>
      <point x="414.0722891566265" y="454.12048192771084"/>
      <point x="375.02409638554224" y="407.578313253012"/>
      <point x="307.46987951807233" y="346.0240963855421" type="curve" smooth="yes"/>
      <point x="56.55421686746988" y="114.73493975903614" type="line"/>
    </contour>
  </outline>
</glyph>
<glyph name="three" format="2">
  <advance width="600.0"/>
  <unicode hex="0033"/>
  <outline>
    <contour>
      <point x="275.0602409638554" y="-10.626506024096384" type="curve" smooth="yes"/>
      <point x="442.71084337349396" y="-10.626506024096384"/>
      <point x="540.4578313253013" y="89.44578313253011"/>
      <point x="540.4578313253013" y="205.3132530120482" type="curve" smooth="yes"/>
      <point x="540.4578313253013" y="287.566265060241"/>
      <point x="492.8313253012048" y="350.566265060241"/>
      <point x="406.51807228915663" y="368.25301204819283" type="curve"/>
      <point x="406.51807228915663" y="355.3132530120482" type="line"/>
      <point x="503.83132530120486" y="373.31325301204816"/>
      <point x="573.5180722891565" y="441.1204819277108"/>
      <point x="572.2048192771084" y="536.1807228915662" type="curve" smooth="yes"/>
      <point x="570.8915662650602" y="629.867469879518"/>
      <point x="500.8313253012048" y="715.6265060240964"/>
      <point x="348.8072289156627" y="715.6265060240964" type="curve" smooth="yes"/>
      <point x="261.18072289156623" y="715.6265060240964"/>
      <point x="165.36144578313252" y="688.566265060241"/>
      <point x="94.22891566265059" y="635.7590361445782" type="curve"/>
      <point x="140.49397590361446" y="520.3373493975904" type="line"/>
      <point x="197.86746987951807" y="564.8915662650603"/>
      <point x="264.30120481927713" y="586.6385542168674"/>
      <point x="327.1084337349398" y="586.6385542168674" type="curve" smooth="yes"/>
      <point x="384.2168674698795" y="586.6385542168674"/>
      <point x="423.144578313253" y="558.9638554216868"/>
      <point x="423.144578313253" y="511.8554216867469" type="curve" smooth="yes"/>
      <point x="423.144578313253" y="450.87951807228916"/>
      <point x="371.28915662650604" y="418.08433734939763"/>
      <point x="301.43373493975906" y="418.08433734939763" type="curve" smooth="yes"/>
      <point x="196.98795180722894" y="418.08433734939763" type="line"/>
      <point x="177.855421686747" y="292.66265060240966" type="line"/>
      <point x="292.1807228915663" y="292.66265060240966" type="line" smooth="yes"/>
      <point x="357.7228915662651" y="292.66265060240966"/>
      <point x="391.0843373493976" y="264.30120481927713"/>
      <point x="391.0843373493976" y="215.8192771084337" type="curve" smooth="yes"/>
      <point x="391.0843373493976" y="153.1566265060241"/>
      <point x="341.28915662650604" y="118.36144578313252"/>
      <point x="275.0602409638554" y="118.36144578313252" type="curve" smooth="yes"/>
      <point x="201.3132530120482" y="118.36144578313252"/>
      <point x="137.3132530120482" y="134.36144578313252"/>
      <point x="77.81927710843372" y="182.289156626506" type="curve"/>
      <point x="18.048192771084338" y="72.12048192771086" type="line"/>
      <point x="80.10843373493977" y="13.000000000000002"/>
      <point x="183.8674698795181" y="-10.626506024096384"/>
    </contour>
  </outline>
</glyph>
<glyph name="four" format="2">
  <advance width="600.0"/>
  <unicode hex="0034"/>
  <outline>
    <contour>
      <point x="295.33734939759034" y="0.0" type="line"/>
      <point x="447.4578313253012" y="0.0" type="line"/>
      <point x="467.2048192771084" y="126.1686746987952" type="line"/>
      <point x="561.0722891566264" y="126.1686746987952" type="line"/>
      <point x="579.2048192771084" y="248.4578313253012" type="line"/>
      <point x="485.33734939759034" y="248.4578313253012" type="line"/>
      <point x="557.7710843373494" y="705.0" type="line"/>
      <point x="430.7831325301205" y="705.0" type="line"/>
      <point x="32.98795180722892" y="237.0843373493976" type="line"/>
      <point x="16.16867469879518" y="126.1686746987952" type="line"/>
      <point x="315.0843373493976" y="126.1686746987952" type="line"/>
    </contour>
    <contour>
      <point x="333.90361445783134" y="248.4578313253012" type="line"/>
      <point x="148.90361445783134" y="248.4578313253012" type="line"/>
      <point x="143.65060240963857" y="209.75903614457832" type="line"/>
      <point x="403.01204819277115" y="519.7349397590363" type="line"/>
      <point x="377.32530120481925" y="519.7349397590363" type="line"/>
    </contour>
  </outline>
</glyph>
<glyph name="five" format="2">
  <advance width="600.0"/>
  <unicode hex="0035"/>
  <outline>
    <contour>
      <point x="278.55421686746985" y="-10.626506024096384" type="curve" smooth="yes"/>
      <point x="431.87951807228916" y="-10.626506024096384"/>
      <point x="562.2650602409637" y="88.06024096385542"/>
      <point x="562.2650602409637" y="250.44578313253012" type="curve" smooth="yes"/>
      <point x="562.2650602409637" y="368.12048192771084"/>
      <point x="487.3373493975904" y="451.7590361445783"/>
      <point x="368.3253012048193" y="451.7590361445783" type="curve" smooth="yes"/>
      <point x="310.3975903614458" y="451.7590361445783"/>
      <point x="250.4698795180723" y="428.89156626506025"/>
      <point x="208.1566265060241" y="386.90361445783134" type="curve"/>
      <point x="245.5421686746988" y="386.90361445783134" type="line"/>
      <point x="276.2168674698795" y="577.6987951807229" type="line"/>
      <point x="573.8795180722892" y="577.6987951807229" type="line"/>
      <point x="593.3253012048194" y="705.0" type="line"/>
      <point x="147.85542168674698" y="705.0" type="line"/>
      <point x="78.2289156626506" y="270.04819277108436" type="line"/>
      <point x="178.32530120481925" y="270.04819277108436" type="line"/>
      <point x="216.19277108433735" y="305.7831325301205"/>
      <point x="262.3734939759036" y="326.71084337349396"/>
      <point x="311.79518072289153" y="326.71084337349396" type="curve" smooth="yes"/>
      <point x="371.6506024096385" y="326.71084337349396"/>
      <point x="413.2048192771084" y="292.5421686746988"/>
      <point x="413.2048192771084" y="235.0" type="curve" smooth="yes"/>
      <point x="413.2048192771084" y="164.65060240963857"/>
      <point x="356.72289156626505" y="118.36144578313252"/>
      <point x="278.5542168674699" y="118.36144578313252" type="curve" smooth="yes"/>
      <point x="215.6867469879518" y="118.36144578313252"/>
      <point x="158.06024096385542" y="134.36144578313252"/>
      <point x="99.25301204819276" y="182.289156626506" type="curve"/>
      <point x="39.48192771084338" y="72.12048192771086" type="line"/>
      <point x="100.1686746987952" y="13.000000000000002"/>
      <point x="196.61445783132532" y="-10.626506024096384"/>
    </contour>
  </outline>
</glyph>
<glyph name="six" format="2">
  <advance width="600.0"/>
  <unicode hex="0036"/>
  <outline>
    <contour>
      <point x="311.87951807228916" y="-10.626506024096384" type="curve" smooth="yes"/>
      <point x="459.6385542168675" y="-10.626506024096384"/>
      <point x="562.2650602409639" y="102.93975903614458"/>
      <point x="562.2650602409639" y="255.0722891566265" type="curve" smooth="yes"/>
      <point x="562.2650602409639" y="366.0722891566265"/>
      <point x="487.14457831325296" y="457.6385542168675"/>
      <point x="376.08433734939763" y="457.6385542168675" type="curve" smooth="yes"/>
      <point x="291.78313253012044" y="457.6385542168675"/>
      <point x="207.6144578313253" y="404.33734939759034"/>
      <point x="189.2289156626506" y="315.855421686747" type="curve"/>
      <point x="201.48192771084337" y="315.5421686746988" type="line"/>
      <point x="206.10843373493975" y="350.73493975903614" type="line" smooth="yes"/>
      <point x="219.04819277108433" y="502.1807228915663"/>
      <point x="287.9036144578314" y="586.9518072289156"/>
      <point x="396.9397590361446" y="586.9518072289156" type="curve" smooth="yes"/>
      <point x="452.7469879518072" y="586.9518072289156"/>
      <point x="506.1807228915663" y="566.2048192771084"/>
      <point x="553.8674698795181" y="523.9638554216867" type="curve"/>
      <point x="614.6385542168675" y="633.1325301204819" type="line"/>
      <point x="557.132530120482" y="688.1927710843374"/>
      <point x="484.44578313253015" y="715.6265060240964"/>
      <point x="404.87951807228916" y="715.6265060240964" type="curve" smooth="yes"/>
      <point x="189.3132530120482" y="715.6265060240964"/>
      <point x="57.42168674698795" y="545.8433734939758"/>
      <point x="57.42168674698795" y="261.13253012048193" type="curve" smooth="yes"/>
      <point x="57.42168674698795" y="93.62650602409639"/>
      <point x="150.9879518072289" y="-10.626506024096384"/>
    </contour>
    <contour>
      <point x="306.25301204819283" y="110.16867469879517" type="curve" smooth="yes"/>
      <point x="249.39759036144576" y="110.16867469879517"/>
      <point x="210.289156626506" y="149.21686746987953"/>
      <point x="210.289156626506" y="206.0722891566265" type="curve" smooth="yes"/>
      <point x="210.289156626506" y="282.61445783132524"/>
      <point x="255.77108433734938" y="336.8433734939759"/>
      <point x="323.4939759036145" y="336.8433734939759" type="curve" smooth="yes"/>
      <point x="380.34939759036143" y="336.8433734939759"/>
      <point x="419.4578313253012" y="297.79518072289153"/>
      <point x="419.4578313253012" y="240.93975903614458" type="curve" smooth="yes"/>
      <point x="419.4578313253012" y="164.3975903614458"/>
      <point x="373.9759036144579" y="110.16867469879517"/>
    </contour>
  </outline>
</glyph>
<glyph name="seven" format="2">
  <advance width="600.0"/>
  <unicode hex="0037"/>
  <outline>
    <contour>
      <point x="31.33734939759036" y="0.0" type="line"/>
      <point x="206.40963855421688" y="0.0" type="line"/>
      <point x="607.3855421686746" y="588.6385542168674" type="line"/>
      <point x="625.5180722891566" y="705.0" type="line"/>
      <point x="119.48192771084337" y="705.0" type="line"/>
      <point x="99.03614457831326" y="575.7590361445783" type="line"/>
      <point x="462.0722891566265" y="575.7590361445783" type="line"/>
      <point x="463.0722891566265" y="625.3975903614459" type="line"/>
    </contour>
  </outline>
</glyph>
<glyph name="eight" format="2">
  <advance width="600.0"/>
  <unicode hex="0038"/>
  <outline>
    <contour>
      <point x="271.2530120481928" y="-10.313253012048191" type="curve" smooth="yes"/>
      <point x="436.132530120482" y="-10.313253012048191"/>
      <point x="560.2650602409639" y="66.06024096385542"/>
      <point x="560.2650602409639" y="208.6867469879518" type="curve" smooth="yes"/>
      <point x="560.2650602409639" y="299.87951807228916"/>
      <point x="506.57831325301197" y="359.50602409638554"/>
      <point x="428.20481927710847" y="374.4457831325301" type="curve"/>
      <point x="424.5783132530121" y="350.6867469879518" type="line"/>
      <point x="519.9518072289156" y="361.74698795180717"/>
      <point x="590.6987951807229" y="447.31325301204816"/>
      <point x="590.6987951807229" y="541.1204819277108" type="curve" smooth="yes"/>
      <point x="590.6987951807229" y="646.3734939759037"/>
      <point x="500.7590361445783" y="714.3132530120483"/>
      <point x="359.43373493975906" y="714.3132530120483" type="curve" smooth="yes"/>
      <point x="206.86746987951807" y="714.3132530120483"/>
      <point x="88.73493975903614" y="641.6265060240963"/>
      <point x="88.73493975903614" y="506.6867469879517" type="curve" smooth="yes"/>
      <point x="88.73493975903614" y="423.8072289156626"/>
      <point x="133.36144578313252" y="365.49397590361446"/>
      <point x="205.42168674698797" y="347.1807228915663" type="curve"/>
      <point x="209.04819277108436" y="371.566265060241" type="line"/>
      <point x="102.36144578313254" y="365.566265060241"/>
      <point x="21.674698795180724" y="281.44578313253015"/>
      <point x="21.674698795180724" y="174.3855421686747" type="curve" smooth="yes"/>
      <point x="21.674698795180724" y="60.25301204819277"/>
      <point x="116.98795180722891" y="-10.313253012048191"/>
    </contour>
    <contour>
      <point x="278.50602409638554" y="108.16867469879517" type="curve" smooth="yes"/>
      <point x="207.96385542168676" y="108.16867469879517"/>
      <point x="163.5421686746988" y="136.72289156626508"/>
      <point x="163.5421686746988" y="191.51807228915663" type="curve" smooth="yes"/>
      <point x="163.5421686746988" y="259.6144578313253"/>
      <point x="217.3975903614458" y="297.28915662650604"/>
      <point x="303.1807228915663" y="297.28915662650604" type="curve" smooth="yes"/>
      <point x="372.34939759036143" y="297.28915662650604"/>
      <point x="418.3975903614458" y="269.73493975903614"/>
      <point x="418.3975903614458" y="215.6265060240964" type="curve" smooth="yes"/>
      <point x="418.3975903614458" y="146.84337349397592"/>
      <point x="363.6024096385542" y="108.16867469879517"/>
    </contour>
    <contour>
      <point x="326.87951807228916" y="416.0843373493976" type="curve" smooth="yes"/>
      <point x="266.96385542168673" y="416.0843373493976"/>
      <point x="231.2289156626506" y="444.01204819277103"/>
      <point x="231.2289156626506" y="493.18072289156623" type="curve" smooth="yes"/>
      <point x="231.2289156626506" y="555.277108433735"/>
      <point x="276.71084337349396" y="596.144578313253"/>
      <point x="353.49397590361446" y="596.144578313253" type="curve" smooth="yes"/>
      <point x="412.7831325301205" y="596.144578313253"/>
      <point x="448.20481927710847" y="568.5903614457831"/>
      <point x="448.20481927710847" y="519.1084337349397" type="curve" smooth="yes"/>
      <point x="448.20481927710847" y="457.4457831325301"/>
      <point x="400.28915662650604" y="416.0843373493976"/>
    </contour>
  </outline>
</glyph>
<glyph name="nine" format="2">
  <advance width="600.0"/>
  <unicode hex="0039"/>
  <outline>
    <contour>
      <point x="241.6265060240964" y="-10.626506024096384" type="curve" smooth="yes"/>
      <point x="463.44578313253015" y="-10.626506024096384"/>
      <point x="576.2650602409639" y="186.73493975903617"/>
      <point x="576.2650602409639" y="444.55421686746985" type="curve" smooth="yes"/>
      <point x="576.2650602409639" y="612.0602409638556"/>
      <point x="483.3855421686747" y="715.6265060240964"/>
      <point x="322.49397590361446" y="715.6265060240964" type="curve" smooth="yes"/>
      <point x="174.73493975903614" y="715.6265060240964"/>
      <point x="71.42168674698796" y="602.7469879518072"/>
      <point x="71.42168674698796" y="450.6144578313253" type="curve" smooth="yes"/>
      <point x="71.42168674698796" y="338.9277108433735"/>
      <point x="146.5421686746988" y="247.36144578313255"/>
      <point x="257.6024096385542" y="247.36144578313255" type="curve" smooth="yes"/>
      <point x="341.90361445783134" y="247.36144578313255"/>
      <point x="426.7590361445783" y="301.34939759036143"/>
      <point x="445.144578313253" y="389.144578313253" type="curve"/>
      <point x="432.20481927710847" y="390.144578313253" type="line"/>
      <point x="428.26506024096386" y="354.95180722891564" type="line" smooth="yes"/>
      <point x="415.32530120481925" y="203.50602409638557"/>
      <point x="343.8433734939759" y="118.04819277108433"/>
      <point x="241.3734939759036" y="118.04819277108433" type="curve" smooth="yes"/>
      <point x="184.87951807228916" y="118.04819277108433"/>
      <point x="131.44578313253012" y="138.79518072289156"/>
      <point x="79.81927710843372" y="181.72289156626505" type="curve"/>
      <point x="19.734939759036145" y="71.86746987951808" type="line"/>
      <point x="76.55421686746989" y="17.49397590361446"/>
      <point x="162.06024096385542" y="-10.626506024096384"/>
    </contour>
    <contour>
      <point x="310.1927710843373" y="368.1566265060241" type="curve" smooth="yes"/>
      <point x="254.02409638554218" y="368.1566265060241"/>
      <point x="214.9156626506024" y="407.20481927710847"/>
      <point x="214.9156626506024" y="464.7469879518072" type="curve" smooth="yes"/>
      <point x="214.9156626506024" y="540.6024096385543"/>
      <point x="260.3975903614458" y="595.5180722891566"/>
      <point x="328.12048192771084" y="595.5180722891566" type="curve" smooth="yes"/>
      <point x="384.289156626506" y="595.5180722891566"/>
      <point x="423.3975903614458" y="556.4698795180723"/>
      <point x="423.3975903614458" y="498.92771084337346" type="curve" smooth="yes"/>
      <point x="423.3975903614458" y="423.07228915662654"/>
      <point x="377.91566265060237" y="368.1566265060241"/>
    </contour>
  </outline>
</glyph>
<glyph name="colon" format="2">
  <advance width="259.5903614457831"/>
  <unicode hex="003A"/>
  <outline>
    <contour>
      <point x="62.2289156626506" y="330.95180722891564" type="line"/>
      <point x="224.46987951807228" y="330.95180722891564" type="line"/>
      <point x="249.9156626506024" y="490.566265060241" type="line"/>
      <point x="87.67469879518072" y="490.566265060241" type="line"/>
    </contour>
    <contour>
      <point x="10.361445783132531" y="0.0" type="line"/>
      <point x="172.6024096385542" y="0.0" type="line"/>
      <point x="198.04819277108433" y="160.3012048192771" type="line"/>
      <point x="35.807228915662655" y="160.3012048192771" type="line"/>
    </contour>
  </outline>
</glyph>
<glyph name="semicolon" format="2">
  <advance width="259.5903614457831"/>
  <unicode hex="003B"/>
  <outline>
    <contour>
      <point x="64.6987951807229" y="-143.65060240963854" type="line"/>
      <point x="141.7831325301205" y="-83.38554216867469"/>
      <point x="166.9156626506024" y="-31.37349397590361"/>
      <point x="179.16867469879517" y="44.45783132530121" type="curve" smooth="yes"/>
      <point x="197.36144578313252" y="160.3012048192771" type="line"/>
      <point x="35.12048192771085" y="160.3012048192771" type="line"/>
      <point x="9.674698795180724" y="0.0" type="line"/>
      <point x="122.71084337349399" y="0.0" type="line"/>
      <point x="92.89156626506023" y="35.89156626506024" type="line"/>
      <point x="83.32530120481927" y="-14.74698795180723"/>
      <point x="64.19277108433735" y="-44.626506024096386"/>
      <point x="13.807228915662655" y="-88.44578313253011" type="curve"/>
    </contour>
    <contour>
      <point x="62.2289156626506" y="330.95180722891564" type="line"/>
      <point x="224.46987951807228" y="330.95180722891564" type="line"/>
      <point x="249.9156626506024" y="490.566265060241" type="line"/>
      <point x="87.67469879518072" y="490.566265060241" type="line"/>
    </contour>
  </outline>
</glyph>
<glyph name="less" format="2">
  <advance width="600.0"/>
  <unicode hex="003C"/>
  <outline>
    <contour>
      <point x="509.6867469879518" y="31.433734939759038" type="line"/>
      <point x="526.8795180722892" y="138.0963855421687" type="line"/>
      <point x="108.7590361445783" y="317.32530120481925" type="line"/>
      <point x="96.87951807228914" y="243.7951807228916" type="line"/>
      <point x="572.1807228915662" y="423.710843373494" type="line"/>
      <point x="591.0" y="543.2530120481928" type="line"/>
      <point x="71.25301204819277" y="344.0843373493976" type="line"/>
      <point x="53.43373493975904" y="230.9156626506024" type="line"/>
    </contour>
  </outline>
</glyph>
<glyph name="equal" format="2">
  <advance width="600.0"/>
  <unicode hex="003D"/>
  <outline>
    <contour>
      <point x="69.74698795180723" y="335.48192771084337" type="line"/>
      <point x="557.7469879518072" y="335.48192771084337" type="line"/>
      <point x="574.2530120481928" y="438.51807228915663" type="line"/>
      <point x="86.25301204819277" y="438.51807228915663" type="line"/>
    </contour>
    <contour>
      <point x="38.74698795180723" y="136.1686746987952" type="line"/>
      <point x="526.7469879518072" y="136.1686746987952" type="line"/>
      <point x="542.9397590361446" y="238.5180722891566" type="line"/>
      <point x="54.93975903614458" y="238.5180722891566" type="line"/>
    </contour>
  </outline>
</glyph>
<glyph name="greater" format="2">
  <advance width="600.0"/>
  <unicode hex="003E"/>
  <outline>
    <contour>
      <point x="21.686746987951807" y="31.433734939759038" type="line"/>
      <point x="541.4337349397591" y="230.9156626506024" type="line"/>
      <point x="559.2530120481928" y="344.0843373493976" type="line"/>
      <point x="103.0" y="543.2530120481928" type="line"/>
      <point x="85.49397590361446" y="435.5903614457832" type="line"/>
      <point x="503.9277108433735" y="255.67469879518075" type="line"/>
      <point x="515.8072289156627" y="329.89156626506025" type="line"/>
      <point x="40.50602409638554" y="149.97590361445785" type="line"/>
    </contour>
  </outline>
</glyph>
<glyph name="question" format="2">
  <advance width="468.39759036144574"/>
  <unicode hex="003F"/>
  <outline>
    <contour>
      <point x="181.44578313253012" y="223.40963855421688" type="line"/>
      <point x="270.855421686747" y="223.40963855421688" type="line"/>
      <point x="280.7951807228916" y="252.289156626506" type="line" smooth="yes"/>
      <point x="294.10843373493975" y="294.78313253012044"/>
      <point x="312.16867469879514" y="325.144578313253"/>
      <point x="385.28915662650604" y="373.81927710843377" type="curve" smooth="yes"/>
      <point x="452.1084337349398" y="415.566265060241"/>
      <point x="504.7831325301205" y="472.49397590361446"/>
      <point x="504.7831325301205" y="556.867469879518" type="curve" smooth="yes"/>
      <point x="504.7831325301205" y="644.3734939759037"/>
      <point x="431.3975903614458" y="715.6265060240964"/>
      <point x="313.89156626506025" y="715.6265060240964" type="curve" smooth="yes"/>
      <point x="225.6987951807229" y="715.6265060240964"/>
      <point x="135.13253012048193" y="689.8795180722891"/>
      <point x="63.0" y="632.8192771084337" type="curve"/>
      <point x="108.95180722891567" y="520.3373493975904" type="line"/>
      <point x="164.95180722891567" y="563.8313253012047"/>
      <point x="225.75903614457832" y="586.6385542168674"/>
      <point x="281.37349397590356" y="586.6385542168674" type="curve" smooth="yes"/>
      <point x="330.2289156626506" y="586.6385542168674"/>
      <point x="351.7831325301205" y="563.6506024096385"/>
      <point x="351.7831325301205" y="531.5421686746988" type="curve" smooth="yes"/>
      <point x="351.7831325301205" y="483.37349397590356"/>
      <point x="311.3614457831325" y="454.0120481927711"/>
      <point x="283.12048192771084" y="429.7710843373494" type="curve" smooth="yes"/>
      <point x="214.44578313253012" y="371.0361445783132"/>
      <point x="197.0722891566265" y="333.1686746987952"/>
      <point x="188.3855421686747" y="270.67469879518075" type="curve" smooth="yes"/>
    </contour>
    <contour>
      <point x="110.18072289156626" y="0.0" type="line"/>
      <point x="271.73493975903614" y="0.0" type="line"/>
      <point x="297.1807228915663" y="160.3012048192771" type="line"/>
      <point x="135.6265060240964" y="160.3012048192771" type="line"/>
    </contour>
  </outline>
</glyph>
<glyph name="A" format="2">
  <advance width="753.0843373493976"/>
  <unicode hex="0041"/>
  <anchor x="357.69879518072287" y="0.0" name="bottom"/>
  <anchor x="673.0843373493976" y="0.0" name="ogonek"/>
  <anchor x="448.4457831325301" y="705.0" name="top"/>
  <outline>
    <contour>
      <point x="-48.65060240963855" y="0.0" type="line"/>
      <point x="114.28915662650601" y="0.0" type="line"/>
      <point x="221.1566265060241" y="181.67469879518072" type="line"/>
      <point x="165.5180722891566" y="152.97590361445785" type="line"/>
      <point x="572.3132530120481" y="152.97590361445785" type="line"/>
      <point x="527.3012048192771" y="185.3012048192771" type="line"/>
      <point x="575.7349397590361" y="0.0" type="line"/>
      <point x="724.4216867469879" y="0.0" type="line"/>
      <point x="513.4096385542168" y="705.0" type="line"/>
      <point x="388.04819277108436" y="705.0" type="line"/>
    </contour>
    <contour>
      <point x="431.2530120481928" y="540.0" type="line"/>
      <point x="433.2530120481928" y="540.0" type="line"/>
      <point x="511.421686746988" y="243.44578313253012" type="line"/>
      <point x="540.6144578313252" y="274.3975903614458" type="line"/>
      <point x="236.7951807228916" y="274.3975903614458" type="line"/>
      <point x="258.79518072289153" y="246.3855421686747" type="line"/>
    </contour>
  </outline>
</glyph>
<glyph name="C" format="2">
  <advance width="683.0722891566265"/>
  <unicode hex="0043"/>
  <anchor x="373.1927710843374" y="0.0" name="bottom"/>
  <anchor x="444.8192771084337" y="705.0" name="top"/>
  <outline>
    <contour>
      <point x="398.26506024096386" y="-10.626506024096384" type="curve" smooth="yes"/>
      <point x="482.6987951807229" y="-10.626506024096384"/>
      <point x="576.7710843373494" y="17.43373493975904"/>
      <point x="634.2048192771083" y="65.67469879518073" type="curve"/>
      <point x="592.8192771084337" y="187.97590361445782" type="line"/>
      <point x="531.0722891566264" y="144.36144578313252"/>
      <point x="473.69879518072287" y="126.24096385542168"/>
      <point x="416.3373493975904" y="126.24096385542168" type="curve" smooth="yes"/>
      <point x="292.28915662650604" y="126.24096385542168"/>
      <point x="231.7469879518072" y="183.855421686747"/>
      <point x="231.7469879518072" y="317.13253012048193" type="curve" smooth="yes"/>
      <point x="231.7469879518072" y="465.1566265060241"/>
      <point x="308.03614457831327" y="578.7590361445783"/>
      <point x="453.0120481927711" y="578.7590361445783" type="curve" smooth="yes"/>
      <point x="518.3734939759036" y="578.7590361445783"/>
      <point x="578.7469879518072" y="556.0120481927711"/>
      <point x="631.4337349397589" y="512.0843373493976" type="curve"/>
      <point x="691.8915662650602" y="635.0722891566264" type="line"/>
      <point x="642.2048192771084" y="682.9397590361446"/>
      <point x="553.0120481927712" y="715.6265060240964"/>
      <point x="456.32530120481925" y="715.6265060240964" type="curve" smooth="yes"/>
      <point x="206.86746987951807" y="715.6265060240964"/>
      <point x="67.24096385542168" y="538.3132530120481"/>
      <point x="67.24096385542168" y="311.566265060241" type="curve" smooth="yes"/>
      <point x="67.24096385542168" y="97.87951807228916"/>
      <point x="206.87951807228916" y="-10.626506024096384"/>
    </contour>
  </outline>
</glyph>
<glyph name="D" format="2">
  <advance width="773.9036144578313"/>
  <unicode hex="0044"/>
  <anchor x="351.26506024096386" y="0.0" name="bottom"/>
  <anchor x="216.95180722891564" y="358.0" name="center"/>
  <anchor x="448.0120481927711" y="705.0" name="top"/>
  <outline>
    <contour>
      <point x="31.734939759036138" y="0.0" type="line"/>
      <point x="335.84337349397595" y="0.0" type="line" smooth="yes"/>
      <point x="604.3373493975902" y="0.0"/>
      <point x="742.6626506024096" y="172.92771084337352"/>
      <point x="742.3493975903614" y="400.2409638554217" type="curve" smooth="yes"/>
      <point x="741.3493975903614" y="591.8072289156626"/>
      <point x="611.9036144578313" y="705.0"/>
      <point x="381.6385542168675" y="705.0" type="curve" smooth="yes"/>
      <point x="143.73493975903614" y="705.0" type="line"/>
    </contour>
    <contour>
      <point x="207.12048192771084" y="127.3012048192771" type="line"/>
      <point x="278.855421686747" y="577.6987951807229" type="line"/>
      <point x="381.6385542168674" y="577.6987951807229" type="line" smooth="yes"/>
      <point x="513.4216867469879" y="577.6987951807229"/>
      <point x="580.4698795180723" y="514.6506024096386"/>
      <point x="580.4698795180723" y="397.6144578313253" type="curve" smooth="yes"/>
      <point x="580.4698795180723" y="238.32530120481928"/>
      <point x="503.22891566265054" y="127.3012048192771"/>
      <point x="337.8433734939759" y="127.3012048192771" type="curve" smooth="yes"/>
    </contour>
  </outline>
</glyph>
<glyph name="E" format="2">
  <advance width="605.4578313253012"/>
  <unicode hex="0045"/>
  <anchor x="296.566265060241" y="0.0" name="bottom"/>
  <anchor x="457.87951807228916" y="0.0" name="ogonek"/>
  <anchor x="402.2530120481928" y="705.0" name="top"/>
  <anchor x="94.12048192771084" y="705.0" name="topleft"/>
  <outline>
    <contour>
      <point x="32.73493975903614" y="0.0" type="line"/>
      <point x="514.8313253012049" y="0.0" type="line"/>
      <point x="533.9638554216867" y="121.42168674698794" type="line"/>
      <point x="199.55421686746988" y="121.42168674698794" type="line"/>
      <point x="227.85542168674698" y="297.28915662650604" type="line"/>
      <point x="540.6385542168675" y="297.28915662650604" type="line"/>
      <point x="559.7710843373494" y="418.71084337349396" type="line"/>
      <point x="246.9879518072289" y="418.71084337349396" type="line"/>
      <point x="273.289156626506" y="583.5783132530121" type="line"/>
      <point x="607.6987951807229" y="583.5783132530121" type="line"/>
      <point x="626.8313253012049" y="705.0" type="line"/>
      <point x="143.73493975903614" y="705.0" type="line"/>
    </contour>
  </outline>
</glyph>
<glyph name="F" format="2">
  <advance width="570.1445783132531"/>
  <unicode hex="0046"/>
  <anchor x="262.56626506024094" y="0.0" name="bottom"/>
  <anchor x="377.50602409638554" y="705.0" name="top"/>
  <outline>
    <contour>
      <point x="32.73493975903614" y="0.0" type="line"/>
      <point x="187.9879518072289" y="0.0" type="line"/>
      <point x="234.10843373493975" y="291.03614457831327" type="line"/>
      <point x="533.2650602409639" y="291.03614457831327" type="line"/>
      <point x="552.3975903614459" y="412.45783132530124" type="line"/>
      <point x="253.24096385542168" y="412.45783132530124" type="line"/>
      <point x="280.5421686746988" y="583.5783132530121" type="line"/>
      <point x="601.3253012048192" y="583.5783132530121" type="line"/>
      <point x="620.4578313253012" y="705.0" type="line"/>
      <point x="143.73493975903614" y="705.0" type="line"/>
    </contour>
  </outline>
</glyph>
<glyph name="G" format="2">
  <advance width="741.6385542168675"/>
  <unicode hex="0047"/>
  <anchor x="395.3253012048193" y="0.0" name="bottom"/>
  <anchor x="451.0722891566265" y="705.0" name="top"/>
  <outline>
    <contour>
      <point x="402.38554216867465" y="-10.626506024096384" type="curve" smooth="yes"/>
      <point x="484.0120481927711" y="-10.626506024096384"/>
      <point x="576.8915662650602" y="4.433734939759036"/>
      <point x="645.9036144578313" y="36.93975903614458" type="curve"/>
      <point x="701.1566265060239" y="388.8313253012048" type="line"/>
      <point x="421.1927710843373" y="388.8313253012048" type="line"/>
      <point x="404.37349397590356" y="277.2289156626506" type="line"/>
      <point x="556.3493975903614" y="277.2289156626506" type="line"/>
      <point x="524.7951807228915" y="84.59036144578313" type="line"/>
      <point x="562.1807228915662" y="145.16867469879517" type="line"/>
      <point x="517.0602409638554" y="130.42168674698794"/>
      <point x="471.1927710843374" y="120.98795180722891"/>
      <point x="425.08433734939763" y="120.98795180722891" type="curve" smooth="yes"/>
      <point x="300.3614457831325" y="120.98795180722891"/>
      <point x="228.1204819277108" y="181.66265060240966"/>
      <point x="228.1204819277108" y="313.63855421686753" type="curve" smooth="yes"/>
      <point x="228.1204819277108" y="461.96385542168673"/>
      <point x="310.6626506024096" y="581.3855421686748"/>
      <point x="460.2048192771084" y="581.3855421686748" type="curve" smooth="yes"/>
      <point x="531.5060240963857" y="581.3855421686748"/>
      <point x="593.8795180722891" y="559.9518072289156"/>
      <point x="648.5662650602409" y="517.3373493975904" type="curve"/>
      <point x="708.710843373494" y="639.0120481927711" type="line"/>
      <point x="662.5903614457831" y="682.9397590361446"/>
      <point x="574.7108433734941" y="715.6265060240964"/>
      <point x="468.14457831325296" y="715.6265060240964" type="curve" smooth="yes"/>
      <point x="211.12048192771084" y="715.6265060240964"/>
      <point x="66.55421686746988" y="541.0602409638554"/>
      <point x="66.55421686746988" y="307.3855421686747" type="curve" smooth="yes"/>
      <point x="66.55421686746988" y="100.93975903614458"/>
      <point x="205.44578313253012" y="-10.626506024096384"/>
    </contour>
  </outline>
</glyph>
<glyph name="H" format="2">
  <advance width="779.5783132530121"/>
  <unicode hex="0048"/>
  <anchor x="357.44578313253015" y="0.0" name="bottom"/>
  <anchor x="441.0722891566265" y="565.3855421686748" name="center"/>
  <anchor x="461.13253012048193" y="705.0" name="top"/>
  <anchor x="94.43373493975903" y="705.0" name="topleft"/>
  <outline>
    <contour>
      <point x="31.734939759036138" y="0.0" type="line"/>
      <point x="186.9879518072289" y="0.0" type="line"/>
      <point x="233.42168674698794" y="293.03614457831327" type="line"/>
      <point x="561.0240963855422" y="293.03614457831327" type="line"/>
      <point x="514.5903614457832" y="0.0" type="line"/>
      <point x="669.8433734939758" y="0.0" type="line"/>
      <point x="781.8433734939758" y="705.0" type="line"/>
      <point x="626.5903614457832" y="705.0" type="line"/>
      <point x="581.4698795180723" y="421.6506024096385" type="line"/>
      <point x="253.86746987951807" y="421.6506024096385" type="line"/>
      <point x="298.9879518072289" y="705.0" type="line"/>
      <point x="143.73493975903614" y="705.0" type="line"/>
    </contour>
  </outline>
</glyph>
<glyph name="I" format="2">
  <advance width="296.7228915662651"/>
  <unicode hex="0049"/>
  <anchor x="109.20481927710841" y="0.0" name="bottom"/>
  <anchor x="149.90361445783134" y="0.0" name="ogonek"/>
  <anchor x="220.89156626506022" y="705.0" name="top"/>
  <anchor x="93.80722891566265" y="705.0" name="topleft"/>
  <outline>
    <contour>
      <point x="31.734939759036138" y="0.0" type="line"/>
      <point x="186.9879518072289" y="0.0" type="line"/>
      <point x="298.9879518072289" y="705.0" type="line"/>
      <point x="143.73493975903614" y="705.0" type="line"/>
    </contour>
  </outline>
</glyph>
<glyph name="J" format="2">
  <advance width="371.855421686747"/>
  <unicode hex="004A"/>
  <anchor x="185.02409638554218" y="0.0" name="bottom"/>
  <anchor x="296.0240963855422" y="705.0" name="top"/>
  <outline>
    <contour>
      <point x="-36.433734939759034" y="-9.93975903614458" type="line"/>
      <point x="55.903614457831324" y="-5.313253012048194" type="line" smooth="yes"/>
      <point x="212.80722891566265" y="4.0"/>
      <point x="273.43373493975895" y="71.93975903614458"/>
      <point x="294.0602409638554" y="201.95180722891564" type="curve" smooth="yes"/>
      <point x="374.1204819277108" y="705.0" type="line"/>
      <point x="218.86746987951807" y="705.0" type="line"/>
      <point x="140.80722891566265" y="213.26506024096383" type="line" smooth="yes"/>
      <point x="131.06024096385542" y="151.09638554216866"/>
      <point x="101.44578313253012" y="123.42168674698794"/>
      <point x="45.084337349397586" y="120.04819277108433" type="curve" smooth="yes"/>
      <point x="-33.18072289156627" y="115.73493975903614" type="line"/>
    </contour>
  </outline>
</glyph>
<glyph name="K" format="2">
  <advance width="687.4939759036145"/>
  <unicode hex="004B"/>
  <anchor x="308.5180722891566" y="0.0" name="bottom"/>
  <anchor x="413.08433734939763" y="705.0" name="top"/>
  <anchor x="92.80722891566265" y="705.0" name="topleft"/>
  <outline>
    <contour>
      <point x="31.734939759036138" y="0.0" type="line"/>
      <point x="186.9879518072289" y="0.0" type="line"/>
      <point x="238.67469879518072" y="325.86746987951807" type="line"/>
      <point x="240.67469879518072" y="325.86746987951807" type="line"/>
      <point x="506.5662650602409" y="0.0" type="line"/>
      <point x="683.0722891566265" y="0.0" type="line"/>
      <point x="365.2289156626506" y="400.20481927710847" type="line"/>
      <point x="372.3614457831325" y="332.433734939759" type="line"/>
      <point x="779.9518072289156" y="705.0" type="line"/>
      <point x="585.6265060240963" y="705.0" type="line"/>
      <point x="251.9277108433735" y="398.01204819277103" type="line"/>
      <point x="249.9277108433735" y="398.01204819277103" type="line"/>
      <point x="298.9879518072289" y="705.0" type="line"/>
      <point x="143.73493975903614" y="705.0" type="line"/>
    </contour>
  </outline>
</glyph>
<glyph name="L" format="2">
  <advance width="573.277108433735"/>
  <unicode hex="004C"/>
  <anchor x="274.566265060241" y="0.0" name="bottom"/>
  <anchor x="215.8313253012048" y="387.0" name="center"/>
  <anchor x="462.1566265060241" y="396.50602409638554" name="dot"/>
  <anchor x="219.89156626506022" y="705.0" name="top"/>
  <anchor x="400.66265060240966" y="705.0" name="topright"/>
  <outline>
    <contour>
      <point x="31.734939759036138" y="0.0" type="line"/>
      <point x="513.0843373493975" y="0.0" type="line"/>
      <point x="533.5301204819277" y="130.6144578313253" type="line"/>
      <point x="208.43373493975903" y="130.6144578313253" type="line"/>
      <point x="298.9879518072289" y="705.0" type="line"/>
      <point x="143.73493975903614" y="705.0" type="line"/>
    </contour>
  </outline>
</glyph>
<glyph name="M" format="2">
  <advance width="875.8313253012049"/>
  <unicode hex="004D"/>
  <anchor x="407.3855421686747" y="0.0" name="bottom"/>
  <anchor x="511.44578313253015" y="705.0" name="top"/>
  <outline>
    <contour>
      <point x="33.73493975903614" y="0.0" type="line"/>
      <point x="174.16867469879517" y="0.0" type="line"/>
      <point x="248.65060240963854" y="467.6987951807229" type="line"/>
      <point x="226.65060240963857" y="467.6987951807229" type="line"/>
      <point x="374.8072289156626" y="105.74698795180723" type="line"/>
      <point x="461.33734939759034" y="105.74698795180723" type="line"/>
      <point x="721.1445783132531" y="472.95180722891564" type="line"/>
      <point x="698.4578313253013" y="472.95180722891564" type="line"/>
      <point x="623.6626506024096" y="0.0" type="line"/>
      <point x="764.0963855421686" y="0.0" type="line"/>
      <point x="876.0963855421686" y="705.0" type="line"/>
      <point x="742.9156626506025" y="705.0" type="line"/>
      <point x="416.89156626506025" y="241.25301204819274" type="line"/>
      <point x="446.51807228915663" y="241.25301204819274" type="line"/>
      <point x="268.7228915662651" y="705.0" type="line"/>
      <point x="145.73493975903614" y="705.0" type="line"/>
    </contour>
  </outline>
</glyph>
<glyph name="N" format="2">
  <advance width="752.0120481927711"/>
  <unicode hex="004E"/>
  <anchor x="348.1927710843374" y="0.0" name="bottom"/>
  <anchor x="446.2530120481927" y="705.0" name="top"/>
  <outline>
    <contour>
      <point x="31.734939759036138" y="0.0" type="line"/>
      <point x="176.10843373493975" y="0.0" type="line"/>
      <point x="255.15662650602408" y="500.15662650602417" type="line"/>
      <point x="227.6506024096386" y="500.15662650602417" type="line"/>
      <point x="527.8554216867469" y="0.0" type="line"/>
      <point x="642.277108433735" y="0.0" type="line"/>
      <point x="754.277108433735" y="705.0" type="line"/>
      <point x="609.9036144578314" y="705.0" type="line"/>
      <point x="530.855421686747" y="204.8433734939759" type="line"/>
      <point x="558.3614457831326" y="204.8433734939759" type="line"/>
      <point x="258.84337349397595" y="705.0" type="line"/>
      <point x="143.73493975903614" y="705.0" type="line"/>
    </contour>
  </outline>
</glyph>
<glyph name="P" format="2">
  <advance width="663.5903614457831"/>
  <unicode hex="0050"/>
  <anchor x="297.3855421686747" y="0.0" name="bottom"/>
  <anchor x="408.3855421686747" y="705.0" name="top"/>
  <outline>
    <contour>
      <point x="31.734939759036138" y="0.0" type="line"/>
      <point x="186.9879518072289" y="0.0" type="line"/>
      <point x="227.42168674698794" y="253.66265060240963" type="line"/>
      <point x="390.6987951807229" y="253.66265060240963" type="line" smooth="yes"/>
      <point x="576.3373493975903" y="253.66265060240963"/>
      <point x="676.156626506024" y="345.28915662650604"/>
      <point x="676.156626506024" y="505.2409638554217" type="curve" smooth="yes"/>
      <point x="676.156626506024" y="631.5542168674698"/>
      <point x="592.5301204819276" y="705.0"/>
      <point x="429.32530120481925" y="705.0" type="curve" smooth="yes"/>
      <point x="143.73493975903614" y="705.0" type="line"/>
    </contour>
    <contour>
      <point x="246.55421686746988" y="374.3975903614458" type="line"/>
      <point x="279.855421686747" y="584.2650602409639" type="line"/>
      <point x="409.6265060240964" y="584.2650602409639" type="line" smooth="yes"/>
      <point x="489.1084337349398" y="584.2650602409639"/>
      <point x="527.0963855421687" y="555.3373493975904"/>
      <point x="527.0963855421687" y="492.10843373493975" type="curve" smooth="yes"/>
      <point x="527.0963855421687" y="415.4457831325301"/>
      <point x="482.3614457831325" y="374.3975903614458"/>
      <point x="397.3253012048193" y="374.3975903614458" type="curve" smooth="yes"/>
    </contour>
  </outline>
</glyph>
<glyph name="R" format="2">
  <advance width="696.0240963855422"/>
  <unicode hex="0052"/>
  <anchor x="319.13253012048193" y="0.0" name="bottom"/>
  <anchor x="411.7590361445783" y="705.0" name="top"/>
  <outline>
    <contour>
      <point x="31.734939759036138" y="0.0" type="line"/>
      <point x="187.67469879518072" y="0.0" type="line"/>
      <point x="230.42168674698794" y="272.60240963855426" type="line"/>
      <point x="312.7469879518073" y="272.60240963855426" type="line" smooth="yes"/>
      <point x="358.2289156626506" y="272.60240963855426"/>
      <point x="381.4096385542169" y="256.48192771084337"/>
      <point x="397.2168674698795" y="214.12048192771084" type="curve" smooth="yes"/>
      <point x="478.277108433735" y="0.0" type="line"/>
      <point x="637.4698795180723" y="0.0" type="line"/>
      <point x="564.5421686746988" y="189.34939759036146" type="line" smooth="yes"/>
      <point x="540.2289156626507" y="252.97590361445785"/>
      <point x="500.66265060240966" y="291.54216867469876"/>
      <point x="434.84337349397595" y="291.54216867469876" type="curve" smooth="yes"/>
      <point x="403.20481927710836" y="291.54216867469876" type="line"/>
      <point x="403.2048192771084" y="275.28915662650604" type="line"/>
      <point x="560.6506024096386" y="273.9156626506024"/>
      <point x="676.156626506024" y="346.9156626506024"/>
      <point x="676.156626506024" y="506.86746987951807" type="curve" smooth="yes"/>
      <point x="676.156626506024" y="630.0602409638553"/>
      <point x="590.710843373494" y="705.0"/>
      <point x="432.51807228915663" y="705.0" type="curve" smooth="yes"/>
      <point x="143.73493975903614" y="705.0" type="line"/>
    </contour>
    <contour>
      <point x="248.24096385542168" y="384.8313253012048" type="line"/>
      <point x="279.855421686747" y="584.2650602409639" type="line"/>
      <point x="407.56626506024094" y="584.2650602409639" type="line" smooth="yes"/>
      <point x="490.16867469879514" y="584.2650602409639"/>
      <point x="527.0963855421687" y="553.9638554216868"/>
      <point x="527.0963855421687" y="493.73493975903614" type="curve" smooth="yes"/>
      <point x="527.0963855421687" y="422.1927710843373"/>
      <point x="481.3614457831325" y="384.8313253012048"/>
      <point x="399.7590361445783" y="384.8313253012048" type="curve" smooth="yes"/>
    </contour>
  </outline>
</glyph>
<glyph name="S" format="2">
  <advance width="641.0240963855422"/>
  <unicode hex="0053"/>
  <anchor x="305.69879518072287" y="0.0" name="bottom"/>
  <anchor x="384.32530120481925" y="705.0" name="top"/>
  <outline>
    <contour>
      <point x="301.56626506024094" y="-10.626506024096384" type="curve" smooth="yes"/>
      <point x="462.26506024096386" y="-10.626506024096384"/>
      <point x="604.0963855421686" y="64.62650602409639"/>
      <point x="604.0963855421686" y="218.5180722891566" type="curve" smooth="yes"/>
      <point x="604.0963855421686" y="307.0843373493976"/>
      <point x="542.8433734939758" y="373.27710843373495"/>
      <point x="429.2289156626506" y="399.33734939759034" type="curve" smooth="yes"/>
      <point x="317.09638554216866" y="425.9638554216867" type="line" smooth="yes"/>
      <point x="264.421686746988" y="438.71084337349396"/>
      <point x="238.55421686746988" y="460.20481927710847"/>
      <point x="238.55421686746988" y="501.49397590361446" type="curve" smooth="yes"/>
      <point x="238.55421686746988" y="552.2168674698795"/>
      <point x="292.09638554216866" y="586.6385542168674"/>
      <point x="373.26506024096386" y="586.6385542168674" type="curve" smooth="yes"/>
      <point x="437.87951807228916" y="586.6385542168674"/>
      <point x="514.1927710843374" y="568.8915662650603"/>
      <point x="574.5060240963855" y="521.6506024096386" type="curve"/>
      <point x="630.0240963855422" y="634.1325301204819" type="line"/>
      <point x="558.2650602409639" y="690.2530120481927"/>
      <point x="462.6385542168675" y="715.6265060240964"/>
      <point x="374.9518072289157" y="715.6265060240964" type="curve" smooth="yes"/>
      <point x="220.19277108433735" y="715.6265060240964"/>
      <point x="85.55421686746988" y="631.6867469879518"/>
      <point x="85.55421686746988" y="486.73493975903614" type="curve" smooth="yes"/>
      <point x="85.55421686746988" y="389.9277108433735"/>
      <point x="148.18072289156626" y="327.855421686747"/>
      <point x="247.3734939759036" y="304.54216867469876" type="curve" smooth="yes"/>
      <point x="359.50602409638554" y="277.9156626506025" type="line" smooth="yes"/>
      <point x="424.9156626506024" y="263.4216867469879"/>
      <point x="451.0963855421687" y="238.12048192771084"/>
      <point x="451.0963855421687" y="200.3855421686747" type="curve" smooth="yes"/>
      <point x="451.0963855421687" y="151.72289156626508"/>
      <point x="400.92771084337346" y="118.36144578313252"/>
      <point x="316.3855421686747" y="118.36144578313252" type="curve" smooth="yes"/>
      <point x="237.39759036144576" y="118.36144578313252"/>
      <point x="151.95180722891567" y="137.9879518072289"/>
      <point x="72.7590361445783" y="190.79518072289156" type="curve"/>
      <point x="19.86746987951808" y="73.43373493975905" type="line"/>
      <point x="95.06024096385542" y="16.000000000000004"/>
      <point x="198.25301204819277" y="-10.626506024096384"/>
    </contour>
  </outline>
</glyph>
<glyph name="T" format="2">
  <advance width="632.277108433735"/>
  <unicode hex="0054"/>
  <anchor x="278.6385542168675" y="0.0" name="bottom"/>
  <anchor x="334.32530120481925" y="358.0" name="center"/>
  <anchor x="387.0120481927711" y="705.0" name="top"/>
  <outline>
    <contour>
      <point x="199.855421686747" y="0.0" type="line"/>
      <point x="355.10843373493975" y="0.0" type="line"/>
      <point x="446.6626506024096" y="577.0120481927711" type="line"/>
      <point x="679.8915662650603" y="577.0120481927711" type="line"/>
      <point x="700.3373493975904" y="705.0" type="line"/>
      <point x="78.62650602409639" y="705.0" type="line"/>
      <point x="58.18072289156627" y="577.0120481927711" type="line"/>
      <point x="291.4096385542169" y="577.0120481927711" type="line"/>
    </contour>
  </outline>
</glyph>
<glyph name="U" format="2">
  <advance width="742.3253012048193"/>
  <unicode hex="0055"/>
  <anchor x="333.8192771084337" y="0.0" name="bottom"/>
  <anchor x="406.3253012048193" y="0.0" name="ogonek"/>
  <anchor x="443.1927710843373" y="705.0" name="top"/>
  <anchor x="633.7349397590361" y="705.0" name="topright"/>
  <outline>
    <contour>
      <point x="345.75903614457826" y="-10.626506024096384" type="curve" smooth="yes"/>
      <point x="552.9638554216867" y="-10.626506024096384"/>
      <point x="651.9036144578313" y="92.81927710843374"/>
      <point x="682.2168674698794" y="284.3253012048193" type="curve" smooth="yes"/>
      <point x="748.590361445783" y="705.0" type="line"/>
      <point x="595.2771084337348" y="705.0" type="line"/>
      <point x="527.5903614457832" y="279.1927710843374" type="line" smooth="yes"/>
      <point x="509.78313253012044" y="169.97590361445785"/>
      <point x="453.421686746988" y="120.67469879518072"/>
      <point x="357.578313253012" y="120.67469879518072" type="curve" smooth="yes"/>
      <point x="253.855421686747" y="120.67469879518072"/>
      <point x="212.18072289156626" y="186.22891566265062"/>
      <point x="230.3012048192771" y="303.01204819277115" type="curve" smooth="yes"/>
      <point x="293.67469879518075" y="705.0" type="line"/>
      <point x="138.42168674698794" y="705.0" type="line"/>
      <point x="76.36144578313252" y="312.6385542168675" type="line" smooth="yes"/>
      <point x="41.421686746987945" y="94.3132530120482"/>
      <point x="163.50602409638554" y="-10.626506024096384"/>
    </contour>
  </outline>
</glyph>
<glyph name="V" format="2">
  <advance width="727.4096385542169"/>
  <unicode hex="0056"/>
  <anchor x="324.8915662650603" y="0.0" name="bottom"/>
  <anchor x="434.89156626506025" y="705.0" name="top"/>
  <outline>
    <contour>
      <point x="261.49397590361446" y="0.0" type="line"/>
      <point x="387.91566265060237" y="0.0" type="line"/>
      <point x="817.0481927710844" y="705.0" type="line"/>
      <point x="645.9156626506024" y="705.0" type="line"/>
      <point x="314.2048192771084" y="141.87951807228916" type="line"/>
      <point x="363.1566265060241" y="141.87951807228916" type="line"/>
      <point x="210.67469879518072" y="705.0" type="line"/>
      <point x="55.734939759036145" y="705.0" type="line"/>
    </contour>
  </outline>
</glyph>
<glyph name="W" format="2">
  <advance width="1120.2048192771085"/>
  <unicode hex="0057"/>
  <anchor x="521.1325301204819" y="0.0" name="bottom"/>
  <anchor x="629.5060240963855" y="705.0" name="top"/>
  <outline>
    <contour>
      <point x="228.55421686746985" y="0.0" type="line"/>
      <point x="354.91566265060237" y="0.0" type="line"/>
      <point x="613.8072289156627" y="500.27710843373495" type="line"/>
      <point x="589.867469879518" y="500.27710843373495" type="line"/>
      <point x="687.2891566265059" y="0.0" type="line"/>
      <point x="813.3373493975903" y="0.0" type="line"/>
      <point x="1177.2168674698794" y="705.0" type="line"/>
      <point x="1018.277108433735" y="705.0" type="line"/>
      <point x="745.5060240963855" y="160.5180722891566" type="line"/>
      <point x="784.3253012048192" y="160.5180722891566" type="line"/>
      <point x="686.2168674698795" y="705.0" type="line"/>
      <point x="572.6746987951807" y="705.0" type="line"/>
      <point x="293.6506024096386" y="160.5180722891566" type="line"/>
      <point x="336.15662650602405" y="160.5180722891566" type="line"/>
      <point x="239.36144578313252" y="705.0" type="line"/>
      <point x="88.67469879518072" y="705.0" type="line"/>
    </contour>
  </outline>
</glyph>
<glyph name="X" format="2">
  <advance width="684.8433734939758"/>
  <unicode hex="0058"/>
  <anchor x="302.9518072289157" y="0.0" name="bottom"/>
  <anchor x="413.3253012048193" y="705.0" name="top"/>
  <outline>
    <contour>
      <point x="-54.39759036144578" y="0.0" type="line"/>
      <point x="134.86746987951807" y="0.0" type="line"/>
      <point x="368.6385542168675" y="278.65060240963857" type="line"/>
      <point x="328.9397590361446" y="278.65060240963857" type="line"/>
      <point x="490.16867469879514" y="0.0" type="line"/>
      <point x="661.9277108433735" y="0.0" type="line"/>
      <point x="427.22891566265065" y="393.0120481927711" type="line"/>
      <point x="427.22891566265065" y="321.7951807228916" type="line"/>
      <point x="766.8072289156627" y="705.0" type="line"/>
      <point x="577.2289156626505" y="705.0" type="line"/>
      <point x="351.07228915662654" y="435.5903614457831" type="line"/>
      <point x="387.6506024096385" y="435.5903614457831" type="line"/>
      <point x="234.85542168674698" y="705.0" type="line"/>
      <point x="65.09638554216868" y="705.0" type="line"/>
      <point x="292.67469879518075" y="323.855421686747" type="line"/>
      <point x="292.67469879518075" y="391.6385542168675" type="line"/>
    </contour>
  </outline>
</glyph>
<glyph name="Y" format="2">
  <advance width="631.156626506024"/>
  <unicode hex="0059"/>
  <anchor x="276.5783132530121" y="0.0" name="bottom"/>
  <anchor x="375.3855421686747" y="705.0" name="top"/>
  <anchor x="88.37349397590361" y="705.0" name="topleft"/>
  <outline>
    <contour>
      <point x="198.7951807228916" y="0.0" type="line"/>
      <point x="354.0481927710843" y="0.0" type="line"/>
      <point x="411.73493975903614" y="361.7469879518072" type="line"/>
      <point x="364.8433734939759" y="272.5301204819277" type="line"/>
      <point x="736.0481927710844" y="705.0" type="line"/>
      <point x="551.722891566265" y="705.0" type="line"/>
      <point x="320.9518072289157" y="432.34939759036143" type="line"/>
      <point x="352.710843373494" y="432.34939759036143" type="line"/>
      <point x="208.6144578313253" y="705.0" type="line"/>
      <point x="39.168674698795186" y="705.0" type="line"/>
      <point x="273.9277108433735" y="272.5301204819277" type="line"/>
      <point x="256.4819277108434" y="361.7469879518072" type="line"/>
    </contour>
  </outline>
</glyph>
<glyph name="Z" format="2">
  <advance width="614.7108433734941"/>
  <unicode hex="005A"/>
  <anchor x="289.7590361445783" y="0.0" name="bottom"/>
  <anchor x="378.44578313253015" y="705.0" name="top"/>
  <outline>
    <contour>
      <point x="7.060240963855421" y="0.0" type="line"/>
      <point x="555.710843373494" y="0.0" type="line"/>
      <point x="576.1566265060242" y="128.6144578313253" type="line"/>
      <point x="172.87951807228913" y="128.6144578313253" type="line"/>
      <point x="176.8192771084337" y="82.97590361445782" type="line"/>
      <point x="633.2650602409639" y="590.9518072289156" type="line"/>
      <point x="651.3975903614459" y="705.0" type="line"/>
      <point x="118.74698795180723" y="705.0" type="line"/>
      <point x="98.61445783132531" y="576.3855421686748" type="line"/>
      <point x="485.89156626506025" y="576.3855421686748" type="line"/>
      <point x="483.26506024096386" y="623.0240963855422" type="line"/>
      <point x="25.192771084337345" y="114.73493975903614" type="line"/>
    </contour>
  </outline>
</glyph>
<glyph name="bracketleft" format="2">
  <advance width="376.86746987951807"/>
  <unicode hex="005B"/>
  <outline>
    <contour>
      <point x="37.12048192771084" y="-180.0" type="line"/>
      <point x="295.04819277108436" y="-180.0" type="line"/>
      <point x="312.86746987951807" y="-67.83132530120483" type="line"/>
      <point x="205.93975903614458" y="-67.83132530120483" type="line"/>
      <point x="310.3012048192771" y="592.8313253012047" type="line"/>
      <point x="417.2289156626506" y="592.8313253012047" type="line"/>
      <point x="435.04819277108436" y="705.0" type="line"/>
      <point x="177.12048192771084" y="705.0" type="line"/>
    </contour>
  </outline>
</glyph>
<glyph name="backslash" format="2">
  <advance width="330.855421686747"/>
  <unicode hex="005C"/>
  <outline>
    <contour>
      <point x="192.6265060240964" y="-77.38554216867469" type="line"/>
      <point x="305.4819277108434" y="-53.626506024096386" type="line"/>
      <point x="168.9156626506024" y="765.3855421686748" type="line"/>
      <point x="57.06024096385542" y="742.6265060240964" type="line"/>
    </contour>
  </outline>
</glyph>
<glyph name="bracketright" format="2">
  <advance width="376.86746987951807"/>
  <unicode hex="005D"/>
  <outline>
    <contour>
      <point x="-53.493975903614455" y="-180.0" type="line"/>
      <point x="205.433734939759" y="-180.0" type="line"/>
      <point x="345.433734939759" y="705.0" type="line"/>
      <point x="87.19277108433735" y="705.0" type="line"/>
      <point x="69.37349397590363" y="592.8313253012047" type="line"/>
      <point x="176.6144578313253" y="592.8313253012047" type="line"/>
      <point x="72.25301204819276" y="-67.83132530120483" type="line"/>
      <point x="-35.674698795180724" y="-67.83132530120483" type="line"/>
    </contour>
  </outline>
</glyph>
<glyph name="asciicircum" format="2">
  <advance width="600.0"/>
  <unicode hex="005E"/>
  <outline>
    <contour>
      <point x="28.12048192771085" y="140.0" type="line"/>
      <point x="145.34939759036143" y="140.0" type="line"/>
      <point x="394.95180722891564" y="587.1807228915663" type="line"/>
      <point x="321.73493975903614" y="587.1807228915663" type="line"/>
      <point x="430.65060240963857" y="140.0" type="line"/>
      <point x="539.2530120481927" y="140.0" type="line"/>
      <point x="416.77108433734946" y="628.0" type="line"/>
      <point x="304.6024096385542" y="628.0" type="line"/>
    </contour>
  </outline>
</glyph>
<glyph name="underscore" format="2">
  <advance width="500.0"/>
  <unicode hex="005F"/>
  <outline>
    <contour>
      <point x="-32.19277108433735" y="-87.84337349397589" type="line"/>
      <point x="426.8072289156626" y="-87.84337349397589" type="line"/>
      <point x="441.0" y="0.0" type="line"/>
      <point x="-18.0" y="0.0" type="line"/>
    </contour>
  </outline>
</glyph>
<glyph name="a" format="2">
  <advance width="557.3373493975903"/>
  <unicode hex="0061"/>
  <anchor x="248.69879518072293" y="0.0" name="bottom"/>
  <anchor x="416.95180722891564" y="0.0" name="ogonek"/>
  <anchor x="313.13253012048193" y="484.0" name="top"/>
  <outline>
    <contour>
      <point x="189.24096385542168" y="-10.626506024096384" type="curve" smooth="yes"/>
      <point x="255.98795180722888" y="-10.626506024096384"/>
      <point x="316.91566265060237" y="22.493975903614462"/>
      <point x="346.855421686747" y="100.2409638554217" type="curve"/>
      <point x="337.7951807228916" y="100.2409638554217" type="line"/>
      <point x="322.10843373493975" y="0.0" type="line"/>
      <point x="462.6024096385542" y="0.0" type="line"/>
      <point x="505.34939759036143" y="269.1686746987952" type="line" smooth="yes"/>
      <point x="525.6626506024097" y="398.0481927710843"/>
      <point x="470.72289156626505" y="501.1927710843374"/>
      <point x="301.5060240963856" y="501.1927710843374" type="curve" smooth="yes"/>
      <point x="219.74698795180723" y="501.1927710843374"/>
      <point x="131.67469879518072" y="477.566265060241"/>
      <point x="80.42168674698794" y="442.566265060241" type="curve"/>
      <point x="111.24096385542168" y="340.90361445783134" type="line"/>
      <point x="166.49397590361446" y="373.9638554216868"/>
      <point x="222.43373493975903" y="389.65060240963857"/>
      <point x="281.1204819277108" y="389.65060240963857" type="curve" smooth="yes"/>
      <point x="348.855421686747" y="389.65060240963857"/>
      <point x="377.6024096385542" y="359.03614457831327"/>
      <point x="368.1686746987952" y="305.49397590361446" type="curve" smooth="yes"/>
      <point x="349.48192771084337" y="188.3734939759036" type="line" smooth="yes"/>
      <point x="340.0481927710843" y="128.3975903614458"/>
      <point x="296.87951807228916" y="90.09638554216868"/>
      <point x="239.51807228915663" y="90.09638554216868" type="curve" smooth="yes"/>
      <point x="198.59036144578315" y="90.09638554216868"/>
      <point x="168.2289156626506" y="112.96385542168674"/>
      <point x="168.2289156626506" y="152.75903614457832" type="curve" smooth="yes"/>
      <point x="168.2289156626506" y="198.55421686746988"/>
      <point x="203.90361445783134" y="214.24096385542168"/>
      <point x="300.6024096385542" y="214.24096385542168" type="curve" smooth="yes"/>
      <point x="364.855421686747" y="214.24096385542168" type="line"/>
      <point x="377.10843373493975" y="292.1927710843374" type="line"/>
      <point x="297.73493975903614" y="292.1927710843374" type="line" smooth="yes"/>
      <point x="108.67469879518073" y="292.1927710843374"/>
      <point x="22.734939759036152" y="246.50602409638554"/>
      <point x="22.734939759036152" y="143.19277108433735" type="curve" smooth="yes"/>
      <point x="22.734939759036152" y="59.81927710843373"/>
      <point x="96.42168674698796" y="-10.626506024096384"/>
    </contour>
  </outline>
</glyph>
<glyph name="b" format="2">
  <advance width="610.0240963855422"/>
  <unicode hex="0062"/>
  <anchor x="266.7469879518072" y="0.0" name="bottom"/>
  <anchor x="389.7590361445784" y="705.0" name="top"/>
  <outline>
    <contour>
      <point x="330.84337349397595" y="-10.626506024096384" type="curve" smooth="yes"/>
      <point x="482.27710843373495" y="-10.626506024096384"/>
      <point x="578.4096385542168" y="119.18072289156626"/>
      <point x="578.4096385542168" y="288.6265060240964" type="curve" smooth="yes"/>
      <point x="578.4096385542168" y="419.2530120481928"/>
      <point x="506.0361445783132" y="501.1927710843374"/>
      <point x="394.66265060240966" y="501.1927710843374" type="curve" smooth="yes"/>
      <point x="322.04819277108436" y="501.1927710843374"/>
      <point x="261.30120481927713" y="465.6987951807229"/>
      <point x="224.67469879518072" y="405.144578313253" type="curve"/>
      <point x="234.67469879518072" y="405.144578313253" type="line"/>
      <point x="282.4216867469879" y="705.0" type="line"/>
      <point x="131.42168674698794" y="705.0" type="line"/>
      <point x="19.421686746987945" y="0.0" type="line"/>
      <point x="166.79518072289156" y="0.0" type="line"/>
      <point x="180.85542168674698" y="89.16867469879517" type="line"/>
      <point x="175.5421686746988" y="89.16867469879517" type="line"/>
      <point x="198.5421686746988" y="23.807228915662655"/>
      <point x="258.03614457831327" y="-10.626506024096384"/>
    </contour>
    <contour>
      <point x="300.3253012048193" y="102.22891566265059" type="curve" smooth="yes"/>
      <point x="242.40963855421688" y="102.22891566265059"/>
      <point x="207.73493975903614" y="140.5301204819277"/>
      <point x="207.73493975903614" y="209.81927710843374" type="curve" smooth="yes"/>
      <point x="207.73493975903614" y="311.7349397590362"/>
      <point x="254.40963855421688" y="388.33734939759034"/>
      <point x="333.8192771084337" y="388.33734939759034" type="curve" smooth="yes"/>
      <point x="391.73493975903614" y="388.33734939759034"/>
      <point x="426.4096385542169" y="350.03614457831327"/>
      <point x="426.4096385542169" y="280.7469879518072" type="curve" smooth="yes"/>
      <point x="426.4096385542169" y="178.5180722891566"/>
      <point x="379.73493975903614" y="102.22891566265059"/>
    </contour>
  </outline>
</glyph>
<glyph name="c" format="2">
  <advance width="477.9518072289157"/>
  <unicode hex="0063"/>
  <anchor x="248.1325301204819" y="0.0" name="bottom"/>
  <anchor x="317.01204819277103" y="484.0" name="top"/>
  <outline>
    <contour>
      <point x="277.5180722891567" y="-10.626506024096384" type="curve" smooth="yes"/>
      <point x="334.83132530120486" y="-10.626506024096384"/>
      <point x="405.71084337349396" y="6.807228915662653"/>
      <point x="443.71084337349396" y="38.554216867469876" type="curve"/>
      <point x="411.5783132530121" y="144.4698795180723" type="line"/>
      <point x="378.144578313253" y="118.6024096385542"/>
      <point x="335.3373493975904" y="104.54216867469879"/>
      <point x="300.5301204819277" y="104.54216867469879" type="curve" smooth="yes"/>
      <point x="219.42168674698794" y="104.54216867469879"/>
      <point x="187.24096385542168" y="150.21686746987953"/>
      <point x="187.24096385542168" y="217.75903614457832" type="curve" smooth="yes"/>
      <point x="187.24096385542168" y="300.04819277108436"/>
      <point x="225.5421686746988" y="386.0240963855422"/>
      <point x="330.7710843373494" y="386.0240963855422" type="curve" smooth="yes"/>
      <point x="373.3253012048193" y="386.0240963855422"/>
      <point x="417.3253012048193" y="370.6506024096386"/>
      <point x="445.13253012048193" y="345.7831325301205" type="curve"/>
      <point x="489.7710843373494" y="450.0120481927711" type="line"/>
      <point x="449.89156626506025" y="481.44578313253015"/>
      <point x="384.9518072289157" y="501.1927710843374"/>
      <point x="319.63855421686753" y="501.1927710843374" type="curve" smooth="yes"/>
      <point x="124.62650602409639" y="501.1927710843374"/>
      <point x="32.6144578313253" y="362.6987951807229"/>
      <point x="32.6144578313253" y="216.13253012048193" type="curve" smooth="yes"/>
      <point x="32.6144578313253" y="80.3132530120482"/>
      <point x="114.62650602409639" y="-10.626506024096384"/>
    </contour>
  </outline>
</glyph>
<glyph name="d" format="2">
  <advance width="610.0240963855422"/>
  <unicode hex="0064"/>
  <anchor x="273.3253012048193" y="0.0" name="bottom"/>
  <anchor x="299.50602409638554" y="246.3132530120482" name="center"/>
  <anchor x="481.44578313253015" y="590.1927710843373" name="stroke"/>
  <anchor x="368.71084337349396" y="629.4578313253012" name="top"/>
  <anchor x="662.156626506024" y="705.0" name="topright"/>
  <outline>
    <contour>
      <point x="214.6746987951807" y="-10.626506024096384" type="curve" smooth="yes"/>
      <point x="287.28915662650604" y="-10.626506024096384"/>
      <point x="348.0361445783132" y="25.554216867469883"/>
      <point x="384.34939759036143" y="85.10843373493975" type="curve"/>
      <point x="378.9759036144578" y="85.10843373493975" type="line"/>
      <point x="365.2289156626506" y="0.0" type="line"/>
      <point x="512.6024096385541" y="0.0" type="line"/>
      <point x="624.6024096385541" y="705.0" type="line"/>
      <point x="473.6024096385542" y="705.0" type="line"/>
      <point x="425.855421686747" y="402.39759036144574" type="line"/>
      <point x="433.79518072289153" y="401.3975903614458" type="line"/>
      <point x="410.79518072289153" y="466.7590361445783"/>
      <point x="351.30120481927713" y="501.1927710843374"/>
      <point x="278.4939759036144" y="501.1927710843374" type="curve" smooth="yes"/>
      <point x="127.74698795180724" y="501.1927710843374"/>
      <point x="31.614457831325304" y="372.07228915662654"/>
      <point x="31.614457831325304" y="201.93975903614458" type="curve" smooth="yes"/>
      <point x="31.614457831325304" y="72.0"/>
      <point x="103.98795180722892" y="-10.626506024096384"/>
    </contour>
    <contour>
      <point x="276.20481927710847" y="102.22891566265059" type="curve" smooth="yes"/>
      <point x="218.289156626506" y="102.22891566265059"/>
      <point x="183.6144578313253" y="140.5301204819277"/>
      <point x="183.6144578313253" y="209.81927710843374" type="curve" smooth="yes"/>
      <point x="183.6144578313253" y="312.04819277108436"/>
      <point x="230.289156626506" y="388.33734939759034"/>
      <point x="309.69879518072287" y="388.33734939759034" type="curve" smooth="yes"/>
      <point x="367.6144578313253" y="388.33734939759034"/>
      <point x="402.28915662650604" y="350.03614457831327"/>
      <point x="402.28915662650604" y="280.7469879518072" type="curve" smooth="yes"/>
      <point x="402.28915662650604" y="178.8313253012048"/>
      <point x="355.6144578313253" y="102.22891566265059"/>
    </contour>
  </outline>
</glyph>
<glyph name="e" format="2">
  <advance width="549.2650602409639"/>
  <unicode hex="0065"/>
  <anchor x="257.81927710843377" y="0.0" name="bottom"/>
  <anchor x="351.27710843373495" y="0.0" name="ogonek"/>
  <anchor x="324.3855421686747" y="484.0" name="top"/>
  <outline>
    <contour>
      <point x="285.6385542168675" y="-10.626506024096384" type="curve" smooth="yes"/>
      <point x="363.7710843373494" y="-10.626506024096384"/>
      <point x="438.0843373493976" y="12.060240963855422"/>
      <point x="486.33734939759034" y="50.49397590361446" type="curve"/>
      <point x="452.51807228915663" y="149.09638554216866" type="line"/>
      <point x="411.77108433734935" y="117.9156626506024"/>
      <point x="356.83132530120486" y="102.22891566265059"/>
      <point x="301.0240963855422" y="102.22891566265059" type="curve" smooth="yes"/>
      <point x="208.60240963855424" y="102.22891566265059"/>
      <point x="161.36144578313252" y="154.4578313253012"/>
      <point x="175.79518072289156" y="243.0602409638554" type="curve" smooth="yes"/>
      <point x="181.42168674698794" y="278.13253012048193" type="line" smooth="yes"/>
      <point x="191.48192771084337" y="343.1807228915663"/>
      <point x="230.4698795180723" y="400.84337349397595"/>
      <point x="307.56626506024094" y="400.84337349397595" type="curve" smooth="yes"/>
      <point x="382.54216867469876" y="400.84337349397595"/>
      <point x="410.34939759036143" y="347.6144578313253"/>
      <point x="400.9156626506024" y="277.0722891566265" type="curve"/>
      <point x="416.9759036144578" y="290.81927710843377" type="line"/>
      <point x="165.79518072289156" y="290.81927710843377" type="line"/>
      <point x="154.5421686746988" y="212.86746987951807" type="line"/>
      <point x="514.3975903614457" y="212.86746987951807" type="line"/>
      <point x="517.710843373494" y="238.86746987951807" type="line" smooth="yes"/>
      <point x="536.2168674698795" y="382.1927710843374"/>
      <point x="472.9518072289157" y="501.1927710843374"/>
      <point x="308.87951807228916" y="501.1927710843374" type="curve" smooth="yes"/>
      <point x="149.87951807228916" y="501.1927710843374"/>
      <point x="32.6144578313253" y="381.5783132530121"/>
      <point x="32.6144578313253" y="215.44578313253012" type="curve" smooth="yes"/>
      <point x="32.6144578313253" y="78.87951807228916"/>
      <point x="132.3132530120482" y="-10.626506024096384"/>
    </contour>
  </outline>
</glyph>
<glyph name="f" format="2">
  <advance width="382.4819277108434"/>
  <unicode hex="0066"/>
  <anchor x="132.33734939759037" y="0.0" name="bottom"/>
  <anchor x="243.33734939759037" y="705.0" name="top"/>
  <outline>
    <contour>
      <point x="57.493975903614455" y="0.0" type="line"/>
      <point x="208.49397590361443" y="0.0" type="line"/>
      <point x="268.6746987951807" y="378.3975903614458" type="line"/>
      <point x="393.9759036144578" y="378.3975903614458" type="line"/>
      <point x="411.79518072289153" y="490.566265060241" type="line"/>
      <point x="273.5542168674699" y="490.566265060241" type="line"/>
      <point x="283.8072289156626" y="479.31325301204816" type="line"/>
      <point x="288.86746987951807" y="510.6144578313253" type="line" smooth="yes"/>
      <point x="297.6144578313253" y="568.4096385542167"/>
      <point x="330.1686746987952" y="594.0240963855421"/>
      <point x="402.0361445783132" y="598.3975903614459" type="curve" smooth="yes"/>
      <point x="455.91566265060237" y="601.3975903614459" type="line"/>
      <point x="459.16867469879514" y="710.6265060240964" type="line"/>
      <point x="394.84337349397583" y="707.6265060240964" type="line" smooth="yes"/>
      <point x="228.12048192771084" y="701.0"/>
      <point x="156.49397590361446" y="626.1807228915663"/>
      <point x="137.55421686746988" y="506.421686746988" type="curve" smooth="yes"/>
      <point x="132.80722891566265" y="476.31325301204816" type="line"/>
      <point x="150.3734939759036" y="490.566265060241" type="line"/>
      <point x="42.433734939759034" y="490.566265060241" type="line"/>
      <point x="24.614457831325304" y="378.3975903614458" type="line"/>
      <point x="117.67469879518073" y="378.3975903614458" type="line"/>
    </contour>
  </outline>
</glyph>
<glyph name="g" format="2">
  <advance width="614.6506024096386"/>
  <unicode hex="0067"/>
  <anchor x="337.8192771084337" y="484.0" name="top"/>
  <outline>
    <contour>
      <point x="260.3855421686747" y="-190.6265060240964" type="curve" smooth="yes"/>
      <point x="413.15662650602405" y="-190.6265060240964"/>
      <point x="500.1686746987952" y="-109.3012048192771"/>
      <point x="522.4819277108434" y="33.20481927710843" type="curve" smooth="yes"/>
      <point x="594.5421686746988" y="490.566265060241" type="line"/>
      <point x="447.16867469879514" y="490.566265060241" type="line"/>
      <point x="433.4216867469879" y="403.710843373494" type="line"/>
      <point x="441.1084337349397" y="401.3975903614458" type="line"/>
      <point x="418.10843373493975" y="466.7590361445783"/>
      <point x="358.6144578313253" y="501.1927710843374"/>
      <point x="283.18072289156623" y="501.1927710843374" type="curve" smooth="yes"/>
      <point x="132.06024096385542" y="501.1927710843374"/>
      <point x="32.6144578313253" y="369.7590361445783"/>
      <point x="32.6144578313253" y="214.25301204819274" type="curve" smooth="yes"/>
      <point x="32.6144578313253" y="87.06024096385542"/>
      <point x="111.2409638554217" y="12.313253012048193"/>
      <point x="229.86746987951804" y="12.313253012048193" type="curve" smooth="yes"/>
      <point x="301.48192771084337" y="12.313253012048193"/>
      <point x="365.855421686747" y="44.867469879518076"/>
      <point x="396.9156626506024" y="106.73493975903617" type="curve"/>
      <point x="388.54216867469876" y="107.73493975903617" type="line"/>
      <point x="375.4216867469879" y="24.951807228915662" type="line" smooth="yes"/>
      <point x="363.3614457831325" y="-48.4698795180723"/>
      <point x="314.2409638554217" y="-77.77108433734941"/>
      <point x="237.68674698795184" y="-77.77108433734941" type="curve" smooth="yes"/>
      <point x="172.50602409638554" y="-77.77108433734941"/>
      <point x="113.74698795180721" y="-55.71084337349398"/>
      <point x="56.6867469879518" y="-21.21686746987952" type="curve"/>
      <point x="12.421686746987952" y="-124.19277108433735" type="line"/>
      <point x="79.49397590361444" y="-167.50602409638554"/>
      <point x="160.93975903614458" y="-190.6265060240964"/>
    </contour>
    <contour>
      <point x="278.8313253012048" y="125.16867469879517" type="curve" smooth="yes"/>
      <point x="218.6024096385542" y="125.16867469879517"/>
      <point x="183.9277108433735" y="162.7831325301205"/>
      <point x="184.6144578313253" y="223.4457831325301" type="curve" smooth="yes"/>
      <point x="185.3012048192771" y="312.0481927710843"/>
      <point x="231.289156626506" y="388.33734939759034"/>
      <point x="313.0120481927711" y="388.33734939759034" type="curve" smooth="yes"/>
      <point x="374.2409638554217" y="388.33734939759034"/>
      <point x="409.60240963855426" y="350.03614457831327"/>
      <point x="408.9156626506024" y="290.433734939759" type="curve" smooth="yes"/>
      <point x="408.2289156626506" y="201.7710843373494"/>
      <point x="361.5542168674699" y="125.16867469879517"/>
    </contour>
  </outline>
</glyph>
<glyph name="h" format="2">
  <advance width="595.3373493975903"/>
  <unicode hex="0068"/>
  <anchor x="263.07228915662654" y="0.0" name="bottom"/>
  <anchor x="299.3253012048193" y="248.6265060240964" name="center"/>
  <anchor x="350.6987951807229" y="351.3734939759036" name="dot"/>
  <anchor x="238.57831325301203" y="590.1927710843373" name="stroke"/>
  <anchor x="369.3855421686747" y="705.0" name="top"/>
  <anchor x="307.6626506024096" y="705.0" name="topright"/>
  <outline>
    <contour>
      <point x="19.421686746987945" y="0.0" type="line"/>
      <point x="170.42168674698794" y="0.0" type="line"/>
      <point x="212.10843373493975" y="262.37349397590356" type="line" smooth="yes"/>
      <point x="223.85542168674698" y="338.289156626506"/>
      <point x="266.2168674698795" y="384.3975903614458"/>
      <point x="333.6265060240964" y="384.3975903614458" type="curve" smooth="yes"/>
      <point x="386.79518072289153" y="384.3975903614458"/>
      <point x="405.40963855421694" y="352.0963855421687"/>
      <point x="395.28915662650604" y="289.43373493975906" type="curve" smooth="yes"/>
      <point x="349.60240963855426" y="0.0" type="line"/>
      <point x="500.60240963855426" y="0.0" type="line"/>
      <point x="546.6024096385543" y="292.06024096385545" type="line" smooth="yes"/>
      <point x="569.2289156626506" y="437.1927710843374"/>
      <point x="505.6626506024096" y="501.1927710843374"/>
      <point x="398.9759036144578" y="501.1927710843374" type="curve" smooth="yes"/>
      <point x="318.4216867469879" y="501.1927710843374"/>
      <point x="255.9879518072289" y="464.6987951807229"/>
      <point x="222.67469879518072" y="398.144578313253" type="curve"/>
      <point x="233.67469879518072" y="398.144578313253" type="line"/>
      <point x="282.4216867469879" y="705.0" type="line"/>
      <point x="131.42168674698794" y="705.0" type="line"/>
    </contour>
  </outline>
</glyph>
<glyph name="i" format="2">
  <advance width="267.8433734939759"/>
  <unicode hex="0069"/>
  <anchor x="95.26506024096386" y="0.0" name="bottom"/>
  <anchor x="136.27710843373495" y="0.0" name="ogonek"/>
  <outline>
    <contour>
      <point x="107.10843373493975" y="585.855421686747" type="line"/>
      <point x="269.6024096385542" y="585.855421686747" type="line"/>
      <point x="292.4216867469879" y="726.6506024096386" type="line"/>
      <point x="129.9277108433735" y="726.6506024096386" type="line"/>
    </contour>
    <contour>
      <point x="19.421686746987945" y="0.0" type="line"/>
      <point x="170.42168674698794" y="0.0" type="line"/>
      <point x="248.42168674698794" y="490.566265060241" type="line"/>
      <point x="97.42168674698794" y="490.566265060241" type="line"/>
    </contour>
  </outline>
</glyph>
<glyph name="j" format="2">
  <advance width="272.7831325301205"/>
  <unicode hex="006A"/>
  <outline>
    <contour>
      <point x="110.04819277108435" y="585.855421686747" type="line"/>
      <point x="272.5421686746988" y="585.855421686747" type="line"/>
      <point x="295.3614457831325" y="726.6506024096386" type="line"/>
      <point x="132.8674698795181" y="726.6506024096386" type="line"/>
    </contour>
    <contour>
      <point x="-95.36144578313252" y="-193.0" type="line"/>
      <point x="-49.734939759036145" y="-190.0" type="line" smooth="yes"/>
      <point x="99.98795180722891" y="-180.06024096385542"/>
      <point x="156.04819277108433" y="-123.43373493975903"/>
      <point x="177.6144578313253" y="17.024096385542165" type="curve" smooth="yes"/>
      <point x="253.04819277108433" y="490.566265060241" type="line"/>
      <point x="102.04819277108433" y="490.566265060241" type="line"/>
      <point x="23.674698795180717" y="-2.3012048192771104" type="line" smooth="yes"/>
      <point x="15.927710843373488" y="-50.78313253012049"/>
      <point x="-7.373493975903611" y="-75.77108433734941"/>
      <point x="-56.36144578313253" y="-79.77108433734941" type="curve" smooth="yes"/>
      <point x="-105.24096385542168" y="-85.0843373493976" type="line"/>
    </contour>
  </outline>
</glyph>
<glyph name="k" format="2">
  <advance width="557.6144578313252"/>
  <unicode hex="006B"/>
  <anchor x="252.5903614457831" y="0.0" name="bottom"/>
  <anchor x="368.69879518072287" y="705.0" name="top"/>
  <outline>
    <contour>
      <point x="20.421686746987945" y="0.0" type="line"/>
      <point x="171.42168674698794" y="0.0" type="line"/>
      <point x="205.79518072289156" y="218.61445783132532" type="line"/>
      <point x="207.79518072289156" y="218.61445783132532" type="line"/>
      <point x="370.0602409638554" y="0.0" type="line"/>
      <point x="542.9397590361446" y="0.0" type="line"/>
      <point x="336.91566265060237" y="285.0120481927711" type="line"/>
      <point x="339.421686746988" y="226.3132530120482" type="line"/>
      <point x="604.6987951807229" y="490.566265060241" type="line"/>
      <point x="427.50602409638554" y="490.566265060241" type="line"/>
      <point x="218.67469879518072" y="287.5783132530121" type="line"/>
      <point x="216.67469879518072" y="287.5783132530121" type="line"/>
      <point x="282.4216867469879" y="705.0" type="line"/>
      <point x="131.42168674698794" y="705.0" type="line"/>
    </contour>
  </outline>
</glyph>
<glyph name="l" format="2">
  <advance width="333.09638554216866"/>
  <unicode hex="006C"/>
  <anchor x="160.0722891566265" y="0.0" name="bottom"/>
  <anchor x="161.95180722891564" y="357.0" name="center"/>
  <anchor x="359.2530120481928" y="357.0" name="dot"/>
  <anchor x="206.26506024096386" y="705.0" name="top"/>
  <anchor x="319.28915662650604" y="705.0" name="topright"/>
  <outline>
    <contour>
      <point x="205.57831325301203" y="-10.626506024096384" type="curve" smooth="yes"/>
      <point x="233.02409638554218" y="-10.626506024096384"/>
      <point x="259.2771084337349" y="-7.313253012048192"/>
      <point x="280.8433734939759" y="-1.0" type="curve"/>
      <point x="300.66265060240966" y="114.48192771084337" type="line"/>
      <point x="286.289156626506" y="112.79518072289156"/>
      <point x="271.6024096385542" y="111.10843373493975"/>
      <point x="258.2289156626506" y="111.10843373493975" type="curve" smooth="yes"/>
      <point x="210.9879518072289" y="111.10843373493975"/>
      <point x="192.24096385542168" y="135.22891566265062"/>
      <point x="200.3012048192771" y="187.65060240963854" type="curve" smooth="yes"/>
      <point x="282.4216867469879" y="705.0" type="line"/>
      <point x="131.42168674698794" y="705.0" type="line"/>
      <point x="49.301204819277096" y="186.02409638554218" type="line" smooth="yes"/>
      <point x="29.36144578313252" y="57.44578313253011"/>
      <point x="83.49397590361447" y="-10.626506024096384"/>
    </contour>
  </outline>
</glyph>
<glyph name="m" format="2">
  <advance width="889.2168674698795"/>
  <unicode hex="006D"/>
  <anchor x="406.95180722891564" y="0.0" name="bottom"/>
  <anchor x="482.95180722891564" y="484.0" name="top"/>
  <outline>
    <contour>
      <point x="21.421686746987945" y="0.0" type="line"/>
      <point x="172.42168674698794" y="0.0" type="line"/>
      <point x="214.10843373493975" y="262.37349397590356" type="line" smooth="yes"/>
      <point x="226.5421686746988" y="339.66265060240966"/>
      <point x="265.27710843373495" y="384.3975903614458"/>
      <point x="322.1927710843373" y="384.3975903614458" type="curve" smooth="yes"/>
      <point x="369.0481927710843" y="384.3975903614458"/>
      <point x="386.9156626506024" y="352.78313253012055"/>
      <point x="377.48192771084337" y="291.4939759036144" type="curve" smooth="yes"/>
      <point x="331.10843373493975" y="0.0" type="line"/>
      <point x="482.1084337349398" y="0.0" type="line"/>
      <point x="523.7951807228916" y="262.37349397590356" type="line" smooth="yes"/>
      <point x="536.2289156626507" y="339.66265060240966"/>
      <point x="574.277108433735" y="384.3975903614458"/>
      <point x="631.8795180722891" y="384.3975903614458" type="curve" smooth="yes"/>
      <point x="678.7349397590361" y="384.3975903614458"/>
      <point x="696.6024096385541" y="352.78313253012055"/>
      <point x="687.1686746987953" y="291.4939759036144" type="curve" smooth="yes"/>
      <point x="641.4819277108434" y="0.0" type="line"/>
      <point x="792.4819277108434" y="0.0" type="line"/>
      <point x="838.4819277108434" y="292.06024096385545" type="line" smooth="yes"/>
      <point x="861.1084337349397" y="437.87951807228916"/>
      <point x="798.2289156626506" y="501.1927710843374"/>
      <point x="694.9759036144579" y="501.1927710843374" type="curve" smooth="yes"/>
      <point x="615.1084337349397" y="501.1927710843374"/>
      <point x="552.4216867469879" y="465.0120481927711"/>
      <point x="517.1686746987951" y="395.2048192771084" type="curve"/>
      <point x="530.7951807228915" y="387.6385542168675" type="line"/>
      <point x="511.9759036144578" y="462.75903614457826"/>
      <point x="463.60240963855426" y="501.1927710843374"/>
      <point x="389.85542168674704" y="501.1927710843374" type="curve" smooth="yes"/>
      <point x="323.3012048192771" y="501.1927710843374"/>
      <point x="258.9879518072289" y="468.32530120481925"/>
      <point x="220.73493975903614" y="394.20481927710847" type="curve"/>
      <point x="231.04819277108433" y="394.2048192771084" type="line"/>
      <point x="246.79518072289156" y="490.566265060241" type="line"/>
      <point x="99.42168674698794" y="490.566265060241" type="line"/>
    </contour>
  </outline>
</glyph>
<glyph name="n" format="2">
  <advance width="595.3373493975903"/>
  <unicode hex="006E"/>
  <anchor x="262.3855421686747" y="0.0" name="bottom"/>
  <anchor x="331.7590361445783" y="484.0" name="top"/>
  <outline>
    <contour>
      <point x="19.421686746987945" y="0.0" type="line"/>
      <point x="170.42168674698794" y="0.0" type="line"/>
      <point x="212.10843373493975" y="262.37349397590356" type="line" smooth="yes"/>
      <point x="223.85542168674698" y="338.289156626506"/>
      <point x="266.2168674698795" y="384.3975903614458"/>
      <point x="333.6265060240964" y="384.3975903614458" type="curve" smooth="yes"/>
      <point x="386.79518072289153" y="384.3975903614458"/>
      <point x="405.40963855421694" y="352.0963855421687"/>
      <point x="395.28915662650604" y="289.43373493975906" type="curve" smooth="yes"/>
      <point x="349.60240963855426" y="0.0" type="line"/>
      <point x="500.60240963855426" y="0.0" type="line"/>
      <point x="546.6024096385543" y="292.06024096385545" type="line" smooth="yes"/>
      <point x="569.2289156626506" y="437.1927710843374"/>
      <point x="505.6626506024096" y="501.1927710843374"/>
      <point x="398.9759036144578" y="501.1927710843374" type="curve" smooth="yes"/>
      <point x="318.4216867469879" y="501.1927710843374"/>
      <point x="255.9879518072289" y="464.6987951807229"/>
      <point x="222.67469879518072" y="398.144578313253" type="curve"/>
      <point x="230.04819277108433" y="398.144578313253" type="line"/>
      <point x="244.79518072289156" y="490.566265060241" type="line"/>
      <point x="97.42168674698794" y="490.566265060241" type="line"/>
    </contour>
  </outline>
</glyph>
<glyph name="p" format="2">
  <advance width="610.0240963855422"/>
  <unicode hex="0070"/>
  <anchor x="265.0120481927711" y="0.0" name="bottom"/>
  <anchor x="341.0120481927711" y="484.0" name="top"/>
  <outline>
    <contour>
      <point x="-8.891566265060248" y="-180.0" type="line"/>
      <point x="142.10843373493975" y="-180.0" type="line"/>
      <point x="184.85542168674698" y="88.855421686747" type="line"/>
      <point x="175.5421686746988" y="89.16867469879519" type="line"/>
      <point x="198.5421686746988" y="23.807228915662645"/>
      <point x="258.03614457831327" y="-10.626506024096384"/>
      <point x="330.84337349397595" y="-10.626506024096384" type="curve" smooth="yes"/>
      <point x="482.2771084337349" y="-10.626506024096384"/>
      <point x="578.4096385542168" y="119.18072289156626"/>
      <point x="578.4096385542168" y="288.6265060240964" type="curve" smooth="yes"/>
      <point x="578.4096385542168" y="419.2530120481928"/>
      <point x="506.03614457831327" y="501.1927710843374"/>
      <point x="394.66265060240966" y="501.1927710843374" type="curve" smooth="yes"/>
      <point x="322.0481927710843" y="501.1927710843374"/>
      <point x="261.3012048192771" y="465.69879518072287"/>
      <point x="224.9879518072289" y="405.4578313253012" type="curve"/>
      <point x="231.73493975903614" y="405.4578313253012" type="line"/>
      <point x="244.79518072289156" y="490.566265060241" type="line"/>
      <point x="97.42168674698794" y="490.566265060241" type="line"/>
    </contour>
    <contour>
      <point x="300.3253012048193" y="102.22891566265059" type="curve" smooth="yes"/>
      <point x="242.40963855421688" y="102.22891566265059"/>
      <point x="207.73493975903614" y="140.5301204819277"/>
      <point x="207.73493975903614" y="209.81927710843374" type="curve" smooth="yes"/>
      <point x="207.73493975903614" y="311.7349397590362"/>
      <point x="254.40963855421688" y="388.33734939759034"/>
      <point x="333.8192771084337" y="388.33734939759034" type="curve" smooth="yes"/>
      <point x="391.73493975903614" y="388.33734939759034"/>
      <point x="426.4096385542169" y="350.03614457831327"/>
      <point x="426.4096385542169" y="280.7469879518072" type="curve" smooth="yes"/>
      <point x="426.4096385542169" y="178.5180722891566"/>
      <point x="379.73493975903614" y="102.22891566265059"/>
    </contour>
  </outline>
</glyph>
<glyph name="q" format="2">
  <advance width="610.0240963855422"/>
  <unicode hex="0071"/>
  <anchor x="267.9518072289157" y="0.0" name="bottom"/>
  <anchor x="344.63855421686753" y="484.0" name="top"/>
  <outline>
    <contour>
      <point x="333.28915662650604" y="-180.0" type="line"/>
      <point x="484.289156626506" y="-180.0" type="line"/>
      <point x="590.6024096385541" y="490.566265060241" type="line"/>
      <point x="443.2289156626506" y="490.566265060241" type="line"/>
      <point x="429.48192771084337" y="402.77108433734935" type="line"/>
      <point x="433.79518072289153" y="401.39759036144574" type="line"/>
      <point x="410.79518072289153" y="466.7590361445783"/>
      <point x="351.3012048192771" y="501.1927710843374"/>
      <point x="278.4939759036144" y="501.1927710843374" type="curve" smooth="yes"/>
      <point x="127.74698795180724" y="501.1927710843374"/>
      <point x="31.614457831325304" y="372.07228915662654"/>
      <point x="31.614457831325304" y="201.93975903614458" type="curve" smooth="yes"/>
      <point x="31.614457831325304" y="72.0"/>
      <point x="103.98795180722892" y="-10.626506024096384"/>
      <point x="214.6746987951807" y="-10.626506024096384" type="curve" smooth="yes"/>
      <point x="287.289156626506" y="-10.626506024096384"/>
      <point x="348.0361445783132" y="25.554216867469876"/>
      <point x="384.6626506024096" y="85.42168674698796" type="curve"/>
      <point x="375.34939759036143" y="85.42168674698796" type="line"/>
    </contour>
    <contour>
      <point x="276.20481927710847" y="102.22891566265059" type="curve" smooth="yes"/>
      <point x="218.289156626506" y="102.22891566265059"/>
      <point x="183.6144578313253" y="140.5301204819277"/>
      <point x="183.6144578313253" y="209.81927710843374" type="curve" smooth="yes"/>
      <point x="183.6144578313253" y="312.04819277108436"/>
      <point x="230.289156626506" y="388.33734939759034"/>
      <point x="309.69879518072287" y="388.33734939759034" type="curve" smooth="yes"/>
      <point x="367.6144578313253" y="388.33734939759034"/>
      <point x="402.28915662650604" y="350.03614457831327"/>
      <point x="402.28915662650604" y="280.7469879518072" type="curve" smooth="yes"/>
      <point x="402.28915662650604" y="178.8313253012048"/>
      <point x="355.6144578313253" y="102.22891566265059"/>
    </contour>
  </outline>
</glyph>
<glyph name="r" format="2">
  <advance width="412.3614457831325"/>
  <unicode hex="0072"/>
  <anchor x="96.57831325301206" y="0.0" name="bottom"/>
  <anchor x="270.2048192771084" y="485.3734939759036" name="top"/>
  <outline>
    <contour>
      <point x="19.421686746987945" y="0.0" type="line"/>
      <point x="173.04819277108433" y="0.0" type="line"/>
      <point x="211.79518072289156" y="245.85542168674698" type="line" smooth="yes"/>
      <point x="223.5421686746988" y="322.21686746987956"/>
      <point x="253.7831325301205" y="359.63855421686753"/>
      <point x="333.7590361445783" y="367.01204819277115" type="curve" smooth="yes"/>
      <point x="429.7951807228916" y="376.578313253012" type="line"/>
      <point x="435.30120481927713" y="503.87951807228916" type="line"/>
      <point x="389.48192771084337" y="500.8795180722892" type="line" smooth="yes"/>
      <point x="300.73493975903614" y="495.1927710843374"/>
      <point x="239.79518072289156" y="445.87951807228916"/>
      <point x="216.10843373493975" y="371.0" type="curve"/>
      <point x="225.48192771084337" y="371.0" type="line"/>
      <point x="244.79518072289156" y="490.566265060241" type="line"/>
      <point x="97.42168674698794" y="490.566265060241" type="line"/>
    </contour>
  </outline>
</glyph>
<glyph name="s" format="2">
  <advance width="492.07228915662654"/>
  <unicode hex="0073"/>
  <anchor x="221.13253012048193" y="0.0" name="bottom"/>
  <anchor x="278.50602409638554" y="484.0" name="top"/>
  <outline>
    <contour>
      <point x="227.56626506024097" y="-10.626506024096384" type="curve" smooth="yes"/>
      <point x="359.8313253012048" y="-10.626506024096384"/>
      <point x="447.5903614457831" y="48.93975903614458"/>
      <point x="447.5903614457831" y="157.26506024096383" type="curve" smooth="yes"/>
      <point x="447.5903614457831" y="224.144578313253"/>
      <point x="403.9638554216868" y="269.0240963855421"/>
      <point x="318.01204819277115" y="285.08433734939763" type="curve" smooth="yes"/>
      <point x="227.57831325301206" y="301.89156626506025" type="line" smooth="yes"/>
      <point x="198.27710843373495" y="307.63855421686753"/>
      <point x="186.78313253012047" y="322.1927710843374"/>
      <point x="186.78313253012047" y="341.49397590361446" type="curve" smooth="yes"/>
      <point x="186.78313253012047" y="374.6024096385542"/>
      <point x="217.14457831325302" y="397.5301204819277"/>
      <point x="277.13253012048193" y="397.5301204819277" type="curve" smooth="yes"/>
      <point x="327.62650602409644" y="397.5301204819277"/>
      <point x="381.1927710843373" y="382.7831325301205"/>
      <point x="425.0722891566265" y="351.66265060240966" type="curve"/>
      <point x="467.08433734939763" y="446.69879518072287" type="line"/>
      <point x="419.0120481927711" y="483.07228915662654"/>
      <point x="347.13253012048193" y="501.1927710843374"/>
      <point x="284.69879518072287" y="501.1927710843374" type="curve" smooth="yes"/>
      <point x="132.73493975903614" y="501.1927710843374"/>
      <point x="52.16867469879518" y="423.18072289156623"/>
      <point x="52.16867469879518" y="332.6144578313253" type="curve" smooth="yes"/>
      <point x="52.16867469879518" y="265.7349397590362"/>
      <point x="96.73493975903615" y="218.4819277108434"/>
      <point x="175.12048192771087" y="205.10843373493978" type="curve" smooth="yes"/>
      <point x="265.55421686746985" y="188.30120481927713" type="line" smooth="yes"/>
      <point x="298.4216867469879" y="181.55421686746988"/>
      <point x="312.9759036144578" y="169.0"/>
      <point x="312.9759036144578" y="146.3855421686747" type="curve" smooth="yes"/>
      <point x="312.9759036144578" y="114.90361445783132"/>
      <point x="284.6144578313253" y="93.03614457831324"/>
      <point x="226.93975903614458" y="93.03614457831324" type="curve" smooth="yes"/>
      <point x="168.87951807228916" y="93.03614457831324"/>
      <point x="103.43373493975903" y="111.97590361445783"/>
      <point x="55.12048192771084" y="144.40963855421685" type="curve"/>
      <point x="11.108433734939762" y="47.433734939759034" type="line"/>
      <point x="63.2409638554217" y="9.433734939759038"/>
      <point x="142.3734939759036" y="-10.626506024096384"/>
    </contour>
  </outline>
</glyph>
<glyph name="t" format="2">
  <advance width="404.36144578313247"/>
  <unicode hex="0074"/>
  <anchor x="208.77108433734938" y="0.0" name="bottom"/>
  <anchor x="190.14457831325302" y="257.2409638554217" name="center"/>
  <anchor x="229.33734939759034" y="635.0" name="top"/>
  <anchor x="364.0361445783132" y="705.0" name="topright"/>
  <outline>
    <contour>
      <point x="269.5903614457831" y="-10.626506024096384" type="curve" smooth="yes"/>
      <point x="303.4698795180723" y="-10.626506024096384"/>
      <point x="342.722891566265" y="-3.6265060240963853"/>
      <point x="367.85542168674704" y="9.000000000000002" type="curve"/>
      <point x="361.48192771084337" y="121.48192771084337" type="line"/>
      <point x="342.5421686746988" y="115.48192771084337"/>
      <point x="325.16867469879514" y="112.10843373493975"/>
      <point x="307.04819277108436" y="112.10843373493975" type="curve" smooth="yes"/>
      <point x="254.74698795180723" y="112.10843373493975"/>
      <point x="226.0" y="136.97590361445782"/>
      <point x="235.74698795180723" y="198.77108433734938" type="curve" smooth="yes"/>
      <point x="264.67469879518075" y="378.3975903614458" type="line"/>
      <point x="409.5421686746988" y="378.3975903614458" type="line"/>
      <point x="427.67469879518075" y="490.566265060241" type="line"/>
      <point x="282.49397590361446" y="490.566265060241" type="line"/>
      <point x="305.1807228915663" y="635.0" type="line"/>
      <point x="154.18072289156626" y="635.0" type="line"/>
      <point x="131.49397590361446" y="490.566265060241" type="line"/>
      <point x="38.433734939759034" y="490.566265060241" type="line"/>
      <point x="20.6144578313253" y="378.3975903614458" type="line"/>
      <point x="113.67469879518073" y="378.3975903614458" type="line"/>
      <point x="83.74698795180723" y="191.08433734939757" type="line" smooth="yes"/>
      <point x="64.80722891566265" y="72.69879518072288"/>
      <point x="128.25301204819277" y="-10.626506024096384"/>
    </contour>
  </outline>
</glyph>
<glyph name="u" format="2">
  <advance width="589.6506024096386"/>
  <unicode hex="0075"/>
  <anchor x="255.32530120481925" y="0.0" name="bottom"/>
  <anchor x="444.6385542168675" y="0.0" name="ogonek"/>
  <anchor x="329.6385542168675" y="484.68674698795184" name="top"/>
  <anchor x="455.68674698795184" y="484.0" name="topright"/>
  <outline>
    <contour>
      <point x="194.36144578313252" y="-10.626506024096384" type="curve" smooth="yes"/>
      <point x="271.2289156626506" y="-10.626506024096384"/>
      <point x="333.6626506024096" y="26.554216867469886"/>
      <point x="366.9759036144578" y="92.42168674698794" type="curve"/>
      <point x="358.9156626506024" y="92.42168674698794" type="line"/>
      <point x="344.855421686747" y="0.0" type="line"/>
      <point x="492.2289156626506" y="0.0" type="line"/>
      <point x="569.5421686746988" y="490.566265060241" type="line"/>
      <point x="418.54216867469876" y="490.566265060241" type="line"/>
      <point x="377.5421686746988" y="228.87951807228916" type="line" smooth="yes"/>
      <point x="365.79518072289153" y="152.96385542168673"/>
      <point x="322.7469879518072" y="106.85542168674698"/>
      <point x="259.71084337349396" y="106.85542168674698" type="curve" smooth="yes"/>
      <point x="208.5421686746988" y="106.85542168674698"/>
      <point x="189.9277108433735" y="138.46987951807228"/>
      <point x="200.04819277108433" y="201.13253012048193" type="curve" smooth="yes"/>
      <point x="245.73493975903614" y="490.566265060241" type="line"/>
      <point x="94.73493975903614" y="490.566265060241" type="line"/>
      <point x="48.73493975903614" y="199.19277108433732" type="line" smooth="yes"/>
      <point x="25.421686746987945" y="53.373493975903614"/>
      <point x="89.67469879518072" y="-10.626506024096384"/>
    </contour>
  </outline>
</glyph>
<glyph name="v" format="2">
  <advance width="534.2048192771084"/>
  <unicode hex="0076"/>
  <anchor x="229.75903614457835" y="0.0" name="bottom"/>
  <anchor x="305.7590361445783" y="484.0" name="top"/>
  <outline>
    <contour>
      <point x="163.42168674698797" y="0.0" type="line"/>
      <point x="291.21686746987956" y="0.0" type="line"/>
      <point x="585.0361445783133" y="490.566265060241" type="line"/>
      <point x="429.34939759036143" y="490.566265060241" type="line"/>
      <point x="230.57831325301206" y="139.4457831325301" type="line"/>
      <point x="262.45783132530124" y="139.4457831325301" type="line"/>
      <point x="179.9156626506024" y="490.566265060241" type="line"/>
      <point x="27.85542168674699" y="490.566265060241" type="line"/>
    </contour>
  </outline>
</glyph>
<glyph name="w" format="2">
  <advance width="860.5180722891566"/>
  <unicode hex="0077"/>
  <anchor x="390.13253012048193" y="0.0" name="bottom"/>
  <anchor x="456.2530120481928" y="484.0" name="top"/>
  <outline>
    <contour>
      <point x="157.55421686746988" y="0.0" type="line"/>
      <point x="284.34939759036143" y="0.0" type="line"/>
      <point x="479.1927710843373" y="363.7469879518072" type="line"/>
      <point x="414.04819277108436" y="363.7469879518072" type="line"/>
      <point x="498.16867469879526" y="0.0" type="line"/>
      <point x="625.6506024096385" y="0.0" type="line"/>
      <point x="902.5421686746988" y="490.566265060241" type="line"/>
      <point x="749.1686746987953" y="490.566265060241" type="line"/>
      <point x="566.6385542168675" y="145.63855421686745" type="line"/>
      <point x="585.0722891566265" y="145.63855421686745" type="line"/>
      <point x="512.4578313253012" y="490.566265060241" type="line"/>
      <point x="412.8674698795181" y="490.566265060241" type="line"/>
      <point x="229.27710843373495" y="145.63855421686745" type="line"/>
      <point x="253.96385542168676" y="145.63855421686745" type="line"/>
      <point x="180.0963855421687" y="490.566265060241" type="line"/>
      <point x="35.66265060240964" y="490.566265060241" type="line"/>
    </contour>
  </outline>
</glyph>
<glyph name="x" format="2">
  <advance width="558.8433734939758"/>
  <unicode hex="0078"/>
  <anchor x="239.63855421686748" y="0.0" name="bottom"/>
  <anchor x="315.6385542168675" y="484.0" name="top"/>
  <outline>
    <contour>
      <point x="-52.024096385542165" y="0.0" type="line"/>
      <point x="126.73493975903614" y="0.0" type="line"/>
      <point x="298.3975903614458" y="180.34939759036143" type="line"/>
      <point x="249.6265060240964" y="181.03614457831324" type="line"/>
      <point x="365.4216867469879" y="0.0" type="line"/>
      <point x="534.8674698795181" y="0.0" type="line"/>
      <point x="343.9156626506024" y="286.5783132530121" type="line"/>
      <point x="342.9759036144578" y="218.9879518072289" type="line"/>
      <point x="599.2409638554217" y="490.566265060241" type="line"/>
      <point x="420.48192771084337" y="490.566265060241" type="line"/>
      <point x="271.3855421686747" y="322.2168674698795" type="line"/>
      <point x="312.90361445783134" y="322.2168674698795" type="line"/>
      <point x="208.73493975903614" y="490.566265060241" type="line"/>
      <point x="39.28915662650603" y="490.566265060241" type="line"/>
      <point x="218.3012048192771" y="218.6144578313253" type="line"/>
      <point x="218.9879518072289" y="280.38554216867476" type="line"/>
    </contour>
  </outline>
</glyph>
<glyph name="y" format="2">
  <advance width="533.2048192771085"/>
  <unicode hex="0079"/>
  <anchor x="383.2168674698795" y="0.0" name="bottom"/>
  <anchor x="290.1927710843373" y="484.0" name="top"/>
  <outline>
    <contour>
      <point x="28.21686746987953" y="-180.0" type="line"/>
      <point x="181.90361445783134" y="-180.0" type="line"/>
      <point x="585.3493975903614" y="490.566265060241" type="line"/>
      <point x="428.97590361445776" y="490.566265060241" type="line"/>
      <point x="229.20481927710844" y="138.7590361445783" type="line"/>
      <point x="261.7710843373494" y="138.7590361445783" type="line"/>
      <point x="178.5421686746988" y="490.566265060241" type="line"/>
      <point x="27.168674698795186" y="490.566265060241" type="line"/>
      <point x="164.42168674698797" y="-4.80722891566265" type="line"/>
      <point x="173.67469879518075" y="56.59036144578313" type="line"/>
    </contour>
  </outline>
</glyph>
<glyph name="z" format="2">
  <advance width="480.26506024096386"/>
  <unicode hex="007A"/>
  <anchor x="214.25301204819277" y="0.0" name="bottom"/>
  <anchor x="280.50602409638554" y="484.0" name="top"/>
  <outline>
    <contour>
      <point x="7.240963855421683" y="0.0" type="line"/>
      <point x="417.144578313253" y="0.0" type="line"/>
      <point x="434.65060240963857" y="112.16867469879517" type="line"/>
      <point x="153.67469879518072" y="112.16867469879517" type="line"/>
      <point x="157.9879518072289" y="72.90361445783131" type="line"/>
      <point x="468.9518072289157" y="394.277108433735" type="line"/>
      <point x="484.45783132530124" y="490.566265060241" type="line"/>
      <point x="84.55421686746988" y="490.566265060241" type="line"/>
      <point x="66.73493975903615" y="378.3975903614458" type="line"/>
      <point x="332.3975903614458" y="378.3975903614458" type="line"/>
      <point x="327.77108433734946" y="413.4096385542169" type="line"/>
      <point x="22.746987951807224" y="96.97590361445783" type="line"/>
    </contour>
  </outline>
</glyph>
<glyph name="braceleft" format="2">
  <advance width="413.86746987951807"/>
  <unicode hex="007B"/>
  <outline>
    <contour>
      <point x="231.96385542168676" y="-180.0" type="curve" smooth="yes"/>
      <point x="331.0481927710843" y="-180.0" type="line"/>
      <point x="348.86746987951807" y="-67.83132530120483" type="line"/>
      <point x="282.99999999999994" y="-67.83132530120483" type="line" smooth="yes"/>
      <point x="256.93975903614455" y="-67.83132530120483"/>
      <point x="244.3132530120482" y="-58.397590361445786"/>
      <point x="249.6265060240964" y="-24.771084337349407" type="curve" smooth="yes"/>
      <point x="276.1807228915663" y="144.9879518072289" type="line" smooth="yes"/>
      <point x="287.1807228915663" y="216.9879518072289"/>
      <point x="240.9277108433735" y="265.99999999999994"/>
      <point x="196.67469879518072" y="265.99999999999994" type="curve"/>
      <point x="197.67469879518072" y="261.99999999999994" type="line"/>
      <point x="241.9277108433735" y="261.99999999999994"/>
      <point x="302.7469879518072" y="306.3855421686747"/>
      <point x="313.7469879518072" y="379.3855421686747" type="curve" smooth="yes"/>
      <point x="340.3012048192771" y="549.7710843373494" type="line" smooth="yes"/>
      <point x="345.3012048192771" y="583.3975903614457"/>
      <point x="364.6144578313253" y="592.8313253012047"/>
      <point x="389.6746987951807" y="592.8313253012047" type="curve" smooth="yes"/>
      <point x="453.2289156626506" y="592.8313253012047" type="line"/>
      <point x="472.04819277108436" y="705.0" type="line"/>
      <point x="334.89156626506025" y="705.0" type="line" smooth="yes"/>
      <point x="258.1927710843373" y="705.0"/>
      <point x="207.49397590361446" y="663.1807228915662"/>
      <point x="193.24096385542168" y="572.4096385542169" type="curve" smooth="yes"/>
      <point x="165.3734939759036" y="396.8313253012048" type="line" smooth="yes"/>
      <point x="157.3734939759036" y="345.4578313253012"/>
      <point x="139.0" y="325.3975903614458"/>
      <point x="93.50602409638554" y="321.08433734939763" type="curve" smooth="yes"/>
      <point x="51.80722891566264" y="316.45783132530124" type="line"/>
      <point x="34.98795180722892" y="207.91566265060243" type="line"/>
      <point x="76.3132530120482" y="203.28915662650604" type="line" smooth="yes"/>
      <point x="122.49397590361446" y="198.97590361445782"/>
      <point x="130.55421686746988" y="178.9156626506024"/>
      <point x="122.55421686746988" y="126.54216867469881" type="curve" smooth="yes"/>
      <point x="94.6867469879518" y="-47.40963855421687" type="line" smooth="yes"/>
      <point x="82.74698795180723" y="-123.42168674698794"/>
      <point x="130.0722891566265" y="-180.0"/>
    </contour>
  </outline>
</glyph>
<glyph name="braceright" format="2">
  <advance width="413.86746987951807"/>
  <unicode hex="007D"/>
  <outline>
    <contour>
      <point x="-52.493975903614455" y="-180.0" type="line"/>
      <point x="84.66265060240961" y="-180.0" type="line" smooth="yes"/>
      <point x="161.36144578313252" y="-180.0"/>
      <point x="212.0602409638554" y="-138.18072289156626"/>
      <point x="226.31325301204816" y="-47.40963855421687" type="curve" smooth="yes"/>
      <point x="254.18072289156623" y="128.1686746987952" type="line" smooth="yes"/>
      <point x="262.18072289156623" y="179.54216867469881"/>
      <point x="280.5542168674699" y="200.28915662650604"/>
      <point x="326.0481927710843" y="204.60240963855424" type="curve" smooth="yes"/>
      <point x="367.7469879518072" y="208.54216867469881" type="line"/>
      <point x="384.56626506024094" y="317.7710843373494" type="line"/>
      <point x="343.2409638554217" y="321.710843373494" type="line" smooth="yes"/>
      <point x="297.06024096385545" y="326.0240963855421"/>
      <point x="288.99999999999994" y="346.7710843373494"/>
      <point x="296.99999999999994" y="398.4578313253012" type="curve" smooth="yes"/>
      <point x="324.867469879518" y="572.4096385542169" type="line" smooth="yes"/>
      <point x="336.8072289156626" y="648.4216867469878"/>
      <point x="289.4819277108433" y="705.0"/>
      <point x="187.59036144578312" y="705.0" type="curve" smooth="yes"/>
      <point x="87.50602409638554" y="705.0" type="line"/>
      <point x="69.68674698795182" y="592.8313253012047" type="line"/>
      <point x="136.55421686746988" y="592.8313253012047" type="line" smooth="yes"/>
      <point x="162.6144578313253" y="592.8313253012047"/>
      <point x="175.24096385542168" y="583.3975903614457"/>
      <point x="169.9277108433735" y="549.7710843373494" type="curve" smooth="yes"/>
      <point x="143.3734939759036" y="380.69879518072287" type="line" smooth="yes"/>
      <point x="132.3734939759036" y="308.0120481927711"/>
      <point x="178.6265060240964" y="259.6867469879518"/>
      <point x="222.87951807228916" y="259.6867469879518" type="curve"/>
      <point x="221.87951807228916" y="263.6867469879518" type="line"/>
      <point x="177.6265060240964" y="263.6867469879518"/>
      <point x="116.80722891566265" y="218.6144578313253"/>
      <point x="105.80722891566265" y="145.6144578313253" type="curve" smooth="yes"/>
      <point x="79.25301204819276" y="-24.771084337349407" type="line" smooth="yes"/>
      <point x="74.25301204819276" y="-58.397590361445786"/>
      <point x="54.93975903614457" y="-67.83132530120483"/>
      <point x="29.879518072289155" y="-67.83132530120483" type="curve" smooth="yes"/>
      <point x="-34.36144578313253" y="-67.83132530120483" type="line"/>
    </contour>
  </outline>
</glyph>
<glyph name="asciitilde" format="2">
  <advance width="600.0"/>
  <unicode hex="007E"/>
  <outline>
    <contour>
      <point x="415.8072289156627" y="203.9879518072289" type="curve" smooth="yes"/>
      <point x="475.8072289156627" y="203.9879518072289"/>
      <point x="521.6265060240963" y="244.18072289156626"/>
      <point x="554.6867469879518" y="310.3734939759036" type="curve"/>
      <point x="484.9156626506024" y="361.89156626506025" type="line"/>
      <point x="462.91566265060237" y="321.95180722891564"/>
      <point x="438.16867469879514" y="302.0843373493976"/>
      <point x="404.9277108433735" y="302.0843373493976" type="curve" smooth="yes"/>
      <point x="381.12048192771084" y="302.0843373493976"/>
      <point x="353.7469879518072" y="316.144578313253"/>
      <point x="321.68674698795184" y="331.578313253012" type="curve" smooth="yes"/>
      <point x="283.6867469879518" y="349.95180722891564"/>
      <point x="239.3132530120482" y="370.69879518072287"/>
      <point x="196.25301204819277" y="370.69879518072287" type="curve" smooth="yes"/>
      <point x="136.25301204819277" y="370.69879518072287"/>
      <point x="91.06024096385542" y="330.8192771084337"/>
      <point x="59.0" y="263.31325301204816" type="curve"/>
      <point x="128.77108433734938" y="212.7951807228916" type="line"/>
      <point x="149.144578313253" y="251.73493975903614"/>
      <point x="173.2048192771084" y="272.91566265060237"/>
      <point x="207.13253012048193" y="272.91566265060237" type="curve" smooth="yes"/>
      <point x="230.93975903614458" y="272.91566265060237"/>
      <point x="259.3132530120482" y="258.85542168674704"/>
      <point x="292.3734939759036" y="242.42168674698797" type="curve" smooth="yes"/>
      <point x="329.3734939759036" y="224.04819277108436"/>
      <point x="373.06024096385545" y="203.9879518072289"/>
    </contour>
  </outline>
</glyph>
<glyph name="exclamdown" format="2">
  <advance width="259.5903614457831"/>
  <unicode hex="00A1"/>
  <outline>
    <contour>
      <point x="-31.024096385542165" y="-180.0" type="line"/>
      <point x="155.3012048192771" y="-180.0" type="line"/>
      <point x="177.96385542168676" y="262.5903614457831" type="line"/>
      <point x="86.6144578313253" y="262.5903614457831" type="line"/>
    </contour>
    <contour>
      <point x="62.2289156626506" y="330.9518072289157" type="line"/>
      <point x="224.46987951807228" y="330.9518072289157" type="line"/>
      <point x="249.9156626506024" y="490.566265060241" type="line"/>
      <point x="87.67469879518072" y="490.566265060241" type="line"/>
    </contour>
  </outline>
</glyph>
<glyph name="cent" format="2">
  <advance width="600.0"/>
  <unicode hex="00A2"/>
  <outline>
    <contour>
      <point x="197.855421686747" y="-115.0" type="line"/>
      <point x="316.65060240963857" y="-115.0" type="line"/>
      <point x="338.27710843373495" y="22.44578313253012" type="line"/>
      <point x="309.5783132530121" y="-2.3734939759036147" type="line"/>
      <point x="373.0240963855422" y="-7.060240963855422"/>
      <point x="458.5903614457831" y="13.566265060240964"/>
      <point x="495.77108433734935" y="45.807228915662655" type="curve"/>
      <point x="463.6385542168675" y="151.72289156626508" type="line"/>
      <point x="429.5180722891567" y="125.85542168674698"/>
      <point x="387.3975903614458" y="111.79518072289156"/>
      <point x="347.33734939759034" y="111.79518072289156" type="curve" smooth="yes"/>
      <point x="263.48192771084337" y="111.79518072289156"/>
      <point x="231.3012048192771" y="157.4698795180723"/>
      <point x="231.3012048192771" y="217.75903614457832" type="curve" smooth="yes"/>
      <point x="231.3012048192771" y="295.10843373493975"/>
      <point x="269.6024096385542" y="381.0843373493976"/>
      <point x="376.89156626506025" y="381.0843373493976" type="curve" smooth="yes"/>
      <point x="425.38554216867465" y="381.0843373493976"/>
      <point x="469.38554216867476" y="365.71084337349396"/>
      <point x="498.50602409638554" y="340.1566265060241" type="curve"/>
      <point x="541.8313253012047" y="444.38554216867476" type="line"/>
      <point x="505.5783132530121" y="473.50602409638554"/>
      <point x="448.5783132530121" y="493.2530120481928"/>
      <point x="387.26506024096386" y="494.9397590361446" type="curve"/>
      <point x="408.3373493975904" y="465.06024096385545" type="line"/>
      <point x="431.65060240963857" y="610.2530120481928" type="line"/>
      <point x="312.855421686747" y="610.2530120481928" type="line"/>
      <point x="288.2289156626506" y="455.86746987951807" type="line"/>
      <point x="320.6144578313253" y="492.62650602409644" type="line"/>
      <point x="153.8674698795181" y="474.12048192771084"/>
      <point x="76.67469879518073" y="346.87951807228916"/>
      <point x="76.67469879518073" y="216.13253012048193" type="curve" smooth="yes"/>
      <point x="76.67469879518073" y="110.07228915662651"/>
      <point x="130.92771084337352" y="30.072289156626503"/>
      <point x="242.24096385542168" y="5.879518072289155" type="curve"/>
      <point x="220.7951807228916" y="30.325301204819276" type="line"/>
    </contour>
  </outline>
</glyph>
<glyph name="sterling" format="2">
  <advance width="600.0"/>
  <unicode hex="00A3"/>
  <outline>
    <contour>
      <point x="3.1807228915662695" y="0.0" type="line"/>
      <point x="527.698795180723" y="0.0" type="line"/>
      <point x="547.8313253012049" y="125.36144578313252" type="line"/>
      <point x="252.42168674698797" y="125.36144578313252" type="line"/>
      <point x="281.34939759036143" y="304.9879518072289" type="line"/>
      <point x="438.8915662650602" y="304.9879518072289" type="line"/>
      <point x="454.4578313253012" y="402.3855421686747" type="line"/>
      <point x="296.9156626506024" y="402.3855421686747" type="line"/>
      <point x="311.34939759036143" y="495.10843373493975" type="line" smooth="yes"/>
      <point x="321.09638554216866" y="557.3373493975904"/>
      <point x="359.144578313253" y="593.2048192771085"/>
      <point x="430.8795180722892" y="593.2048192771085" type="curve" smooth="yes"/>
      <point x="480.30120481927713" y="593.2048192771085"/>
      <point x="528.3614457831326" y="577.3975903614459"/>
      <point x="575.2409638554217" y="535.2168674698795" type="curve"/>
      <point x="637.3253012048192" y="640.5060240963855" type="line"/>
      <point x="588.1927710843373" y="682.9397590361444"/>
      <point x="508.75903614457843" y="715.6265060240964"/>
      <point x="422.3734939759036" y="715.6265060240964" type="curve" smooth="yes"/>
      <point x="262.48192771084337" y="715.6265060240964"/>
      <point x="178.7831325301205" y="640.4337349397591"/>
      <point x="155.4698795180723" y="489.16867469879514" type="curve" smooth="yes"/>
      <point x="141.66265060240966" y="402.3855421686747" type="line"/>
      <point x="66.12048192771086" y="402.3855421686747" type="line"/>
      <point x="50.55421686746989" y="304.9879518072289" type="line"/>
      <point x="126.09638554216869" y="304.9879518072289" type="line"/>
      <point x="97.16867469879519" y="125.36144578313252" type="line"/>
      <point x="22.626506024096386" y="125.36144578313252" type="line"/>
    </contour>
  </outline>
</glyph>
<glyph name="currency" format="2">
  <advance width="600.0"/>
  <unicode hex="00A4"/>
  <outline>
    <contour>
      <point x="85.19277108433735" y="-32.19277108433735" type="line"/>
      <point x="157.87951807228916" y="42.49397590361446" type="line"/>
      <point x="197.56626506024097" y="14.06024096385542"/>
      <point x="246.3132530120482" y="-3.0"/>
      <point x="299.06024096385545" y="-3.0" type="curve" smooth="yes"/>
      <point x="352.433734939759" y="-3.0"/>
      <point x="401.49397590361446" y="14.060240963855422"/>
      <point x="441.49397590361446" y="44.12048192771085" type="curve"/>
      <point x="514.4939759036145" y="-30.87951807228916" type="line"/>
      <point x="570.1927710843373" y="24.19277108433735" type="line"/>
      <point x="495.87951807228916" y="99.81927710843372" type="line"/>
      <point x="524.3132530120482" y="141.19277108433735"/>
      <point x="540.6867469879519" y="191.25301204819277"/>
      <point x="540.6867469879519" y="245.0" type="curve" smooth="yes"/>
      <point x="540.6867469879519" y="298.433734939759"/>
      <point x="525.6265060240964" y="347.18072289156623"/>
      <point x="497.1927710843373" y="388.55421686746985" type="curve"/>
      <point x="571.8192771084337" y="464.18072289156623" type="line"/>
      <point x="511.8674698795181" y="524.8192771084338" type="line"/>
      <point x="438.2409638554217" y="448.50602409638554" type="line"/>
      <point x="398.86746987951807" y="476.9397590361446"/>
      <point x="350.8072289156627" y="493.0"/>
      <point x="299.06024096385545" y="493.0" type="curve" smooth="yes"/>
      <point x="247.6265060240964" y="493.0"/>
      <point x="198.87951807228916" y="475.9397590361446"/>
      <point x="159.19277108433735" y="447.81927710843377" type="curve"/>
      <point x="85.50602409638554" y="522.5060240963855" type="line"/>
      <point x="29.493975903614462" y="466.49397590361446" type="line"/>
      <point x="102.18072289156628" y="391.8072289156627" type="line"/>
      <point x="73.12048192771084" y="350.12048192771084"/>
      <point x="56.43373493975904" y="300.06024096385545"/>
      <point x="56.43373493975904" y="245.0" type="curve" smooth="yes"/>
      <point x="56.43373493975904" y="190.93975903614458"/>
      <point x="73.80722891566265" y="139.87951807228916"/>
      <point x="102.18072289156628" y="98.87951807228916" type="curve"/>
      <point x="29.493975903614462" y="24.19277108433735" type="line"/>
    </contour>
    <contour>
      <point x="299.3734939759036" y="115.85542168674698" type="curve" smooth="yes"/>
      <point x="230.144578313253" y="115.85542168674698"/>
      <point x="177.28915662650604" y="174.02409638554218"/>
      <point x="177.28915662650604" y="245.0" type="curve" smooth="yes"/>
      <point x="177.28915662650604" y="316.66265060240966"/>
      <point x="231.77108433734938" y="375.144578313253"/>
      <point x="299.3734939759036" y="374.8313253012048" type="curve" smooth="yes"/>
      <point x="365.66265060240966" y="374.51807228915663"/>
      <point x="420.4578313253012" y="316.66265060240966"/>
      <point x="420.4578313253012" y="245.0" type="curve" smooth="yes"/>
      <point x="420.4578313253012" y="174.02409638554218"/>
      <point x="365.66265060240966" y="115.85542168674698"/>
    </contour>
  </outline>
</glyph>
<glyph name="yen" format="2">
  <advance width="600.0"/>
  <unicode hex="00A5"/>
  <outline>
    <contour>
      <point x="183.2168674698795" y="0.0" type="line"/>
      <point x="338.4698795180723" y="0.0" type="line"/>
      <point x="362.53012048192767" y="153.98795180722894" type="line"/>
      <point x="519.566265060241" y="153.98795180722894" type="line"/>
      <point x="534.8192771084338" y="249.50602409638554" type="line"/>
      <point x="378.4698795180723" y="249.50602409638554" type="line"/>
      <point x="387.8433734939759" y="311.86746987951807" type="line"/>
      <point x="544.8795180722892" y="311.86746987951807" type="line"/>
      <point x="560.1325301204819" y="407.3855421686747" type="line"/>
      <point x="431.4096385542169" y="407.3855421686747" type="line"/>
      <point x="428.09638554216866" y="384.7590361445783" type="line"/>
      <point x="695.2650602409637" y="705.0" type="line"/>
      <point x="520.7590361445783" y="705.0" type="line"/>
      <point x="307.68674698795184" y="439.1686746987952" type="line"/>
      <point x="340.07228915662654" y="439.1686746987952" type="line"/>
      <point x="210.67469879518072" y="705.0" type="line"/>
      <point x="50.10843373493976" y="705.0" type="line"/>
      <point x="216.59036144578315" y="384.7590361445783" type="line"/>
      <point x="219.90361445783134" y="407.3855421686747" type="line"/>
      <point x="91.12048192771084" y="407.3855421686747" type="line"/>
      <point x="75.86746987951807" y="311.86746987951807" type="line"/>
      <point x="232.59036144578312" y="311.86746987951807" type="line"/>
      <point x="223.2168674698795" y="249.50602409638554" type="line"/>
      <point x="65.80722891566265" y="249.50602409638554" type="line"/>
      <point x="50.554216867469876" y="153.98795180722894" type="line"/>
      <point x="207.27710843373492" y="153.98795180722894" type="line"/>
    </contour>
  </outline>
</glyph>
<glyph name="brokenbar" format="2">
  <advance width="302.4698795180723"/>
  <unicode hex="00A6"/>
  <outline>
    <contour>
      <point x="95.73493975903614" y="371.68674698795184" type="line"/>
      <point x="246.73493975903614" y="371.68674698795184" type="line"/>
      <point x="299.73493975903614" y="705.0" type="line"/>
      <point x="148.73493975903614" y="705.0" type="line"/>
    </contour>
    <contour>
      <point x="8.734939759036138" y="-180.0" type="line"/>
      <point x="159.73493975903614" y="-180.0" type="line"/>
      <point x="212.73493975903614" y="154.0" type="line"/>
      <point x="61.73493975903614" y="154.0" type="line"/>
    </contour>
  </outline>
</glyph>
<glyph name="section" format="2">
  <advance width="583.722891566265"/>
  <unicode hex="00A7"/>
  <outline>
    <contour>
      <point x="232.96385542168676" y="-190.6265060240964" type="curve" smooth="yes"/>
      <point x="364.03614457831327" y="-190.6265060240964"/>
      <point x="472.855421686747" y="-119.56626506024097"/>
      <point x="472.855421686747" y="10.75903614457831" type="curve" smooth="yes"/>
      <point x="472.855421686747" y="41.01204819277108"/>
      <point x="465.2289156626506" y="66.26506024096386"/>
      <point x="450.66265060240966" y="89.51807228915663" type="curve"/>
      <point x="447.03614457831327" y="68.01204819277109" type="line"/>
      <point x="512.1686746987951" y="106.63855421686748"/>
      <point x="548.7349397590361" y="160.01204819277106"/>
      <point x="548.7349397590361" y="232.33734939759034" type="curve" smooth="yes"/>
      <point x="548.7349397590361" y="293.65060240963857"/>
      <point x="511.3614457831325" y="346.59036144578306"/>
      <point x="437.61445783132535" y="387.710843373494" type="curve" smooth="yes"/>
      <point x="316.8433734939759" y="453.8433734939759" type="line" smooth="yes"/>
      <point x="276.48192771084337" y="476.0843373493976"/>
      <point x="261.0481927710843" y="496.8915662650603"/>
      <point x="261.0481927710843" y="531.6265060240964" type="curve" smooth="yes"/>
      <point x="261.0481927710843" y="581.1084337349398"/>
      <point x="300.4096385542168" y="611.9638554216867"/>
      <point x="360.75903614457826" y="611.9638554216867" type="curve" smooth="yes"/>
      <point x="413.87951807228916" y="611.9638554216867"/>
      <point x="479.50602409638554" y="589.9638554216867"/>
      <point x="525.6385542168674" y="557.5301204819277" type="curve"/>
      <point x="567.6506024096385" y="652.566265060241" type="line"/>
      <point x="506.9518072289157" y="695.6265060240964"/>
      <point x="432.44578313253015" y="715.6265060240964"/>
      <point x="357.44578313253015" y="715.6265060240964" type="curve" smooth="yes"/>
      <point x="226.3734939759036" y="715.6265060240964"/>
      <point x="117.2409638554217" y="643.2530120481927"/>
      <point x="117.2409638554217" y="516.2409638554217" type="curve" smooth="yes"/>
      <point x="117.2409638554217" y="485.9879518072289"/>
      <point x="123.86746987951807" y="461.7349397590361"/>
      <point x="135.80722891566268" y="440.10843373493975" type="curve"/>
      <point x="140.43373493975903" y="454.0481927710843" type="line"/>
      <point x="75.3012048192771" y="415.73493975903614"/>
      <point x="41.36144578313253" y="364.6746987951807"/>
      <point x="41.36144578313253" y="291.3493975903615" type="curve" smooth="yes"/>
      <point x="41.36144578313253" y="230.72289156626508"/>
      <point x="78.73493975903615" y="175.78313253012047"/>
      <point x="151.10843373493978" y="135.66265060240966" type="curve" smooth="yes"/>
      <point x="273.2530120481928" y="69.46987951807229" type="line" smooth="yes"/>
      <point x="312.9277108433735" y="47.2289156626506"/>
      <point x="329.0481927710843" y="27.795180722891573"/>
      <point x="329.0481927710843" y="-7.6265060240963845" type="curve" smooth="yes"/>
      <point x="329.0481927710843" y="-56.108433734939766"/>
      <point x="288.68674698795184" y="-86.96385542168674"/>
      <point x="228.02409638554218" y="-86.96385542168674" type="curve" smooth="yes"/>
      <point x="166.15662650602405" y="-86.96385542168674"/>
      <point x="95.71084337349394" y="-62.71084337349397"/>
      <point x="50.4578313253012" y="-26.65060240963856" type="curve"/>
      <point x="1.5060240963855414" y="-123.0" type="line"/>
      <point x="68.4578313253012" y="-167.6265060240964"/>
      <point x="149.21686746987947" y="-190.6265060240964"/>
    </contour>
    <contour>
      <point x="174.289156626506" y="318.6746987951807" type="curve" smooth="yes"/>
      <point x="174.289156626506" y="342.16867469879514"/>
      <point x="182.7831325301205" y="370.0361445783132"/>
      <point x="206.33734939759037" y="396.0963855421687" type="curve"/>
      <point x="187.83132530120483" y="389.21686746987956" type="line"/>
      <point x="199.95180722891567" y="374.60240963855426"/>
      <point x="217.19277108433732" y="362.3614457831325"/>
      <point x="238.55421686746988" y="349.1204819277108" type="curve" smooth="yes"/>
      <point x="349.26506024096386" y="290.67469879518075" type="line" smooth="yes"/>
      <point x="391.6265060240964" y="266.0602409638554"/>
      <point x="415.8072289156627" y="239.25301204819277"/>
      <point x="415.8072289156627" y="205.69879518072287" type="curve" smooth="yes"/>
      <point x="415.8072289156627" y="183.5180722891566"/>
      <point x="406.6265060240964" y="157.27710843373492"/>
      <point x="386.3855421686747" y="133.8433734939759" type="curve"/>
      <point x="402.2650602409638" y="135.09638554216866" type="line"/>
      <point x="389.8313253012048" y="149.710843373494"/>
      <point x="373.27710843373495" y="161.26506024096383"/>
      <point x="351.2289156626506" y="174.50602409638554" type="curve" smooth="yes"/>
      <point x="239.45783132530119" y="233.69879518072287" type="line" smooth="yes"/>
      <point x="197.78313253012047" y="257.6265060240964"/>
      <point x="174.289156626506" y="285.12048192771084"/>
    </contour>
  </outline>
</glyph>
<glyph name="copyright" format="2">
  <advance width="815.0"/>
  <unicode hex="00A9"/>
  <outline>
    <contour>
      <point x="425.0" y="-10.626506024096384" type="curve" smooth="yes"/>
      <point x="630.3132530120481" y="-10.626506024096384"/>
      <point x="787.6265060240964" y="147.6867469879518"/>
      <point x="787.6265060240964" y="353.0" type="curve" smooth="yes"/>
      <point x="787.6265060240964" y="558.3132530120481"/>
      <point x="630.3132530120481" y="715.6265060240964"/>
      <point x="425.0" y="715.6265060240964" type="curve" smooth="yes"/>
      <point x="218.6867469879518" y="715.6265060240964"/>
      <point x="61.373493975903614" y="558.3132530120481"/>
      <point x="61.373493975903614" y="353.0" type="curve" smooth="yes"/>
      <point x="61.373493975903614" y="147.6867469879518"/>
      <point x="218.3734939759036" y="-10.626506024096384"/>
    </contour>
    <contour>
      <point x="445.50602409638554" y="137.0" type="curve" smooth="yes"/>
      <point x="497.8192771084337" y="137.0"/>
      <point x="556.7590361445783" y="154.74698795180723"/>
      <point x="590.7590361445783" y="183.18072289156626" type="curve"/>
      <point x="555.6867469879519" y="271.6506024096385" type="line"/>
      <point x="528.1927710843373" y="247.7831325301205"/>
      <point x="492.6987951807229" y="235.0963855421687"/>
      <point x="456.6385542168675" y="235.0963855421687" type="curve" smooth="yes"/>
      <point x="390.4698795180723" y="235.0963855421687"/>
      <point x="349.855421686747" y="279.144578313253"/>
      <point x="349.855421686747" y="353.3734939759036" type="curve" smooth="yes"/>
      <point x="349.855421686747" y="427.60240963855426"/>
      <point x="390.4698795180723" y="470.5903614457832"/>
      <point x="456.6385542168675" y="470.5903614457832" type="curve" smooth="yes"/>
      <point x="492.6987951807229" y="470.5903614457832"/>
      <point x="528.1927710843373" y="456.9036144578314"/>
      <point x="555.6867469879519" y="434.03614457831327" type="curve"/>
      <point x="590.7590361445783" y="522.5060240963855" type="line"/>
      <point x="556.7590361445783" y="550.9397590361446"/>
      <point x="498.50602409638554" y="568.0"/>
      <point x="445.50602409638554" y="568.0" type="curve" smooth="yes"/>
      <point x="310.0" y="568.0"/>
      <point x="223.49397590361446" y="486.68674698795184"/>
      <point x="223.49397590361446" y="353.3734939759036" type="curve" smooth="yes"/>
      <point x="223.49397590361446" y="220.74698795180723"/>
      <point x="310.0" y="137.0"/>
    </contour>
    <contour>
      <point x="425.0" y="47.69879518072289" type="curve" smooth="yes"/>
      <point x="250.87951807228916" y="47.69879518072289"/>
      <point x="123.32530120481927" y="179.50602409638554"/>
      <point x="123.32530120481927" y="353.0" type="curve" smooth="yes"/>
      <point x="123.32530120481927" y="526.4939759036145"/>
      <point x="250.87951807228916" y="657.3012048192771"/>
      <point x="425.0" y="657.3012048192771" type="curve" smooth="yes"/>
      <point x="598.8072289156626" y="657.3012048192771"/>
      <point x="725.6746987951808" y="526.4939759036145"/>
      <point x="725.6746987951808" y="353.0" type="curve" smooth="yes"/>
      <point x="725.6746987951808" y="179.50602409638554"/>
      <point x="598.8072289156626" y="47.69879518072289"/>
    </contour>
  </outline>
</glyph>
<glyph name="ordfeminine" format="2">
  <advance width="346.20481927710847"/>
  <unicode hex="00AA"/>
  <outline>
    <contour>
      <point x="163.12048192771084" y="406.12048192771084" type="curve" smooth="yes"/>
      <point x="203.86746987951807" y="406.12048192771084"/>
      <point x="237.24096385542168" y="426.49397590361446"/>
      <point x="260.86746987951807" y="468.06024096385545" type="curve"/>
      <point x="263.86746987951807" y="468.06024096385545" type="line"/>
      <point x="254.86746987951804" y="412.7469879518072" type="line"/>
      <point x="345.0240963855421" y="412.7469879518072" type="line"/>
      <point x="370.39759036144574" y="573.6746987951808" type="line" smooth="yes"/>
      <point x="382.71084337349396" y="652.6144578313252"/>
      <point x="343.2168674698795" y="715.6265060240964"/>
      <point x="240.3855421686747" y="715.6265060240964" type="curve" smooth="yes"/>
      <point x="188.81927710843374" y="715.6265060240964"/>
      <point x="132.6867469879518" y="705.2530120481928"/>
      <point x="101.43373493975903" y="683.566265060241" type="curve"/>
      <point x="121.6867469879518" y="619.7951807228916" type="line"/>
      <point x="156.3132530120482" y="639.1686746987953"/>
      <point x="192.19277108433735" y="645.2289156626506"/>
      <point x="227.87951807228916" y="645.2289156626506" type="curve" smooth="yes"/>
      <point x="267.0602409638554" y="645.2289156626506"/>
      <point x="284.98795180722885" y="628.7951807228915"/>
      <point x="279.61445783132524" y="596.4939759036145" type="curve" smooth="yes"/>
      <point x="268.61445783132524" y="527.8072289156627" type="line" smooth="yes"/>
      <point x="263.2409638554217" y="494.1927710843373"/>
      <point x="232.19277108433735" y="468.9518072289157"/>
      <point x="196.63855421686748" y="468.9518072289157" type="curve" smooth="yes"/>
      <point x="171.14457831325302" y="468.9518072289157"/>
      <point x="154.65060240963857" y="484.0722891566265"/>
      <point x="154.65060240963857" y="505.6265060240964" type="curve" smooth="yes"/>
      <point x="154.65060240963857" y="530.4939759036145"/>
      <point x="183.0843373493976" y="541.2409638554217"/>
      <point x="239.49397590361446" y="541.2409638554217" type="curve" smooth="yes"/>
      <point x="284.9879518072289" y="541.2409638554217" type="line"/>
      <point x="292.6144578313253" y="590.2530120481928" type="line"/>
      <point x="237.3734939759036" y="590.2530120481928" type="line" smooth="yes"/>
      <point x="122.68674698795182" y="590.2530120481928"/>
      <point x="59.55421686746988" y="561.3132530120482"/>
      <point x="59.55421686746988" y="499.68674698795184" type="curve" smooth="yes"/>
      <point x="59.55421686746988" y="449.68674698795184"/>
      <point x="104.18072289156628" y="406.12048192771084"/>
    </contour>
  </outline>
</glyph>
<glyph name="logicalnot" format="2">
  <advance width="600.0"/>
  <unicode hex="00AC"/>
  <outline>
    <contour>
      <point x="419.08433734939763" y="134.67469879518075" type="line"/>
      <point x="526.0602409638554" y="134.67469879518075" type="line"/>
      <point x="573.9397590361446" y="438.89156626506025" type="line"/>
      <point x="86.93975903614458" y="438.89156626506025" type="line"/>
      <point x="70.43373493975903" y="335.855421686747" type="line"/>
      <point x="451.45783132530124" y="335.855421686747" type="line"/>
    </contour>
  </outline>
</glyph>
<glyph name="registered" format="2">
  <advance width="815.0"/>
  <unicode hex="00AE"/>
  <outline>
    <contour>
      <point x="425.0" y="-10.626506024096384" type="curve" smooth="yes"/>
      <point x="630.3132530120481" y="-10.626506024096384"/>
      <point x="787.6265060240964" y="147.6867469879518"/>
      <point x="787.6265060240964" y="353.0" type="curve" smooth="yes"/>
      <point x="787.6265060240964" y="558.3132530120481"/>
      <point x="630.3132530120481" y="715.6265060240964"/>
      <point x="425.0" y="715.6265060240964" type="curve" smooth="yes"/>
      <point x="218.6867469879518" y="715.6265060240964"/>
      <point x="61.373493975903614" y="558.3132530120481"/>
      <point x="61.373493975903614" y="353.0" type="curve" smooth="yes"/>
      <point x="61.373493975903614" y="147.6867469879518"/>
      <point x="218.3734939759036" y="-10.626506024096384"/>
    </contour>
    <contour>
      <point x="425.0" y="47.69879518072289" type="curve" smooth="yes"/>
      <point x="250.87951807228916" y="47.69879518072289"/>
      <point x="123.32530120481927" y="179.50602409638554"/>
      <point x="123.32530120481927" y="353.0" type="curve" smooth="yes"/>
      <point x="123.32530120481927" y="526.4939759036145"/>
      <point x="250.87951807228916" y="657.3012048192771"/>
      <point x="425.0" y="657.3012048192771" type="curve" smooth="yes"/>
      <point x="598.8072289156626" y="657.3012048192771"/>
      <point x="725.6746987951808" y="526.4939759036145"/>
      <point x="725.6746987951808" y="353.0" type="curve" smooth="yes"/>
      <point x="725.6746987951808" y="179.50602409638554"/>
      <point x="598.8072289156626" y="47.69879518072289"/>
    </contour>
    <contour>
      <point x="263.421686746988" y="142.0" type="line"/>
      <point x="376.96385542168673" y="142.0" type="line"/>
      <point x="376.96385542168673" y="309.6746987951807" type="line"/>
      <point x="359.39759036144574" y="298.0481927710843" type="line"/>
      <point x="410.31325301204816" y="298.0481927710843" type="line" smooth="yes"/>
      <point x="433.2409638554217" y="298.0481927710843"/>
      <point x="450.10843373493975" y="290.6746987951807"/>
      <point x="458.2289156626506" y="264.18072289156623" type="curve" smooth="yes"/>
      <point x="492.21686746987956" y="142.0" type="line"/>
      <point x="607.132530120482" y="142.0" type="line"/>
      <point x="575.0843373493976" y="249.4819277108434" type="line" smooth="yes"/>
      <point x="559.0843373493976" y="313.433734939759"/>
      <point x="532.710843373494" y="331.06024096385545"/>
      <point x="487.8313253012048" y="331.06024096385545" type="curve"/>
      <point x="459.87951807228916" y="319.7469879518072" type="line"/>
      <point x="549.8192771084337" y="319.7469879518072"/>
      <point x="602.7590361445783" y="361.7469879518072"/>
      <point x="602.7590361445783" y="439.0602409638554" type="curve" smooth="yes"/>
      <point x="602.7590361445783" y="512.1204819277108"/>
      <point x="549.1927710843373" y="565.3132530120482"/>
      <point x="453.3132530120482" y="565.3132530120482" type="curve" smooth="yes"/>
      <point x="263.421686746988" y="565.3132530120482" type="line"/>
    </contour>
    <contour>
      <point x="375.6506024096385" y="381.0120481927711" type="line"/>
      <point x="375.6506024096385" y="482.6626506024096" type="line"/>
      <point x="437.49397590361446" y="482.6626506024096" type="line" smooth="yes"/>
      <point x="475.60240963855426" y="482.6626506024096"/>
      <point x="495.7831325301205" y="467.48192771084337"/>
      <point x="495.7831325301205" y="432.1807228915663" type="curve" smooth="yes"/>
      <point x="495.7831325301205" y="396.1927710843373"/>
      <point x="475.91566265060237" y="381.0120481927711"/>
      <point x="437.49397590361446" y="381.0120481927711" type="curve" smooth="yes"/>
    </contour>
  </outline>
</glyph>
<glyph name="plusminus" format="2">
  <advance width="600.0"/>
  <unicode hex="00B1"/>
  <outline>
    <contour>
      <point x="230.7951807228916" y="145.89156626506022" type="line"/>
      <point x="337.77108433734935" y="145.89156626506022" type="line"/>
      <point x="360.2048192771084" y="286.9277108433735" type="line"/>
      <point x="551.0602409638553" y="286.9277108433735" type="line"/>
      <point x="567.566265060241" y="390.5903614457831" type="line"/>
      <point x="377.3975903614458" y="390.5903614457831" type="line"/>
      <point x="398.8313253012048" y="531.6265060240964" type="line"/>
      <point x="291.85542168674704" y="531.6265060240964" type="line"/>
      <point x="270.421686746988" y="390.5903614457831" type="line"/>
      <point x="79.56626506024097" y="390.5903614457831" type="line"/>
      <point x="63.06024096385542" y="286.9277108433735" type="line"/>
      <point x="253.22891566265062" y="286.9277108433735" type="line"/>
    </contour>
    <contour>
      <point x="17.686746987951807" y="0.0" type="line"/>
      <point x="505.68674698795184" y="0.0" type="line"/>
      <point x="521.1927710843373" y="103.03614457831326" type="line"/>
      <point x="33.19277108433735" y="103.03614457831326" type="line"/>
    </contour>
  </outline>
</glyph>
<glyph name="micro" format="2">
  <advance width="600.0"/>
  <unicode hex="00B5"/>
  <outline>
    <contour>
      <point x="-4.903614457831324" y="-180.0" type="line"/>
      <point x="146.0963855421687" y="-180.0" type="line"/>
      <point x="168.96385542168676" y="37.16867469879518" type="line"/>
      <point x="168.1566265060241" y="36.48192771084337" type="line"/>
      <point x="182.27710843373495" y="6.180722891566267"/>
      <point x="212.89156626506022" y="-10.626506024096384"/>
      <point x="252.93975903614455" y="-10.626506024096384" type="curve" smooth="yes"/>
      <point x="305.1686746987952" y="-10.626506024096384"/>
      <point x="347.277108433735" y="28.18072289156627"/>
      <point x="368.0843373493976" y="96.04819277108433" type="curve"/>
      <point x="367.2771084337349" y="96.04819277108433" type="line"/>
      <point x="352.2168674698795" y="0.0" type="line"/>
      <point x="499.5903614457832" y="0.0" type="line"/>
      <point x="576.9036144578314" y="490.566265060241" type="line"/>
      <point x="425.9036144578313" y="490.566265060241" type="line"/>
      <point x="384.90361445783134" y="228.87951807228916" type="line" smooth="yes"/>
      <point x="372.4698795180723" y="152.96385542168673"/>
      <point x="330.10843373493975" y="106.85542168674698"/>
      <point x="267.0722891566265" y="106.85542168674698" type="curve" smooth="yes"/>
      <point x="215.90361445783134" y="106.85542168674698"/>
      <point x="197.28915662650604" y="138.46987951807228"/>
      <point x="207.40963855421688" y="201.13253012048193" type="curve" smooth="yes"/>
      <point x="253.0963855421687" y="490.566265060241" type="line"/>
      <point x="102.09638554216868" y="490.566265060241" type="line"/>
    </contour>
  </outline>
</glyph>
<glyph name="paragraph" format="2">
  <advance width="645.3012048192771"/>
  <unicode hex="00B6"/>
  <outline>
    <contour>
      <point x="183.81927710843374" y="-180.0" type="line"/>
      <point x="290.1686746987952" y="-180.0" type="line"/>
      <point x="413.66265060240966" y="600.0240963855422" type="line"/>
      <point x="524.3975903614457" y="600.0240963855422" type="line"/>
      <point x="400.90361445783134" y="-180.0" type="line"/>
      <point x="507.2530120481928" y="-180.0" type="line"/>
      <point x="647.2530120481928" y="705.0" type="line"/>
      <point x="315.1927710843373" y="705.0" type="line" smooth="yes"/>
      <point x="163.6144578313253" y="705.0"/>
      <point x="65.10843373493975" y="605.867469879518"/>
      <point x="65.10843373493975" y="456.9156626506024" type="curve" smooth="yes"/>
      <point x="65.10843373493975" y="348.21686746987956"/>
      <point x="137.24096385542168" y="265.3975903614458"/>
      <point x="254.3132530120482" y="265.3975903614458" type="curve"/>
    </contour>
  </outline>
</glyph>
<glyph name="periodcentered" format="2">
  <advance width="259.5903614457831"/>
  <unicode hex="00B7"/>
  <outline>
    <contour>
      <point x="39.79518072289157" y="187.97590361445785" type="line"/>
      <point x="202.03614457831324" y="187.97590361445785" type="line"/>
      <point x="227.48192771084337" y="348.27710843373495" type="line"/>
      <point x="65.24096385542168" y="348.27710843373495" type="line"/>
    </contour>
  </outline>
</glyph>
<glyph name="questiondown" format="2">
  <advance width="468.39759036144574"/>
  <unicode hex="00BF"/>
  <outline>
    <contour>
      <point x="164.32530120481925" y="-190.6265060240964" type="curve" smooth="yes"/>
      <point x="250.0722891566265" y="-190.6265060240964"/>
      <point x="338.32530120481925" y="-170.50602409638554"/>
      <point x="409.0843373493976" y="-116.19277108433734" type="curve"/>
      <point x="363.8192771084337" y="-3.024096385542173" type="line"/>
      <point x="306.44578313253015" y="-46.51807228915663"/>
      <point x="247.95180722891567" y="-61.638554216867476"/>
      <point x="190.27710843373492" y="-61.638554216867476" type="curve" smooth="yes"/>
      <point x="144.54216867469881" y="-61.638554216867476"/>
      <point x="120.6144578313253" y="-39.65060240963855"/>
      <point x="120.6144578313253" y="-8.602409638554217" type="curve" smooth="yes"/>
      <point x="120.6144578313253" y="26.132530120481928"/>
      <point x="142.9156626506024" y="49.43373493975904"/>
      <point x="184.53012048192772" y="79.10843373493975" type="curve" smooth="yes"/>
      <point x="248.83132530120486" y="122.84337349397589"/>
      <point x="270.26506024096386" y="165.59036144578312"/>
      <point x="279.32530120481925" y="225.20481927710844" type="curve" smooth="yes"/>
      <point x="285.9518072289157" y="266.8433734939759" type="line"/>
      <point x="195.855421686747" y="266.8433734939759" type="line"/>
      <point x="185.60240963855424" y="238.65060240963854" type="line" smooth="yes"/>
      <point x="173.22891566265062" y="198.97590361445782"/>
      <point x="151.73493975903617" y="169.10843373493978"/>
      <point x="80.98795180722892" y="127.12048192771084" type="curve" smooth="yes"/>
      <point x="10.361445783132533" y="85.87951807228916"/>
      <point x="-33.0722891566265" y="32.506024096385545"/>
      <point x="-33.0722891566265" y="-40.80722891566264" type="curve" smooth="yes"/>
      <point x="-33.0722891566265" y="-124.6867469879518"/>
      <point x="43.373493975903614" y="-190.6265060240964"/>
    </contour>
    <contour>
      <point x="169.53012048192772" y="329.9518072289157" type="line"/>
      <point x="331.7710843373494" y="329.9518072289157" type="line"/>
      <point x="357.2168674698795" y="490.25301204819283" type="line"/>
      <point x="194.97590361445785" y="490.25301204819283" type="line"/>
    </contour>
  </outline>
</glyph>
<glyph name="AE" format="2">
  <advance width="999.578313253012"/>
  <unicode hex="00C6"/>
  <anchor x="449.3132530120482" y="0.0" name="bottom"/>
  <anchor x="549.2530120481929" y="705.0" name="top"/>
  <outline>
    <contour>
      <point x="-86.90361445783132" y="0.0" type="line"/>
      <point x="82.60240963855422" y="0.0" type="line"/>
      <point x="228.0963855421687" y="193.55421686746988" type="line"/>
      <point x="165.07228915662648" y="152.97590361445785" type="line"/>
      <point x="548.5662650602409" y="152.97590361445785" type="line"/>
      <point x="506.61445783132524" y="198.80722891566265" type="line"/>
      <point x="518.2409638554217" y="0.0" type="line"/>
      <point x="908.9518072289156" y="0.0" type="line"/>
      <point x="928.0843373493975" y="121.42168674698794" type="line"/>
      <point x="599.6506024096385" y="121.42168674698794" type="line"/>
      <point x="647.855421686747" y="78.78313253012048" type="line"/>
      <point x="632.1686746987951" y="339.8072289156627" type="line"/>
      <point x="590.9036144578314" y="297.28915662650604" type="line"/>
      <point x="933.7590361445783" y="297.28915662650604" type="line"/>
      <point x="952.8915662650603" y="418.71084337349396" type="line"/>
      <point x="582.6506024096386" y="418.71084337349396" type="line"/>
      <point x="630.855421686747" y="376.1927710843373" type="line"/>
      <point x="615.4819277108434" y="620.3975903614459" type="line"/>
      <point x="569.3373493975903" y="583.5783132530121" type="line"/>
      <point x="1000.8192771084338" y="583.5783132530121" type="line"/>
      <point x="1019.9518072289158" y="705.0" type="line"/>
      <point x="468.421686746988" y="705.0" type="line"/>
    </contour>
    <contour>
      <point x="484.55421686746985" y="535.0602409638554" type="line"/>
      <point x="486.55421686746985" y="535.0602409638554" type="line"/>
      <point x="504.61445783132535" y="231.56626506024097" type="line"/>
      <point x="540.5060240963855" y="274.3975903614458" type="line"/>
      <point x="256.73493975903614" y="274.3975903614458" type="line"/>
      <point x="259.7951807228916" y="236.81927710843374" type="line"/>
    </contour>
  </outline>
</glyph>
<glyph name="multiply" format="2">
  <advance width="600.0"/>
  <unicode hex="00D7"/>
  <outline>
    <contour>
      <point x="128.96385542168676" y="51.626506024096386" type="line"/>
      <point x="304.3734939759036" y="212.66265060240966" type="line"/>
      <point x="451.66265060240966" y="51.626506024096386" type="line"/>
      <point x="525.9397590361446" y="124.27710843373494" type="line"/>
      <point x="379.3373493975903" y="285.6265060240964" type="line"/>
      <point x="555.4337349397591" y="446.6626506024096" type="line"/>
      <point x="485.0963855421687" y="520.3132530120482" type="line"/>
      <point x="309.68674698795184" y="358.96385542168673" type="line"/>
      <point x="162.3975903614458" y="520.3132530120482" type="line"/>
      <point x="87.43373493975903" y="446.6626506024096" type="line"/>
      <point x="234.03614457831327" y="287.0" type="line"/>
      <point x="57.93975903614458" y="124.27710843373494" type="line"/>
    </contour>
  </outline>
</glyph>
<glyph name="Thorn" format="2">
  <advance width="666.2168674698795"/>
  <unicode hex="00DE"/>
  <anchor x="300.6385542168675" y="0.0" name="bottom"/>
  <anchor x="411.32530120481925" y="705.0" name="top"/>
  <outline>
    <contour>
      <point x="31.734939759036138" y="0.0" type="line"/>
      <point x="186.9879518072289" y="0.0" type="line"/>
      <point x="209.36144578313252" y="141.30120481927713" type="line"/>
      <point x="375.2650602409638" y="141.30120481927713" type="line" smooth="yes"/>
      <point x="560.9036144578313" y="141.30120481927713"/>
      <point x="660.722891566265" y="233.6144578313253"/>
      <point x="660.722891566265" y="393.56626506024094" type="curve" smooth="yes"/>
      <point x="660.722891566265" y="519.1927710843372"/>
      <point x="577.0963855421686" y="592.6385542168675"/>
      <point x="413.8915662650602" y="592.6385542168675" type="curve" smooth="yes"/>
      <point x="280.9277108433735" y="592.6385542168675" type="line"/>
      <point x="298.9879518072289" y="705.0" type="line"/>
      <point x="143.73493975903614" y="705.0" type="line"/>
    </contour>
    <contour>
      <point x="228.49397590361446" y="262.03614457831327" type="line"/>
      <point x="261.7951807228916" y="471.90361445783134" type="line"/>
      <point x="394.1927710843374" y="471.90361445783134" type="line" smooth="yes"/>
      <point x="473.67469879518075" y="471.90361445783134"/>
      <point x="511.6626506024097" y="443.6626506024096"/>
      <point x="511.6626506024097" y="379.7469879518072" type="curve" smooth="yes"/>
      <point x="511.6626506024097" y="303.08433734939763"/>
      <point x="466.9277108433735" y="262.03614457831327"/>
      <point x="381.89156626506025" y="262.03614457831327" type="curve" smooth="yes"/>
    </contour>
  </outline>
</glyph>
<glyph name="germandbls" format="2">
  <advance width="675.867469879518"/>
  <unicode hex="00DF"/>
  <outline>
    <contour>
      <point x="430.10843373493975" y="-10.626506024096384" type="curve" smooth="yes"/>
      <point x="552.1807228915662" y="-10.626506024096384"/>
      <point x="641.8795180722892" y="48.626506024096386"/>
      <point x="641.8795180722892" y="159.89156626506022" type="curve" smooth="yes"/>
      <point x="641.8795180722892" y="232.5180722891566"/>
      <point x="599.5060240963855" y="271.4578313253012"/>
      <point x="524.6987951807229" y="298.8313253012048" type="curve" smooth="yes"/>
      <point x="469.4578313253012" y="317.89156626506025"/>
      <point x="445.4578313253012" y="333.07228915662654"/>
      <point x="445.4578313253012" y="357.87951807228916" type="curve" smooth="yes"/>
      <point x="445.4578313253012" y="380.8674698795181"/>
      <point x="460.3855421686747" y="395.36144578313247"/>
      <point x="511.012048192771" y="439.86746987951807" type="curve" smooth="yes"/>
      <point x="560.5060240963855" y="483.2409638554217"/>
      <point x="586.7469879518072" y="519.8674698795181"/>
      <point x="586.7469879518072" y="576.734939759036" type="curve" smooth="yes"/>
      <point x="586.7469879518072" y="652.4939759036145"/>
      <point x="511.48192771084337" y="715.6265060240964"/>
      <point x="390.3975903614458" y="715.6265060240964" type="curve" smooth="yes"/>
      <point x="199.04819277108436" y="715.6265060240964"/>
      <point x="117.48192771084337" y="618.6144578313252"/>
      <point x="91.22891566265059" y="451.09638554216866" type="curve" smooth="yes"/>
      <point x="20.10843373493975" y="0.0" type="line"/>
      <point x="171.10843373493975" y="0.0" type="line"/>
      <point x="246.16867469879517" y="474.7349397590362" type="line" smooth="yes"/>
      <point x="260.54216867469876" y="567.3493975903615"/>
      <point x="304.46987951807233" y="608.3373493975903"/>
      <point x="385.4578313253012" y="608.3373493975903" type="curve" smooth="yes"/>
      <point x="427.6987951807229" y="608.3373493975903"/>
      <point x="445.566265060241" y="584.2168674698795"/>
      <point x="445.566265060241" y="559.2891566265059" type="curve" smooth="yes"/>
      <point x="445.566265060241" y="526.6746987951808"/>
      <point x="427.3855421686747" y="505.92771084337346"/>
      <point x="396.7710843373494" y="480.7469879518072" type="curve" smooth="yes"/>
      <point x="335.4698795180723" y="429.6265060240964"/>
      <point x="308.2168674698795" y="391.4939759036145"/>
      <point x="308.2168674698795" y="332.3012048192771" type="curve" smooth="yes"/>
      <point x="308.2168674698795" y="277.2409638554217"/>
      <point x="341.84337349397583" y="237.67469879518075"/>
      <point x="424.33734939759034" y="209.30120481927713" type="curve" smooth="yes"/>
      <point x="486.9518072289157" y="187.55421686746988"/>
      <point x="505.6385542168674" y="170.6265060240964"/>
      <point x="505.6385542168674" y="147.3855421686747" type="curve" smooth="yes"/>
      <point x="505.6385542168674" y="114.59036144578313"/>
      <point x="478.96385542168673" y="99.6024096385542"/>
      <point x="432.9879518072289" y="99.6024096385542" type="curve" smooth="yes"/>
      <point x="381.18072289156623" y="99.6024096385542"/>
      <point x="321.3614457831326" y="118.9156626506024"/>
      <point x="274.4216867469879" y="150.66265060240966" type="curve"/>
      <point x="224.84337349397592" y="54.0" type="line"/>
      <point x="270.72289156626505" y="15.686746987951807"/>
      <point x="348.22891566265054" y="-10.626506024096384"/>
    </contour>
  </outline>
</glyph>
<glyph name="ae" format="2">
  <advance width="867.5060240963855"/>
  <unicode hex="00E6"/>
  <anchor x="375.6867469879518" y="0.0" name="bottom"/>
  <anchor x="435.8072289156626" y="484.0" name="top"/>
  <outline>
    <contour>
      <point x="217.81927710843374" y="-10.626506024096384" type="curve" smooth="yes"/>
      <point x="304.93975903614455" y="-10.626506024096384"/>
      <point x="385.3132530120482" y="29.55421686746988"/>
      <point x="415.0" y="117.97590361445782" type="curve"/>
      <point x="390.31325301204816" y="117.97590361445782" type="line"/>
      <point x="418.7590361445784" y="36.92771084337349"/>
      <point x="495.13253012048193" y="-10.626506024096384"/>
      <point x="604.2530120481928" y="-10.626506024096384" type="curve" smooth="yes"/>
      <point x="683.0722891566265" y="-10.626506024096384"/>
      <point x="757.3855421686746" y="12.060240963855422"/>
      <point x="805.6385542168675" y="50.49397590361446" type="curve"/>
      <point x="771.8192771084338" y="149.0963855421687" type="line"/>
      <point x="731.0722891566264" y="117.9156626506024"/>
      <point x="679.0722891566264" y="102.22891566265059"/>
      <point x="620.3253012048192" y="102.22891566265059" type="curve" smooth="yes"/>
      <point x="529.843373493976" y="102.22891566265059"/>
      <point x="484.5421686746988" y="153.45783132530119"/>
      <point x="498.9759036144579" y="243.06024096385542" type="curve" smooth="yes"/>
      <point x="504.60240963855426" y="278.13253012048193" type="line" smooth="yes"/>
      <point x="514.6626506024096" y="342.86746987951807"/>
      <point x="552.710843373494" y="400.21686746987956"/>
      <point x="627.1807228915662" y="400.21686746987956" type="curve" smooth="yes"/>
      <point x="701.1566265060242" y="400.21686746987956"/>
      <point x="727.6506024096385" y="344.9879518072289"/>
      <point x="717.5903614457832" y="277.0722891566265" type="curve"/>
      <point x="735.5903614457832" y="292.1927710843373" type="line"/>
      <point x="484.34939759036143" y="292.1927710843373" type="line"/>
      <point x="473.0963855421687" y="214.24096385542168" type="line"/>
      <point x="833.0120481927711" y="214.24096385542168" type="line"/>
      <point x="837.3253012048194" y="242.86746987951807" type="line" smooth="yes"/>
      <point x="858.5180722891566" y="384.81927710843377"/>
      <point x="790.2530120481928" y="501.1927710843374"/>
      <point x="629.4939759036145" y="501.1927710843374" type="curve" smooth="yes"/>
      <point x="550.4457831325301" y="501.1927710843374"/>
      <point x="483.95180722891564" y="469.144578313253"/>
      <point x="438.69879518072287" y="410.1566265060241" type="curve"/>
      <point x="471.32530120481925" y="410.1566265060241" type="line"/>
      <point x="445.31325301204816" y="470.578313253012"/>
      <point x="389.0" y="501.1927710843374"/>
      <point x="301.50602409638554" y="501.1927710843374" type="curve" smooth="yes"/>
      <point x="219.74698795180723" y="501.1927710843374"/>
      <point x="131.67469879518072" y="477.566265060241"/>
      <point x="80.42168674698794" y="442.566265060241" type="curve"/>
      <point x="112.55421686746988" y="339.5301204819277" type="line"/>
      <point x="164.86746987951807" y="372.5903614457831"/>
      <point x="222.43373493975903" y="388.27710843373495"/>
      <point x="281.12048192771084" y="388.27710843373495" type="curve" smooth="yes"/>
      <point x="349.16867469879514" y="388.27710843373495"/>
      <point x="374.03614457831327" y="358.6626506024097"/>
      <point x="365.6024096385542" y="303.31325301204816" type="curve" smooth="yes"/>
      <point x="346.9156626506024" y="185.6265060240964" type="line" smooth="yes"/>
      <point x="336.7951807228916" y="125.65060240963855"/>
      <point x="296.8795180722891" y="92.72289156626506"/>
      <point x="239.2048192771084" y="92.72289156626506" type="curve" smooth="yes"/>
      <point x="196.96385542168676" y="92.72289156626506"/>
      <point x="168.2289156626506" y="115.59036144578313"/>
      <point x="168.2289156626506" y="151.44578313253012" type="curve" smooth="yes"/>
      <point x="168.2289156626506" y="196.24096385542168"/>
      <point x="205.21686746987953" y="214.24096385542168"/>
      <point x="301.91566265060237" y="214.24096385542168" type="curve" smooth="yes"/>
      <point x="365.855421686747" y="214.24096385542168" type="line"/>
      <point x="377.10843373493975" y="292.1927710843373" type="line"/>
      <point x="297.73493975903614" y="292.1927710843373" type="line" smooth="yes"/>
      <point x="108.67469879518073" y="292.1927710843373"/>
      <point x="22.734939759036152" y="246.50602409638554"/>
      <point x="22.734939759036152" y="143.19277108433735" type="curve" smooth="yes"/>
      <point x="22.734939759036152" y="40.12048192771085"/>
      <point x="117.12048192771084" y="-10.626506024096384"/>
    </contour>
  </outline>
</glyph>
<glyph name="eth" format="2">
  <advance width="592.5301204819277"/>
  <unicode hex="00F0"/>
  <outline>
    <contour>
      <point x="267.3253012048193" y="-10.626506024096384" type="curve" smooth="yes"/>
      <point x="463.144578313253" y="-10.626506024096384"/>
      <point x="566.5421686746988" y="131.9879518072289"/>
      <point x="567.2289156626506" y="318.25301204819283" type="curve" smooth="yes"/>
      <point x="567.2289156626506" y="424.0481927710843"/>
      <point x="527.9759036144578" y="533.6746987951807"/>
      <point x="436.4698795180723" y="612.9277108433736" type="curve"/>
      <point x="432.2771084337349" y="599.7951807228916" type="line"/>
      <point x="548.2168674698795" y="651.7349397590361" type="line"/>
      <point x="517.4578313253011" y="716.2530120481928" type="line"/>
      <point x="368.89156626506025" y="649.6867469879518" type="line"/>
      <point x="388.51807228915663" y="647.6867469879518" type="line"/>
      <point x="338.4457831325301" y="679.2530120481928"/>
      <point x="275.43373493975906" y="703.1927710843373"/>
      <point x="200.16867469879517" y="716.2530120481928" type="curve"/>
      <point x="167.7831325301205" y="624.156626506024" type="line"/>
      <point x="202.7831325301205" y="619.4096385542169"/>
      <point x="236.03614457831324" y="609.0361445783133"/>
      <point x="267.2891566265061" y="593.6626506024097" type="curve"/>
      <point x="273.04819277108436" y="606.7349397590361" type="line"/>
      <point x="140.60240963855426" y="548.5421686746988" type="line"/>
      <point x="171.36144578313252" y="484.0240963855421" type="line"/>
      <point x="342.6265060240964" y="559.7831325301205" type="line"/>
      <point x="322.43373493975906" y="561.2168674698795" type="line"/>
      <point x="395.9879518072289" y="505.66265060240966"/>
      <point x="440.6746987951807" y="420.86746987951807"/>
      <point x="432.0481927710843" y="321.45783132530124" type="curve"/>
      <point x="456.5542168674699" y="322.45783132530124" type="line"/>
      <point x="442.67469879518075" y="414.4457831325301"/>
      <point x="370.30120481927713" y="448.43373493975906"/>
      <point x="283.8072289156627" y="448.43373493975906" type="curve" smooth="yes"/>
      <point x="139.86746987951807" y="448.43373493975906"/>
      <point x="29.30120481927711" y="345.3132530120482"/>
      <point x="29.30120481927711" y="195.81927710843374" type="curve" smooth="yes"/>
      <point x="29.30120481927711" y="74.19277108433735"/>
      <point x="130.06024096385542" y="-10.626506024096384"/>
    </contour>
    <contour>
      <point x="281.144578313253" y="104.22891566265059" type="curve" smooth="yes"/>
      <point x="219.289156626506" y="104.22891566265059"/>
      <point x="181.3012048192771" y="140.5301204819277"/>
      <point x="181.3012048192771" y="198.50602409638554" type="curve" smooth="yes"/>
      <point x="181.3012048192771" y="285.4096385542169"/>
      <point x="232.53012048192772" y="337.2048192771084"/>
      <point x="302.13253012048193" y="337.2048192771084" type="curve" smooth="yes"/>
      <point x="363.98795180722897" y="337.2048192771084"/>
      <point x="401.9759036144578" y="300.9036144578314"/>
      <point x="401.9759036144578" y="242.9277108433735" type="curve" smooth="yes"/>
      <point x="401.9759036144578" y="156.02409638554218"/>
      <point x="350.7469879518073" y="104.22891566265059"/>
    </contour>
  </outline>
</glyph>
<glyph name="divide" format="2">
  <advance width="600.0"/>
  <unicode hex="00F7"/>
  <outline>
    <contour>
      <point x="54.43373493975904" y="235.4819277108434" type="line"/>
      <point x="542.433734939759" y="235.4819277108434" type="line"/>
      <point x="558.9397590361446" y="338.51807228915663" type="line"/>
      <point x="70.93975903614458" y="338.51807228915663" type="line"/>
    </contour>
    <contour>
      <point x="203.04819277108436" y="33.6144578313253" type="line"/>
      <point x="317.6987951807229" y="33.6144578313253" type="line"/>
      <point x="336.2650602409639" y="148.57831325301203" type="line"/>
      <point x="221.61445783132532" y="148.57831325301203" type="line"/>
    </contour>
    <contour>
      <point x="265.421686746988" y="425.421686746988" type="line"/>
      <point x="380.07228915662654" y="425.421686746988" type="line"/>
      <point x="397.9518072289157" y="540.3855421686748" type="line"/>
      <point x="283.30120481927713" y="540.3855421686748" type="line"/>
    </contour>
  </outline>
</glyph>
<glyph name="thorn" format="2">
  <advance width="610.0240963855422"/>
  <unicode hex="00FE"/>
  <anchor x="265.01204819277103" y="0.0" name="bottom"/>
  <anchor x="341.0120481927711" y="484.0" name="top"/>
  <outline>
    <contour>
      <point x="-8.578313253012055" y="-180.0" type="line"/>
      <point x="142.42168674698794" y="-180.0" type="line"/>
      <point x="185.16867469879517" y="88.855421686747" type="line"/>
      <point x="175.5421686746988" y="89.16867469879519" type="line"/>
      <point x="198.5421686746988" y="23.807228915662645"/>
      <point x="258.03614457831327" y="-10.626506024096384"/>
      <point x="330.84337349397595" y="-10.626506024096384" type="curve" smooth="yes"/>
      <point x="482.27710843373495" y="-10.626506024096384"/>
      <point x="578.4096385542168" y="119.18072289156626"/>
      <point x="578.4096385542168" y="288.6265060240964" type="curve" smooth="yes"/>
      <point x="578.4096385542168" y="419.2530120481928"/>
      <point x="506.0361445783132" y="501.1927710843374"/>
      <point x="394.66265060240966" y="501.1927710843374" type="curve" smooth="yes"/>
      <point x="322.0481927710843" y="501.1927710843374"/>
      <point x="261.3012048192771" y="465.69879518072287"/>
      <point x="224.9879518072289" y="405.4578313253012" type="curve"/>
      <point x="235.67469879518072" y="406.14457831325296" type="line"/>
      <point x="282.4216867469879" y="705.0" type="line"/>
      <point x="131.42168674698794" y="705.0" type="line"/>
    </contour>
    <contour>
      <point x="300.3253012048193" y="102.22891566265059" type="curve" smooth="yes"/>
      <point x="242.40963855421688" y="102.22891566265059"/>
      <point x="207.73493975903614" y="140.5301204819277"/>
      <point x="207.73493975903614" y="209.81927710843374" type="curve" smooth="yes"/>
      <point x="207.73493975903614" y="311.7349397590362"/>
      <point x="254.40963855421688" y="388.33734939759034"/>
      <point x="333.8192771084337" y="388.33734939759034" type="curve" smooth="yes"/>
      <point x="391.73493975903614" y="388.33734939759034"/>
      <point x="426.4096385542169" y="350.03614457831327"/>
      <point x="426.4096385542169" y="280.7469879518072" type="curve" smooth="yes"/>
      <point x="426.4096385542169" y="178.5180722891566"/>
      <point x="379.73493975903614" y="102.22891566265059"/>
    </contour>
  </outline>
</glyph>
<glyph name="dcroat" format="2">
  <advance width="610.0240963855422"/>
  <unicode hex="0111"/>
  <outline>
    <contour>
      <point x="214.04819277108433" y="-10.626506024096384" type="curve" smooth="yes"/>
      <point x="286.6626506024096" y="-10.626506024096384"/>
      <point x="348.0361445783132" y="25.554216867469883"/>
      <point x="384.3493975903615" y="85.10843373493975" type="curve"/>
      <point x="378.9759036144578" y="85.10843373493975" type="line"/>
      <point x="365.2289156626506" y="0.0" type="line"/>
      <point x="512.6024096385541" y="0.0" type="line"/>
      <point x="597.6626506024096" y="538.0481927710842" type="line"/>
      <point x="683.156626506024" y="538.0481927710842" type="line"/>
      <point x="699.6626506024095" y="642.3373493975904" type="line"/>
      <point x="614.168674698795" y="642.3373493975904" type="line"/>
      <point x="624.2891566265059" y="705.0" type="line"/>
      <point x="473.28915662650604" y="705.0" type="line"/>
      <point x="463.85542168674704" y="642.3373493975904" type="line"/>
      <point x="277.6746987951808" y="642.3373493975904" type="line"/>
      <point x="261.1686746987952" y="538.0481927710842" type="line"/>
      <point x="447.34939759036143" y="538.0481927710842" type="line"/>
      <point x="424.9156626506024" y="396.13253012048193" type="line"/>
      <point x="432.2289156626506" y="395.13253012048193" type="line"/>
      <point x="409.22891566265065" y="460.49397590361446"/>
      <point x="349.73493975903614" y="494.9277108433735"/>
      <point x="276.9277108433735" y="494.9277108433735" type="curve" smooth="yes"/>
      <point x="126.18072289156628" y="494.9277108433735"/>
      <point x="30.987951807228917" y="365.80722891566273"/>
      <point x="30.987951807228917" y="198.80722891566265" type="curve" smooth="yes"/>
      <point x="30.987951807228917" y="72.0"/>
      <point x="103.36144578313254" y="-10.626506024096384"/>
    </contour>
    <contour>
      <point x="275.578313253012" y="102.22891566265059" type="curve" smooth="yes"/>
      <point x="217.66265060240963" y="102.22891566265059"/>
      <point x="182.9879518072289" y="140.5301204819277"/>
      <point x="182.9879518072289" y="206.6867469879518" type="curve" smooth="yes"/>
      <point x="182.9879518072289" y="305.7831325301205"/>
      <point x="229.66265060240963" y="382.0722891566265"/>
      <point x="309.0722891566265" y="382.0722891566265" type="curve" smooth="yes"/>
      <point x="366.9879518072289" y="382.0722891566265"/>
      <point x="401.6626506024096" y="343.7710843373494"/>
      <point x="401.6626506024096" y="277.6144578313253" type="curve" smooth="yes"/>
      <point x="401.6626506024096" y="178.8313253012048"/>
      <point x="354.9879518072289" y="102.22891566265059"/>
    </contour>
  </outline>
</glyph>
<glyph name="Hbar" format="2">
  <advance width="828.5903614457831"/>
  <unicode hex="0126"/>
  <outline>
    <contour>
      <point x="56.2409638554217" y="0.0" type="line"/>
      <point x="211.49397590361446" y="0.0" type="line"/>
      <point x="256.3012048192771" y="279.90361445783134" type="line"/>
      <point x="583.2168674698794" y="279.90361445783134" type="line"/>
      <point x="538.4096385542168" y="0.0" type="line"/>
      <point x="693.6626506024096" y="0.0" type="line"/>
      <point x="774.7228915662649" y="505.9879518072289" type="line"/>
      <point x="856.2771084337348" y="505.9879518072289" type="line"/>
      <point x="874.0963855421687" y="617.5301204819277" type="line"/>
      <point x="791.8554216867469" y="617.5301204819277" type="line"/>
      <point x="805.6626506024096" y="705.0" type="line"/>
      <point x="650.4096385542168" y="705.0" type="line"/>
      <point x="636.6024096385541" y="617.5301204819277" type="line"/>
      <point x="309.6867469879518" y="617.5301204819277" type="line"/>
      <point x="323.49397590361446" y="705.0" type="line"/>
      <point x="168.24096385542168" y="705.0" type="line"/>
      <point x="154.43373493975903" y="617.5301204819277" type="line"/>
      <point x="73.56626506024097" y="617.5301204819277" type="line"/>
      <point x="55.74698795180723" y="505.9879518072289" type="line"/>
      <point x="136.6144578313253" y="505.9879518072289" type="line"/>
    </contour>
    <contour>
      <point x="276.7469879518072" y="408.51807228915663" type="line"/>
      <point x="291.86746987951807" y="505.9879518072289" type="line"/>
      <point x="619.4698795180722" y="505.9879518072289" type="line"/>
      <point x="603.6626506024096" y="408.51807228915663" type="line"/>
    </contour>
  </outline>
</glyph>
